<svg width="624" height="624" xmlns="http://www.w3.org/2000/svg" xmlns:xlink="http://www.w3.org/1999/xlink" xml:space="preserve" overflow="hidden"><g><path d="M274.219 581.831C227.053 575.494 177.328 554.531 141.741 525.891 132.356 518.334 109.2 495.422 105.3 489.694 101.644 484.453 102.131 478.969 106.397 475.922 112.491 471.656 115.172 473.119 131.503 489.694 160.266 519.066 192.562 539.297 230.1 551.606 257.888 560.747 280.678 564.281 312 564.281 343.322 564.281 366.113 560.747 393.9 551.606 433.753 538.566 470.559 514.678 498.225 483.966 505.903 475.556 507.731 474.094 511.144 474.094 518.578 474.094 522.966 480.066 520.406 486.891 518.822 490.913 495.909 514.678 484.331 524.184 446.55 555.141 399.263 575.25 348.197 581.953 330.403 584.269 292.013 584.147 274.219 581.831Z" fill="#FFFFFF" transform="matrix(1 0 0 -1 0 624)"/><path d="M289.453 525.159C257.034 521.747 222.909 509.559 194.634 491.278 183.909 484.331 180.375 480.431 180.375 475.8 180.375 472.997 187.078 466.781 190.247 466.781 191.709 466.781 197.559 469.828 203.044 473.484 254.109 507.488 316.022 515.775 374.034 496.519 389.269 491.522 406.941 482.869 420.834 473.606 426.441 469.828 432.291 466.781 433.753 466.781 436.922 466.781 443.625 472.997 443.625 475.8 443.625 480.431 440.091 484.331 429.731 491.034 387.441 518.334 338.447 530.278 289.453 525.159Z" fill="#FFFFFF" transform="matrix(1 0 0 -1 0 624)"/><path d="M125.531 446.184C106.153 439.969 91.8938 426.562 85.9219 408.891 78.6094 386.953 83.6063 362.822 98.8406 346.734 102.375 343.078 104.934 339.788 104.691 339.666 104.447 339.422 100.547 337.594 96.1594 335.522 74.7094 325.65 56.4281 308.831 45.4594 288.844 32.9062 266.175 40.5844 239.972 63.1313 228.881L71.2969 224.859 130.406 224.494 189.638 224.128 190.978 216.206C194.634 195.366 210.234 179.4 230.953 175.622 235.584 174.769 263.981 174.281 312.488 174.281 393.534 174.281 398.166 174.647 409.256 181.106 421.809 188.419 430.463 201.216 433.022 216.206L434.363 224.128 494.081 224.494 553.922 224.859 561.6 229.003C583.659 240.947 590.972 266.541 578.541 288.844 567.694 308.587 549.169 325.65 528.084 335.4 523.453 337.472 519.553 339.422 519.309 339.666 519.066 339.788 521.625 343.078 525.159 346.734 544.781 367.453 546.853 399.263 530.278 423.516 520.041 438.506 503.953 447.159 484.331 448.256 465.075 449.231 450.206 443.869 437.653 431.681 414.009 408.525 413.522 369.525 436.678 345.759 439.847 342.469 442.406 339.666 442.163 339.544 441.919 339.422 438.263 337.716 433.997 335.766 414.375 326.747 399.994 314.316 385.613 293.841 385.369 293.597 383.663 294.572 381.591 296.034 378.422 298.35 365.991 304.444 356.728 308.222L353.316 309.562 360.384 316.144C389.025 342.712 389.756 389.269 362.091 416.934 334.791 444.234 289.209 444.113 261.666 416.691 234.244 389.269 235.097 342.712 263.616 316.144L270.684 309.562 267.272 308.222C258.009 304.444 245.578 298.35 242.409 296.034 240.338 294.572 238.631 293.597 238.388 293.841 224.006 314.316 209.625 326.747 190.003 335.766 185.738 337.716 182.081 339.422 181.838 339.544 181.594 339.666 184.153 342.469 187.322 345.759 199.022 357.825 205.603 375.741 204.263 391.828 201.947 419.494 185.372 439.847 159.534 446.672 150.394 449.109 133.819 448.866 125.531 446.184ZM161.85 424.856C170.381 420.469 177.45 413.278 181.35 404.747 185.981 394.997 185.981 381.347 181.35 371.475 177.45 363.066 169.65 354.9 161.484 350.878 156.244 348.319 153.684 347.953 143.203 347.953 132.844 347.953 130.163 348.441 125.531 350.878 99.0844 364.65 94.0875 398.897 115.781 418.397 124.8 426.562 132.234 429.122 145.031 428.634 153.441 428.269 156.609 427.538 161.85 424.856ZM495.3 426.441C523.331 416.081 530.766 379.397 509.194 358.8 500.053 349.903 494.812 347.953 480.797 347.953 470.316 347.953 467.756 348.319 462.516 350.878 454.35 354.9 446.55 363.066 442.65 371.475 438.019 381.347 438.019 394.997 442.65 404.747 447.647 415.472 457.763 424.369 469.219 427.903 475.434 429.731 488.475 429.122 495.3 426.441ZM323.212 416.691C349.416 411.084 366.722 385.613 362.212 359.288 359.166 341.738 349.538 328.575 334.181 321.384 326.503 317.728 325.284 317.484 312 317.484 298.716 317.484 297.497 317.728 289.819 321.384 258.741 336.131 251.306 377.691 275.316 402.553 287.259 415.106 305.419 420.469 323.212 416.691ZM161.972 324.797C184.762 320.044 207.431 305.175 219.741 286.894L223.153 281.775 217.425 275.925C210.113 268.369 201.703 257.034 197.925 249.6L195 243.75 135.891 243.75C97.2563 243.75 75.8063 244.238 73.4906 245.091 65.6906 248.016 58.6219 258.375 58.5 267.028 58.5 276.778 71.9062 296.278 86.4094 307.247 108.103 323.7 136.256 330.281 161.972 324.797ZM502.125 324.188C521.381 319.556 539.906 308.1 551.972 293.475 559.772 283.847 565.5 272.756 565.5 267.028 565.378 258.375 558.309 248.016 550.509 245.091 548.194 244.238 526.744 243.75 488.109 243.75L429 243.75 426.075 249.6C422.541 256.669 414.131 268.003 406.575 275.925L400.969 282.019 404.259 286.894C413.278 300.178 431.803 314.681 447.525 320.775 464.1 327.113 484.575 328.331 502.125 324.188ZM342.103 292.013C369.281 284.578 393.656 266.541 407.184 243.75 413.766 232.538 415.472 224.006 412.791 215.475 410.231 207.188 404.869 200.85 397.678 197.194L391.828 194.391 314.559 194.025C229.369 193.659 229.369 193.659 220.228 201.216 213.159 207.066 210.356 213.525 210.234 223.641 210.234 231.562 210.6 232.903 215.597 241.678 231.562 269.466 261.544 289.697 294.572 294.938 306.638 296.766 329.428 295.425 342.103 292.013Z" fill="#FFFFFF" transform="matrix(1 0 0 -1 0 624)"/><path d="M78.1219 193.659C74.3438 192.197 72.0281 189.028 71.9062 185.494 71.9062 181.838 76.05 173.794 84.9469 160.266 121.631 104.691 177.328 65.2031 242.044 48.8719 269.222 41.925 278.241 40.95 311.391 40.8281 335.278 40.8281 344.663 41.3156 354.9 43.0219 414.497 53.1375 464.588 78.2438 504.562 118.219 523.453 136.988 545.878 167.456 551.119 181.106 553.191 186.713 551.484 191.1 546.487 193.416 542.709 195.366 541.856 195.366 539.053 193.781 537.225 192.806 532.106 186.103 527.719 179.034 523.209 171.844 517.481 163.434 515.044 160.144 479.456 113.466 429.975 80.5594 374.278 66.4219 350.878 60.5719 339.909 59.2313 312 59.2313 284.091 59.2313 273.122 60.5719 249.722 66.4219 185.981 82.6312 130.528 123.338 96.1594 179.278 92.1375 185.738 88.2375 191.709 87.3844 192.319 84.825 194.269 81.1688 194.878 78.1219 193.659Z" fill="#FFFFFF" transform="matrix(1 0 0 -1 0 624)"/><path d="M147.834 193.781C144.544 192.441 142.594 188.906 142.594 184.153 142.594 181.35 144.422 178.303 149.663 172.209 206.7 105.909 297.497 81.0469 380.738 108.956 415.716 120.656 449.719 143.691 474.338 172.209 479.944 178.669 481.406 181.35 481.406 184.519 481.406 190.491 477.872 194.269 472.266 194.269 468.244 194.269 467.025 193.538 462.759 188.297 454.472 177.938 436.069 160.631 425.588 153.075 404.016 137.719 374.034 125.409 346.491 120.534 327.722 117.244 298.472 117 280.922 120.047 243.141 126.506 212.306 140.522 185.128 163.8 177.084 170.625 173.184 174.647 159.534 190.369 156.244 194.147 151.734 195.366 147.834 193.781Z" fill="#FFFFFF" transform="matrix(1 0 0 -1 0 624)"/></g></svg>