<?xml version="1.0" standalone="no"?>
<!DOCTYPE svg PUBLIC "-//W3C//DTD SVG 20010904//EN"
 "http://www.w3.org/TR/2001/REC-SVG-20010904/DTD/svg10.dtd">
<svg version="1.0" xmlns="http://www.w3.org/2000/svg"
 width="512.000000pt" height="512.000000pt" viewBox="0 0 512.000000 512.000000"
 preserveAspectRatio="xMidYMid meet">

<g transform="translate(0.000000,512.000000) scale(0.100000,-0.100000)"
fill="#000000" stroke="none">
<path d="M2250 4774 c-387 -52 -795 -224 -1087 -459 -77 -62 -267 -250 -299
-297 -30 -43 -26 -88 9 -113 50 -35 72 -23 206 113 236 241 501 407 809 508
228 75 415 104 672 104 257 0 444 -29 672 -104 327 -107 629 -303 856 -555 63
-69 78 -81 106 -81 61 0 97 49 76 105 -13 33 -201 228 -296 306 -310 254 -698
419 -1117 474 -146 19 -461 18 -607 -1z"/>
<path d="M2375 4309 c-266 -28 -546 -128 -778 -278 -88 -57 -117 -89 -117
-127 0 -23 55 -74 81 -74 12 0 60 25 105 55 419 279 927 347 1403 189 125 -41
270 -112 384 -188 46 -31 94 -56 106 -56 26 0 81 51 81 74 0 38 -29 70 -114
125 -347 224 -749 322 -1151 280z"/>
<path d="M1030 3661 c-159 -51 -276 -161 -325 -306 -60 -180 -19 -378 106
-510 29 -30 50 -57 48 -58 -2 -2 -34 -17 -70 -34 -176 -81 -326 -219 -416
-383 -103 -186 -40 -401 145 -492 l67 -33 485 -3 486 -3 11 -65 c30 -171 158
-302 328 -333 38 -7 271 -11 669 -11 665 0 703 3 794 56 103 60 174 165 195
288 l11 65 490 3 491 3 63 34 c181 98 241 308 139 491 -89 162 -241 302 -414
382 -38 17 -70 33 -72 35 -2 1 19 28 48 58 161 170 178 431 42 630 -84 123
-216 194 -377 203 -158 8 -280 -36 -383 -136 -194 -190 -198 -510 -8 -705 26
-27 47 -50 45 -51 -2 -1 -32 -15 -67 -31 -161 -74 -279 -176 -397 -344 -2 -2
-16 6 -33 18 -26 19 -128 69 -204 100 l-28 11 58 54 c235 218 241 600 14 827
-224 224 -598 223 -824 -2 -225 -225 -218 -607 16 -825 l58 -54 -28 -11 c-76
-31 -178 -81 -204 -100 -17 -12 -31 -20 -33 -18 -118 168 -236 270 -397 344
-35 16 -65 30 -67 31 -2 1 19 24 45 51 96 99 150 246 139 378 -19 227 -155
394 -367 450 -75 20 -211 18 -279 -4z m298 -175 c70 -36 128 -95 160 -165 38
-80 38 -192 0 -273 -32 -69 -96 -136 -163 -169 -43 -21 -64 -24 -150 -24 -85
0 -107 4 -145 24 -217 113 -258 394 -80 554 74 67 135 88 240 84 69 -3 95 -9
138 -31z m2736 13 c230 -85 291 -386 114 -555 -75 -73 -118 -89 -233 -89 -86
0 -107 3 -150 24 -67 33 -131 100 -163 169 -38 81 -38 193 0 273 41 88 124
161 218 190 51 15 158 10 214 -12z m-1412 -80 c215 -46 357 -255 320 -471 -25
-144 -104 -252 -230 -311 -63 -30 -73 -32 -182 -32 -109 0 -119 2 -182 32
-255 121 -316 462 -119 666 98 103 247 147 393 116z m-1323 -754 c187 -39 373
-161 474 -311 l28 -42 -47 -48 c-60 -62 -129 -155 -160 -216 l-24 -48 -485 0
c-317 0 -493 4 -512 11 -64 24 -122 109 -123 180 0 80 110 240 229 330 178
135 409 189 620 144z m2791 -5 c158 -38 310 -132 409 -252 64 -79 111 -170
111 -217 -1 -71 -59 -156 -123 -180 -19 -7 -195 -11 -512 -11 l-485 0 -24 48
c-29 58 -98 151 -160 216 l-46 50 27 40 c74 109 226 228 355 278 136 52 304
62 448 28z m-1313 -264 c223 -61 423 -209 534 -396 54 -92 68 -162 46 -232
-21 -68 -65 -120 -124 -150 l-48 -23 -634 -3 c-699 -3 -699 -3 -774 59 -58 48
-81 101 -82 184 0 65 3 76 44 148 131 228 377 394 648 437 99 15 286 4 390
-24z"/>
<path d="M641 1589 c-31 -12 -50 -38 -51 -67 0 -30 34 -96 107 -207 301 -456
758 -780 1289 -914 223 -57 297 -65 569 -66 196 0 273 4 357 18 489 83 900
289 1228 617 155 154 339 404 382 516 17 46 3 82 -38 101 -31 16 -38 16 -61 3
-15 -8 -57 -63 -93 -121 -37 -59 -84 -128 -104 -155 -292 -383 -698 -653
-1155 -769 -192 -48 -282 -59 -511 -59 -229 0 -319 11 -511 59 -523 133 -978
467 -1260 926 -33 53 -65 102 -72 107 -21 16 -51 21 -76 11z"/>
<path d="M1213 1590 c-27 -11 -43 -40 -43 -79 0 -23 15 -48 58 -98 468 -544
1213 -748 1896 -519 287 96 566 285 768 519 46 53 58 75 58 101 0 49 -29 80
-75 80 -33 0 -43 -6 -78 -49 -68 -85 -219 -227 -305 -289 -177 -126 -423 -227
-649 -267 -154 -27 -394 -29 -538 -4 -310 53 -563 168 -786 359 -66 56 -98 89
-210 218 -27 31 -64 41 -96 28z"/>
</g>
</svg>
