<?xml version="1.0" standalone="no"?>
<!DOCTYPE svg PUBLIC "-//W3C//DTD SVG 20010904//EN"
 "http://www.w3.org/TR/2001/REC-SVG-20010904/DTD/svg10.dtd">
<svg version="1.0" xmlns="http://www.w3.org/2000/svg"
 width="512.000000pt" height="512.000000pt" viewBox="0 0 512.000000 512.000000"
 preserveAspectRatio="xMidYMid meet">

<g transform="translate(0.000000,512.000000) scale(0.100000,-0.100000)"
fill="#000000" stroke="none">
<path d="M1055 4451 c-96 -44 -134 -115 -135 -248 l0 -93 -52 -26 c-240 -120
-417 -331 -492 -584 -18 -59 -136 -751 -136 -794 0 -58 86 -90 125 -46 13 15
33 112 81 392 66 389 80 450 121 533 108 214 299 365 531 422 92 22 266 22
357 -1 94 -24 238 -95 305 -150 l55 -46 6 -92 c8 -138 54 -214 157 -265 57
-28 58 -28 258 -28 184 0 204 2 223 19 29 26 29 86 0 112 -19 17 -43 20 -218
24 -215 5 -229 9 -256 66 -8 18 -15 50 -15 73 l0 41 590 0 590 0 0 -41 c0 -49
-25 -105 -54 -122 -14 -8 -90 -14 -217 -17 -175 -4 -199 -7 -218 -24 -29 -26
-29 -86 0 -112 19 -17 39 -19 223 -19 200 0 201 0 258 28 103 51 149 127 157
265 l6 92 55 46 c69 57 213 128 305 150 85 21 256 23 340 5 272 -59 497 -258
585 -520 23 -70 380 -2174 380 -2243 0 -108 -54 -233 -136 -315 -143 -143
-365 -174 -546 -76 -61 33 -148 125 -180 189 -14 27 -42 101 -63 164 -20 63
-46 124 -56 134 -35 37 -100 20 -120 -30 -11 -29 77 -295 123 -372 162 -271
512 -369 801 -224 190 95 326 316 327 531 0 63 -351 2168 -376 2251 -73 248
-249 461 -476 576 l-68 34 0 89 c0 133 -34 201 -123 246 -49 24 -58 25 -235
25 -202 0 -242 -7 -296 -51 -58 -48 -76 -100 -76 -216 l0 -100 -79 -46 c-43
-25 -106 -69 -139 -96 l-61 -51 -631 0 -631 0 -61 51 c-33 27 -96 71 -139 96
l-79 46 0 100 c0 116 -18 168 -76 216 -54 44 -94 51 -295 51 -157 0 -190 -3
-224 -19z m425 -151 c16 -16 20 -33 20 -86 0 -65 0 -66 -24 -60 -104 26 -238
29 -368 9 l-38 -6 0 55 c0 41 5 62 21 82 l20 26 175 0 c161 0 176 -2 194 -20z
m2549 -6 c16 -20 21 -41 21 -82 l0 -55 -37 6 c-131 20 -265 17 -369 -9 -24 -6
-24 -5 -24 60 0 105 2 106 214 106 l175 0 20 -26z"/>
<path d="M3805 3791 c-193 -87 -163 -363 45 -410 132 -30 260 76 260 214 0
156 -163 261 -305 196z m135 -151 c36 -36 19 -102 -30 -111 -34 -7 -70 11 -77
39 -9 34 -5 52 14 75 21 23 68 22 93 -3z"/>
<path d="M1195 3694 c-74 -27 -135 -105 -149 -190 -7 -40 -7 -40 -68 -53 -52
-11 -68 -20 -113 -64 -41 -42 -55 -64 -65 -106 -32 -133 58 -269 190 -287 l48
-6 11 -54 c42 -212 300 -264 425 -87 19 28 30 58 34 92 4 49 6 51 36 51 17 0
54 11 81 24 91 43 135 112 135 211 0 122 -82 215 -205 232 -40 5 -45 9 -45 31
0 150 -167 260 -315 206z m140 -159 c22 -21 25 -33 25 -100 0 -67 3 -79 25
-100 21 -22 33 -25 90 -25 69 0 118 -17 129 -45 13 -35 6 -76 -19 -100 -21
-22 -33 -25 -98 -25 -107 0 -119 -12 -126 -125 -5 -75 -9 -89 -30 -106 -32
-26 -74 -24 -108 5 -25 22 -28 31 -31 105 -5 105 -21 121 -124 121 -64 0 -72
2 -100 30 -25 26 -29 36 -24 63 3 18 17 42 32 55 21 18 37 22 98 22 102 0 109
7 117 116 5 79 8 89 33 110 36 31 80 31 111 -1z"/>
<path d="M3435 3423 c-45 -23 -96 -74 -112 -112 -17 -40 -19 -124 -3 -166 32
-83 110 -136 202 -136 66 0 95 11 142 52 123 107 92 301 -56 363 -48 20 -134
20 -173 -1z m137 -150 c22 -20 23 -70 1 -95 -20 -22 -70 -23 -95 -1 -22 20
-23 70 -1 95 20 22 70 23 95 1z"/>
<path d="M4174 3426 c-52 -23 -102 -81 -119 -138 -65 -220 209 -378 367 -211
102 107 63 290 -74 347 -46 19 -132 20 -174 2z m140 -158 c35 -49 8 -108 -48
-108 -37 0 -49 7 -65 37 -15 30 -14 36 10 67 27 34 81 36 103 4z"/>
<path d="M2060 3060 c-25 -25 -26 -71 -1 -101 19 -23 24 -24 164 -24 128 0
147 2 166 19 27 25 28 79 1 106 -18 18 -33 20 -165 20 -132 0 -147 -2 -165
-20z"/>
<path d="M2730 3060 c-27 -27 -26 -81 1 -106 19 -17 38 -19 166 -19 140 0 145
1 164 24 25 30 24 76 -1 101 -18 18 -33 20 -165 20 -132 0 -147 -2 -165 -20z"/>
<path d="M3812 3060 c-157 -63 -182 -287 -44 -385 57 -40 158 -48 218 -17 208
107 138 414 -93 411 -32 0 -68 -4 -81 -9z m130 -157 c22 -20 23 -70 1 -95 -37
-41 -115 -10 -115 47 0 56 72 87 114 48z"/>
<path d="M1642 2704 c-61 -23 -145 -103 -173 -166 -32 -75 -32 -184 1 -253 31
-64 91 -124 155 -155 39 -18 67 -24 125 -24 99 -1 163 27 229 100 64 70 85
131 79 228 -8 113 -61 197 -160 251 -43 24 -67 29 -133 32 -54 2 -94 -2 -123
-13z m187 -155 c51 -29 74 -65 79 -124 5 -62 -13 -102 -61 -139 -97 -74 -238
-12 -254 112 -6 48 30 119 76 149 44 30 110 30 160 2z"/>
<path d="M3274 2709 c-85 -24 -180 -121 -204 -207 -15 -55 -12 -142 6 -196 22
-64 100 -147 166 -177 39 -17 72 -23 123 -24 148 0 258 83 300 229 20 69 15
135 -17 208 -26 62 -111 140 -174 162 -51 17 -150 20 -200 5z m177 -162 c105
-70 96 -223 -17 -277 -105 -51 -224 23 -224 140 0 70 35 122 100 152 34 15
107 8 141 -15z"/>
<path d="M216 2468 c-24 -22 -31 -52 -121 -595 -52 -315 -95 -596 -95 -625 1
-275 203 -523 476 -584 99 -22 233 -15 324 16 132 45 258 145 328 262 19 33
90 224 178 485 l146 431 62 -23 c202 -76 441 -40 603 91 l41 34 401 0 401 0
47 -36 c173 -132 397 -165 600 -89 l62 24 52 -157 c54 -162 78 -202 121 -202
33 0 64 25 72 56 11 41 -128 447 -161 474 -14 11 -31 20 -37 20 -6 0 -51 -20
-101 -45 -198 -99 -387 -76 -552 67 l-44 38 -459 0 -459 0 -44 -38 c-165 -143
-354 -166 -552 -67 -49 25 -95 45 -101 45 -6 0 -23 -9 -37 -20 -21 -17 -52
-99 -178 -478 -83 -251 -163 -479 -177 -506 -32 -64 -119 -156 -180 -189 -132
-71 -285 -76 -417 -14 -158 75 -265 239 -265 406 0 25 43 298 95 607 100 589
101 600 56 623 -31 17 -58 13 -85 -11z"/>
</g>
</svg>
