<svg width="624" height="624" xmlns="http://www.w3.org/2000/svg" xmlns:xlink="http://www.w3.org/1999/xlink" xml:space="preserve" overflow="hidden"><g><path d="M128.578 542.466C116.878 537.103 112.247 528.45 112.125 512.241L112.125 500.906 105.788 497.738C76.5375 483.113 54.9656 457.397 45.825 426.562 43.6313 419.372 29.25 335.034 29.25 329.794 29.25 322.725 39.7313 318.825 44.4844 324.188 46.0688 326.016 48.5063 337.837 54.3563 371.962 62.4 419.372 64.1063 426.806 69.1031 436.922 82.2656 463.003 105.544 481.406 133.819 488.353 145.031 491.034 166.238 491.034 177.328 488.231 188.784 485.306 206.334 476.653 214.5 469.95L221.203 464.344 221.934 453.131C222.909 436.312 228.516 427.05 241.069 420.834 248.016 417.422 248.138 417.422 272.513 417.422 294.938 417.422 297.375 417.666 299.691 419.738 303.225 422.906 303.225 430.219 299.691 433.388 297.375 435.459 294.45 435.825 273.122 436.312 246.919 436.922 245.213 437.409 241.922 444.356 240.947 446.55 240.094 450.45 240.094 453.253L240.094 458.25 312 458.25 383.906 458.25 383.906 453.253C383.906 447.281 380.859 440.456 377.325 438.384 375.619 437.409 366.356 436.678 350.878 436.312 329.55 435.825 326.625 435.459 324.309 433.388 320.775 430.219 320.775 422.906 324.309 419.738 326.625 417.666 329.062 417.422 351.488 417.422 375.863 417.422 375.984 417.422 382.931 420.834 395.484 427.05 401.091 436.312 402.066 453.131L402.797 464.344 409.5 469.95C417.909 476.897 435.459 485.55 446.672 488.231 457.031 490.791 477.872 491.034 488.109 488.841 521.259 481.65 548.681 457.397 559.406 425.466 562.209 416.934 605.719 160.509 605.719 152.1 605.719 138.938 599.138 123.703 589.144 113.709 571.716 96.2812 544.659 92.5031 522.6 104.447 515.166 108.469 504.562 119.681 500.663 127.481 498.956 130.772 495.544 139.791 492.984 147.469 490.547 155.147 487.378 162.581 486.159 163.8 481.894 168.309 473.972 166.238 471.534 160.144 470.194 156.609 480.919 124.191 486.525 114.806 506.269 81.7781 548.925 69.8344 584.147 87.5062 607.303 99.0844 623.878 126.019 624 152.222 624 159.9 581.222 416.447 578.175 426.562 569.278 456.788 547.828 482.747 520.163 496.763L511.875 500.906 511.875 511.753C511.875 527.963 507.731 536.25 496.884 541.734 490.913 544.659 489.816 544.781 468.244 544.781 443.625 544.781 438.75 543.928 432.169 538.566 425.1 532.716 422.906 526.378 422.906 512.241L422.906 500.053 413.278 494.447C408.038 491.4 400.359 486.038 396.338 482.747L388.903 476.531 312 476.531 235.097 476.531 227.663 482.747C223.641 486.038 215.963 491.4 210.722 494.447L201.094 500.053 201.094 512.241C201.094 526.378 198.9 532.716 191.831 538.566 185.25 543.928 180.375 544.781 155.878 544.781 136.744 544.781 132.722 544.416 128.578 542.466ZM180.375 524.062C182.325 522.112 182.812 520.041 182.812 513.581 182.812 505.659 182.812 505.538 179.887 506.269 167.213 509.438 150.881 509.803 135.038 507.366L130.406 506.634 130.406 513.338C130.406 518.334 131.016 520.894 132.966 523.331L135.403 526.5 156.731 526.5C176.353 526.5 178.181 526.256 180.375 524.062ZM491.034 523.331C492.984 520.894 493.594 518.334 493.594 513.338L493.594 506.634 489.084 507.366C473.119 509.803 456.788 509.438 444.113 506.269 441.188 505.538 441.188 505.659 441.188 513.581 441.188 526.378 441.431 526.5 467.269 526.5L488.597 526.5 491.034 523.331Z" fill="#FFFFFF" transform="matrix(1 0 0 -1 0 624)"/><path d="M463.734 462.028C440.213 451.425 443.869 417.788 469.219 412.059 485.306 408.403 500.906 421.322 500.906 438.141 500.906 457.153 481.041 469.95 463.734 462.028ZM480.188 443.625C484.575 439.238 482.503 431.194 476.531 430.097 472.388 429.244 468 431.438 467.147 434.85 466.05 438.994 466.538 441.188 468.853 443.991 471.413 446.794 477.141 446.672 480.188 443.625Z" fill="#FFFFFF" transform="matrix(1 0 0 -1 0 624)"/><path d="M145.641 450.206C136.622 446.916 129.188 437.409 127.481 427.05 126.628 422.175 126.628 422.175 119.194 420.591 112.856 419.25 110.906 418.153 105.422 412.791 100.425 407.672 98.7188 404.991 97.5 399.872 93.6 383.663 104.569 367.087 120.656 364.894L126.506 364.163 127.847 357.581C132.966 331.744 164.409 325.406 179.644 346.978 181.959 350.391 183.3 354.047 183.788 358.191 184.275 364.163 184.519 364.406 188.175 364.406 190.247 364.406 194.756 365.747 198.047 367.331 209.138 372.572 214.5 380.981 214.5 393.047 214.5 407.916 204.506 419.25 189.516 421.322 184.641 421.931 184.031 422.419 184.031 425.1 184.031 443.381 163.678 456.788 145.641 450.206ZM162.703 430.828C165.384 428.269 165.75 426.806 165.75 418.641 165.75 410.475 166.116 409.013 168.797 406.453 171.356 403.772 172.819 403.406 179.766 403.406 188.175 403.406 194.147 401.334 195.488 397.922 197.072 393.656 196.219 388.659 193.172 385.734 190.613 383.053 189.15 382.688 181.228 382.688 168.188 382.688 166.725 381.225 165.872 367.453 165.262 358.312 164.775 356.606 162.216 354.534 158.316 351.366 153.197 351.609 149.053 355.144 146.006 357.825 145.641 358.922 145.275 367.941 144.666 380.738 142.716 382.688 130.163 382.688 122.363 382.688 121.388 382.931 117.975 386.344 114.928 389.513 114.441 390.731 115.05 394.022 115.416 396.216 117.122 399.141 118.95 400.725 121.509 402.919 123.459 403.406 130.894 403.406 143.325 403.406 144.178 404.259 145.153 417.544 145.762 427.172 146.128 428.391 149.175 430.95 153.562 434.728 158.925 434.728 162.703 430.828Z" fill="#FFFFFF" transform="matrix(1 0 0 -1 0 624)"/><path d="M418.641 417.178C413.156 414.375 406.941 408.159 404.991 403.528 402.919 398.653 402.675 388.416 404.625 383.297 408.525 373.181 418.031 366.722 429.244 366.722 437.288 366.722 440.822 368.062 446.55 373.059 461.541 386.1 457.763 409.744 439.725 417.3 433.875 419.738 423.394 419.738 418.641 417.178ZM435.338 398.897C438.019 396.459 438.141 390.366 435.459 387.319 433.022 384.638 426.928 384.516 423.881 387.197 421.2 389.634 421.078 395.728 423.759 398.775 426.197 401.456 432.291 401.578 435.338 398.897Z" fill="#FFFFFF" transform="matrix(1 0 0 -1 0 624)"/><path d="M508.706 417.544C502.369 414.741 496.275 407.672 494.203 400.725 486.281 373.913 519.675 354.656 538.931 375.009 551.362 388.05 546.609 410.353 529.913 417.3 524.306 419.616 513.825 419.738 508.706 417.544ZM525.769 398.288C530.034 392.316 526.744 385.125 519.919 385.125 515.409 385.125 513.947 385.978 511.997 389.634 510.169 393.291 510.291 394.022 513.216 397.8 516.506 401.944 523.088 402.188 525.769 398.288Z" fill="#FFFFFF" transform="matrix(1 0 0 -1 0 624)"/><path d="M251.062 372.938C248.016 369.891 247.894 364.284 250.941 360.628 253.256 357.825 253.866 357.703 270.928 357.703 286.528 357.703 288.844 357.947 291.159 360.019 294.45 363.066 294.572 369.647 291.281 372.938 289.087 375.131 287.259 375.375 271.172 375.375 255.084 375.375 253.256 375.131 251.062 372.938Z" fill="#FFFFFF" transform="matrix(1 0 0 -1 0 624)"/><path d="M332.719 372.938C329.428 369.647 329.55 363.066 332.841 360.019 335.156 357.947 337.472 357.703 353.072 357.703 370.134 357.703 370.744 357.825 373.059 360.628 376.106 364.284 375.984 369.891 372.938 372.938 370.744 375.131 368.916 375.375 352.828 375.375 336.741 375.375 334.913 375.131 332.719 372.938Z" fill="#FFFFFF" transform="matrix(1 0 0 -1 0 624)"/><path d="M464.588 372.938C445.453 365.259 442.406 337.959 459.225 326.016 466.172 321.141 478.481 320.166 485.794 323.944 511.144 336.984 502.613 374.4 474.459 374.034 470.559 374.034 466.172 373.547 464.588 372.938ZM480.431 353.803C483.113 351.366 483.234 345.272 480.553 342.225 476.044 337.228 466.538 341.006 466.538 347.953 466.538 354.778 475.312 358.556 480.431 353.803Z" fill="#FFFFFF" transform="matrix(1 0 0 -1 0 624)"/><path d="M200.119 329.55C192.684 326.747 182.447 316.997 179.034 309.319 175.134 300.178 175.134 286.894 179.156 278.484 182.934 270.684 190.247 263.372 198.047 259.594 202.8 257.4 206.213 256.669 213.281 256.669 225.347 256.547 233.147 259.959 241.191 268.856 248.991 277.388 251.55 284.822 250.819 296.644 249.844 310.416 243.384 320.653 231.319 327.234 226.078 330.159 223.153 330.769 215.109 331.134 208.528 331.378 203.653 330.891 200.119 329.55ZM222.909 310.659C229.125 307.125 231.928 302.738 232.538 295.547 233.147 287.991 230.953 283.116 225.103 278.606 213.281 269.587 196.097 277.144 194.147 292.256 193.416 298.106 197.803 306.759 203.409 310.416 208.772 314.072 216.816 314.072 222.909 310.659Z" fill="#FFFFFF" transform="matrix(1 0 0 -1 0 624)"/><path d="M399.019 330.159C388.659 327.234 377.081 315.413 374.156 304.931 372.328 298.228 372.694 287.625 374.888 281.044 377.569 273.244 387.075 263.128 395.119 259.472 399.872 257.4 403.894 256.669 410.109 256.547 428.147 256.547 441.553 266.663 446.672 284.456 449.109 292.866 448.5 300.909 444.6 309.806 441.431 317.363 431.072 326.869 423.394 329.55 417.178 331.622 405.113 331.988 399.019 330.159ZM420.591 310.416C433.388 301.884 432.291 283.238 418.519 276.656 405.722 270.441 391.219 279.459 391.219 293.719 391.219 302.25 395.484 308.587 403.406 312.244 407.55 314.072 416.447 313.219 420.591 310.416Z" fill="#FFFFFF" transform="matrix(1 0 0 -1 0 624)"/><path d="M26.325 300.788C23.4 298.106 22.5469 294.45 11.5781 228.272 5.24062 189.881 0 155.634 0 152.1 0.121875 118.584 24.7406 88.3594 58.0125 80.925 70.0781 78.2438 86.4094 79.0969 97.5 82.875 113.588 88.3594 128.944 100.547 137.475 114.806 139.791 118.828 148.444 142.106 159.169 173.916L176.963 226.444 184.519 223.641C209.138 214.378 238.266 218.766 258.009 234.731L263.006 238.875 311.878 238.875 360.75 238.875 366.478 234.488C387.562 218.4 414.863 214.378 439.603 223.641L447.159 226.566 453.497 207.431C460.078 187.688 463.003 182.812 468.244 182.812 472.266 182.812 476.044 185.859 477.019 189.638 478.359 194.634 461.419 244.116 457.397 247.406 455.691 248.747 453.619 249.844 452.888 249.844 452.156 249.844 446.672 247.406 440.578 244.359 416.447 232.294 393.413 235.097 373.303 252.525L367.941 257.156 312 257.156 256.059 257.156 250.697 252.525C230.588 235.097 207.553 232.294 183.422 244.359 177.45 247.406 171.844 249.844 171.113 249.844 170.381 249.844 168.309 248.747 166.603 247.406 164.044 245.334 160.266 235.341 144.909 189.15 134.794 158.559 125.044 130.772 123.338 127.481 119.438 119.681 108.834 108.469 101.4 104.447 85.3125 95.7938 66.6656 95.1844 50.5781 102.741 31.3219 111.881 18.2812 131.869 18.2812 152.222 18.2812 155.269 23.5219 188.541 29.8594 226.2 42.0469 297.984 42.1688 299.325 36.6844 302.128 32.9062 304.2 29.6156 303.712 26.325 300.788Z" fill="#FFFFFF" transform="matrix(1 0 0 -1 0 624)"/></g></svg>