<svg width="512" height="512" xmlns="http://www.w3.org/2000/svg" xmlns:xlink="http://www.w3.org/1999/xlink" xml:space="preserve" overflow="hidden"><defs><clipPath id="clip0"><rect x="0" y="0" width="512" height="512"/></clipPath></defs><g clip-path="url(#clip0)"><path d="M76.1875 233.188C79.8221 235.53 82.3996 237.868 83.5979 242.124 84.1355 245.97 84.1342 249.776 84.1202 253.65 84.1211 254.52 84.122 255.39 84.1228 256.286 84.1245 259.201 84.119 262.115 84.1135 265.029 84.1132 267.118 84.1134 269.208 84.114 271.297 84.1143 276.97 84.1084 282.643 84.1014 288.316 84.0952 294.245 84.0946 300.173 84.0934 306.102 84.0903 317.328 84.082 328.555 84.072 339.782 84.0588 354.952 84.0534 370.122 84.0475 385.293 84.0381 409.195 84.0182 433.098 84 457 118.65 457 153.3 457 188.999 457 188.953 448.223 188.908 439.446 188.859 430.403 188.837 424.109 188.815 417.816 188.798 411.522 188.776 403.385 188.749 395.248 188.699 387.111 188.659 380.664 188.633 374.218 188.624 367.772 188.618 364.365 188.607 360.958 188.577 357.551 188.367 330.214 188.367 330.214 192.999 318 193.413 316.879 193.413 316.879 193.833 315.735 197.297 307.165 202.436 300.398 208.999 294 209.663 293.304 210.327 292.608 211.012 291.891 223.43 279.686 240.773 274.433 257.895 274.58 275.568 275.246 291.654 282.332 304 295 304.697 295.664 305.393 296.328 306.109 297.012 310.448 301.426 313.479 306.234 316.312 311.688 316.638 312.298 316.964 312.909 317.299 313.538 324.5 328.199 323.408 344.373 323.305 360.257 323.286 363.667 323.284 367.077 323.281 370.487 323.271 376.922 323.247 383.356 323.216 389.791 323.18 397.848 323.163 405.905 323.146 413.961 323.117 428.308 323.057 442.654 323 457 357.65 457 392.299 457 428 457 427.977 441.778 427.953 426.555 427.93 410.872 427.919 401.242 427.909 391.612 427.902 381.983 427.891 366.69 427.876 351.397 427.849 336.105 427.829 324.968 427.816 313.831 427.811 302.694 427.81 296.797 427.803 290.9 427.789 285.002 427.775 279.451 427.771 273.9 427.773 268.349 427.773 266.312 427.77 264.276 427.762 262.238 427.751 259.456 427.754 256.673 427.759 253.891 427.75 252.684 427.75 252.684 427.741 251.453 427.77 246.174 427.957 240.539 431.402 236.258 436.415 232.559 439.759 231.48 446 232.001 449.935 233.412 452.319 234.922 454.574 238.496 456.402 242.99 456.421 246.726 456.388 251.527 456.396 252.956 456.396 252.956 456.404 254.413 456.418 257.601 456.411 260.788 456.405 263.975 456.409 266.262 456.417 268.548 456.424 270.835 456.443 277.044 456.441 283.252 456.435 289.461 456.432 294.642 456.439 299.824 456.444 305.006 456.46 317.927 456.457 330.848 456.444 343.768 456.435 354.987 456.448 366.205 456.471 377.423 456.496 388.947 456.504 400.471 456.499 411.995 456.495 418.463 456.497 424.931 456.514 431.399 456.53 437.479 456.526 443.56 456.508 449.64 456.504 451.873 456.507 454.105 456.517 456.338 456.53 459.383 456.518 462.428 456.501 465.474 456.51 466.359 456.521 467.244 456.53 468.156 456.466 473.594 455.599 476.673 452 481 447.776 484.828 443.924 485.124 438.366 485.141 437.216 485.147 436.069 485.152 434.885 485.158 433.003 485.16 433.003 485.16 431.081 485.162 429.741 485.166 428.402 485.171 427.064 485.177 423.43 485.19 419.796 485.196 416.16 485.201 413.888 485.204 411.616 485.208 409.345 485.212 402.23 485.226 395.116 485.236 388.004 485.239 379.799 485.244 371.596 485.261 363.393 485.29 357.047 485.312 350.701 485.322 344.353 485.323 340.565 485.324 336.777 485.33 332.99 485.348 329.424 485.365 325.861 485.367 322.296 485.358 320.37 485.357 318.445 485.371 316.521 485.385 310.271 485.355 305.443 485.211 300 482 295.798 476.804 294.876 472.882 294.868 466.354 294.862 464.628 294.862 464.628 294.857 462.867 294.857 460.979 294.857 460.979 294.859 459.053 294.855 457.711 294.852 456.368 294.848 455.026 294.839 452.136 294.835 449.247 294.831 446.357 294.826 441.779 294.809 437.201 294.789 432.623 294.784 431.054 294.777 429.484 294.771 427.915 294.768 427.129 294.764 426.343 294.762 425.533 294.719 414.879 294.686 404.225 294.674 393.571 294.665 386.38 294.643 379.19 294.604 371.999 294.586 368.199 294.573 364.399 294.578 360.598 294.583 357.017 294.568 353.436 294.54 349.855 294.531 347.931 294.539 346.007 294.551 344.082 294.424 332.275 291.427 322.524 283 314 273.376 305.811 264.436 303.199 251.941 303.657 241.337 304.582 232.872 309.275 225.992 317.36 218.768 327.094 217.557 335.697 217.632 347.655 217.628 349.013 217.624 350.371 217.62 351.728 217.611 354.636 217.613 357.543 217.62 360.45 217.632 365.052 217.62 369.655 217.604 374.258 217.568 385.685 217.561 397.113 217.564 408.541 217.566 417.433 217.557 426.326 217.523 435.218 217.507 439.788 217.508 444.358 217.525 448.928 217.531 451.775 217.52 454.623 217.503 457.47 217.499 459.408 217.512 461.346 217.527 463.284 217.471 470.333 216.824 475.019 212.999 481 208.952 484.923 204.818 485.125 199.366 485.141 198.216 485.147 197.068 485.152 195.885 485.158 194.003 485.16 194.003 485.16 192.081 485.162 190.742 485.166 189.402 485.171 188.064 485.177 184.43 485.19 180.796 485.196 177.16 485.201 174.888 485.204 172.616 485.208 170.344 485.212 163.23 485.226 156.117 485.236 149.003 485.239 140.8 485.244 132.597 485.261 124.393 485.29 118.047 485.312 111.7 485.322 105.354 485.323 101.565 485.324 97.7776 485.33 93.9897 485.348 90.4249 485.365 86.8604 485.367 83.2956 485.358 81.3706 485.357 79.4456 485.371 77.5207 485.385 71.2599 485.355 66.4684 485.18 61 482 56.0677 476.679 55.8514 473.002 55.8528 465.962 55.8492 465.013 55.8455 464.065 55.8417 463.088 55.8306 459.891 55.8268 456.693 55.823 453.496 55.8167 451.211 55.8101 448.927 55.8031 446.642 55.7857 440.421 55.7751 434.2 55.7669 427.979 55.7617 424.094 55.7557 420.21 55.7494 416.325 55.7325 405.57 55.7179 394.815 55.7106 384.061 55.7087 381.269 55.7068 378.477 55.7048 375.686 55.7043 374.992 55.7039 374.298 55.7034 373.583 55.6951 362.346 55.6697 351.109 55.6373 339.872 55.6042 328.335 55.5865 316.799 55.583 305.263 55.5806 298.785 55.5716 292.308 55.5465 285.83 55.5233 279.736 55.519 273.642 55.5293 267.547 55.5298 265.31 55.5234 263.073 55.5097 260.837 55.4921 257.782 55.4991 254.729 55.5123 251.674 55.5013 250.79 55.4903 249.905 55.479 248.993 55.5395 243.178 56.6109 239.766 60 235.001 65.3164 231.338 70.1631 230.944 76.1875 233.188Z" stroke="#FFFFFF" fill="#FFFFFF"/><path d="M262 28C266.213 30.5254 270.065 33.4304 273.95 36.4287 276.884 38.6779 279.866 40.8606 282.846 43.0481 285.281 44.8356 287.711 46.6304 290.141 48.4258 294.738 51.8152 299.364 55.1635 304 58.5 314.194 65.8399 324.294 73.3045 334.396 80.7705 342.901 87.055 351.418 93.3202 360 99.5 370.193 106.84 380.294 114.304 390.396 121.771 398.901 128.055 407.418 134.32 416 140.5 426.193 147.84 436.294 155.305 446.396 162.771 454.901 169.055 463.418 175.32 472 181.5 478.377 186.094 484.731 190.718 491.062 195.375 491.824 195.934 492.585 196.493 493.369 197.068 495.587 198.703 497.795 200.348 500 202 500.809 202.604 501.619 203.207 502.453 203.829 503.65 204.737 503.65 204.737 504.871 205.664 505.591 206.208 506.311 206.751 507.052 207.311 509.912 209.791 511.8 211.807 512.434 215.586 512.44 220.063 512.282 223.342 510.5 227.5 507.226 230.774 504.54 232.191 500 233 492.683 232.577 487.723 229.162 482.125 224.75 480.452 223.475 478.779 222.2 477.105 220.926 476.259 220.273 475.413 219.62 474.541 218.948 470.548 215.887 466.493 212.914 462.438 209.938 461.652 209.358 460.866 208.779 460.057 208.183 454.728 204.256 449.372 200.368 444 196.5 433.807 189.16 423.706 181.695 413.604 174.229 405.099 167.945 396.582 161.68 388 155.5 377.807 148.16 367.706 140.695 357.604 133.229 349.099 126.945 340.582 120.68 332 114.5 321.807 107.16 311.706 99.6955 301.604 92.2295 299.216 90.4647 296.827 88.7008 294.438 86.9375 293.659 86.3626 292.879 85.7877 292.077 85.1953 285.784 80.5595 279.454 75.9774 273.095 71.4329 268.5 68.1364 264.063 64.7269 259.824 60.9766 257.221 59.5829 255.804 60.2255 253 61 250.944 62.1497 250.944 62.1497 249.023 63.668 248.28 64.2242 247.537 64.7804 246.771 65.3535 245.981 65.9587 245.19 66.5639 244.375 67.1875 242.664 68.4729 240.953 69.758 239.242 71.043 238.37 71.7022 237.499 72.3614 236.601 73.0405 232.592 76.0609 228.546 79.0293 224.5 82 222.918 83.1651 221.336 84.3304 219.754 85.4961 218.97 86.0734 218.187 86.6508 217.379 87.2456 214.99 89.0073 212.602 90.771 210.215 92.5352 201.767 98.7747 193.29 104.971 184.767 111.108 176.128 117.337 167.565 123.67 159 130 148.959 137.421 138.899 144.812 128.767 152.108 120.128 158.337 111.565 164.67 103 171 92.959 178.421 82.899 185.812 72.767 193.108 67.342 197.019 61.945 200.967 56.562 204.938 55.782 205.513 55.002 206.089 54.198 206.682 50.093 209.711 45.993 212.747 41.895 215.785 41.054 216.407 40.213 217.029 39.347 217.67 37.757 218.847 36.168 220.026 34.58 221.207 18.477 233.118 18.477 233.118 12 233 7.55701 232.111 4.71899 230.719 1.5 227.5-0.55899 222.695-1.29199 218.117 0 213 3.51801 207.574 8.38699 203.983 13.688 200.438 15.206 199.394 16.723 198.348 18.238 197.301 19.022 196.761 19.805 196.222 20.612 195.667 24.587 192.893 28.481 190.011 32.375 187.125 33.165 186.541 33.954 185.957 34.768 185.355 36.375 184.166 37.982 182.977 39.588 181.787 50.425 173.759 61.289 165.773 72.233 157.892 80.872 151.663 89.435 145.33 98 139 108.041 131.579 118.101 124.188 128.233 116.892 136.872 110.663 145.435 104.33 154 98 164.041 90.5788 174.101 83.1883 184.233 75.8921 192.872 69.6634 201.435 63.3305 210 57 216.327 52.3241 222.659 47.656 229 43 229.82 42.3964 230.641 41.7928 231.486 41.1709 233.925 39.3797 236.368 37.5952 238.812 35.8125 239.547 35.2717 240.282 34.7308 241.039 34.1736 253.622 25.0344 253.622 25.0344 262 28Z" stroke="#FFFFFF" fill="#FFFFFF"/></g></svg>