<svg width="24" height="24" xmlns="http://www.w3.org/2000/svg" xmlns:xlink="http://www.w3.org/1999/xlink" xml:space="preserve" overflow="hidden"><g><path d="M6.12188 23.9484C4.82344 23.7563 3.60469 23.0297 2.8125 21.975 2.09531 21.0234 1.73906 19.8 1.78594 18.45 1.80469 18.0375 1.81406 17.9813 1.91719 17.9016 2.05781 17.7891 2.27344 17.7891 2.38125 17.8969 2.45625 17.9719 2.475 18.0938 2.49844 18.7781 2.51719 19.4062 2.55 19.6641 2.64375 20.025 3.00938 21.4547 4.07344 22.5938 5.46094 23.0578 6.19219 23.3016 6.28594 23.3016 10.9688 23.2875 15.1781 23.2688 15.3141 23.2641 15.6328 23.175 16.4906 22.9219 17.0906 22.5703 17.6719 21.9844 18.5203 21.1219 18.9375 20.0484 18.9375 18.7125 18.9375 18.075 18.7781 17.8359 18.3516 17.8359 17.9016 17.8359 17.7656 18.0656 17.7656 18.8297 17.7656 19.4719 17.6766 19.875 17.4328 20.3813 17.1562 20.9484 16.5938 21.5156 16.0312 21.7922 15.2531 22.1672 15.5578 22.1484 10.7109 22.1484 5.87344 22.1484 6.16406 22.1672 5.40938 21.7969 4.69219 21.4453 4.07344 20.7328 3.81094 19.95L3.67969 19.5703 3.67969 12 3.67969 4.42969 3.81094 4.05C4.07344 3.26719 4.69219 2.55469 5.40938 2.20312 6.16406 1.83281 5.87344 1.85156 10.7109 1.85156 15.5578 1.85156 15.2531 1.83281 16.0312 2.20781 16.3547 2.36719 16.5047 2.47969 16.8328 2.8125 17.4938 3.47344 17.7609 4.14844 17.7656 5.14688 17.7656 5.67188 17.8125 5.82656 18.0281 5.99531 18.1969 6.12656 18.5063 6.12656 18.675 5.99531 18.8766 5.83594 18.9375 5.66719 18.9375 5.26406 18.9375 3.93281 18.5156 2.85938 17.6484 1.99219 16.9875 1.33125 16.2609 0.951563 15.3281 0.778125 14.7703 0.670313 6.73594 0.665625 6.13594 0.773438 4.425 1.06875 3.09844 2.28281 2.63438 3.975L2.50781 4.42969 2.49375 10.6734 2.47969 16.9172 2.35781 17.0156C2.29219 17.0672 2.20781 17.1094 2.175 17.1094 2.05313 17.1094 1.88438 17.0016 1.83281 16.8891 1.7625 16.7344 1.75781 5.15625 1.83281 4.51406 2.06719 2.41406 3.52969 0.726562 5.61094 0.15L6.07031 0.0234375 10.7109 0.0234375 15.3516 0.0234375 15.8203 0.15C16.9359 0.459375 17.9438 1.12969 18.6141 2.01094 18.9094 2.39531 19.3219 3.23906 19.4484 3.70313 19.6688 4.50938 19.7016 5.63906 19.5141 6.05625 19.1531 6.85781 18.0703 7.05 17.4469 6.43125 17.1656 6.14531 17.0953 5.92031 17.0578 5.15625 17.025 4.4625 16.9875 4.29844 16.7672 3.8625 16.5 3.3375 15.9094 2.85 15.3047 2.65781L14.9766 2.55469 10.6875 2.55469 6.39844 2.55469 6.06563 2.67656C5.22656 2.98125 4.62656 3.6375 4.42969 4.45781 4.32656 4.9125 4.32656 19.0875 4.42969 19.5422 4.62656 20.3625 5.22656 21.0188 6.06563 21.3234L6.39844 21.4453 10.6875 21.4453 14.9766 21.4453 15.3094 21.3422C16.125 21.0844 16.7766 20.3953 16.9922 19.5609 17.0344 19.4016 17.0625 19.0828 17.0625 18.7734 17.0625 18.1125 17.1422 17.8313 17.4047 17.5453 17.7 17.2219 17.9062 17.1328 18.3516 17.1328 18.6469 17.1328 18.7688 17.1562 18.9141 17.2359 19.2047 17.3859 19.4813 17.7188 19.5656 18.0047 19.7016 18.4594 19.6453 19.5656 19.4484 20.2969 19.3219 20.7609 18.9094 21.6 18.6141 21.9891 17.9438 22.8703 16.9313 23.5453 15.8203 23.8453L15.3516 23.9766 10.875 23.9813C8.41406 23.9859 6.27188 23.9719 6.12188 23.9484Z" fill="#FFFFFF" transform="matrix(1 0 0 -1 0 24)"/><path d="M18.0703 15.8953C17.8031 15.8203 17.6766 15.7547 17.4891 15.5859 17.2266 15.3469 17.0953 15.0469 17.0906 14.6719 17.0906 14.2594 17.2172 13.9922 17.6063 13.5891L17.9203 13.2656 13.2609 13.2656 8.60156 13.2656 8.36719 13.1531C7.88438 12.9281 7.62188 12.5203 7.62188 12 7.62188 11.4797 7.88438 11.0719 8.36719 10.8469L8.60156 10.7344 10.7906 10.7344 12.9797 10.7344 13.0734 10.8563C13.1953 11.0109 13.2 11.1609 13.0828 11.3016L12.9938 11.4141 10.8047 11.4375 8.61563 11.4609 8.47969 11.6109C8.24063 11.8828 8.24063 12.1172 8.47969 12.3891L8.61563 12.5391 13.7813 12.5625 18.9469 12.5859 19.0359 12.6984C19.2141 12.9188 19.1672 12.9984 18.4734 13.7109 17.9484 14.2453 17.8125 14.4094 17.7891 14.5453 17.7188 14.925 18.0797 15.2813 18.4594 15.2109 18.6094 15.1875 18.825 14.9906 20.025 13.7906 21.5625 12.2484 21.5906 12.2109 21.4734 11.8031 21.4219 11.6297 21.2063 11.3906 20.025 10.2094 18.825 9.00938 18.6094 8.8125 18.4594 8.78906 18.0797 8.71875 17.7188 9.075 17.7891 9.45469 17.8125 9.59063 17.9484 9.75469 18.4734 10.2891 19.1813 11.0156 19.2281 11.1047 19.0078 11.3203L18.8953 11.4375 16.5 11.4375 14.1047 11.4375 13.9922 11.3203C13.8422 11.175 13.8375 10.9734 13.9828 10.8375 14.0906 10.7344 14.1047 10.7344 16.0078 10.7344L17.9203 10.7344 17.6063 10.4109C17.2172 10.0078 17.0906 9.74063 17.0906 9.32812 17.0906 8.96719 17.2406 8.62969 17.5078 8.4 17.7609 8.175 17.9813 8.09531 18.3516 8.09531 18.8859 8.09063 18.9609 8.14688 20.5828 9.78281 22.1063 11.3156 22.0828 11.2828 22.1953 11.8453 22.2281 12.0188 22.1484 12.4734 22.0453 12.6797 21.9234 12.9188 19.1766 15.6469 18.9281 15.7781 18.6891 15.9 18.2906 15.9563 18.0703 15.8953Z" fill="#FFFFFF" transform="matrix(1 0 0 -1 0 24)"/></g></svg>