<svg width="512" height="512" xmlns="http://www.w3.org/2000/svg" xmlns:xlink="http://www.w3.org/1999/xlink" xml:space="preserve" overflow="hidden"><g><path d="M102.679 340.743C103.794 340.736 104.908 340.73 106.056 340.723 107.269 340.726 108.483 340.729 109.733 340.733 111.031 340.728 112.328 340.724 113.665 340.719 117.26 340.707 120.854 340.707 124.449 340.709 128.329 340.71 132.208 340.699 136.087 340.689 143.686 340.673 151.284 340.667 158.882 340.666 165.059 340.665 171.236 340.661 177.413 340.655 194.929 340.637 212.445 340.628 229.962 340.629 231.378 340.629 231.378 340.629 232.823 340.629 234.24 340.63 234.24 340.63 235.687 340.63 251.006 340.63 266.325 340.611 281.645 340.583 297.378 340.554 313.111 340.541 328.845 340.542 337.676 340.543 346.508 340.537 355.34 340.516 362.859 340.498 370.378 340.493 377.898 340.507 381.733 340.513 385.567 340.514 389.403 340.496 393.564 340.478 397.724 340.49 401.886 340.506 403.093 340.495 404.3 340.485 405.543 340.474 416.02 340.56 424.356 343.697 432 351 440.458 361.223 441.85 370.068 441.195 382.939 440.789 387.224 439.361 390.459 437 394 436.587 394.681 436.175 395.361 435.75 396.062 431.143 402.973 424.321 408.386 416.248 410.588 411.297 411.495 406.238 411.276 401.222 411.261 399.932 411.265 398.642 411.268 397.313 411.272 393.743 411.283 390.174 411.28 386.604 411.276 382.75 411.274 378.895 411.283 375.041 411.29 367.495 411.303 359.948 411.305 352.401 411.302 346.267 411.301 340.132 411.302 333.997 411.307 333.123 411.307 332.25 411.308 331.35 411.308 329.575 411.31 327.801 411.311 326.026 411.312 309.388 411.323 292.75 411.321 276.112 411.315 260.896 411.309 245.681 411.321 230.465 411.34 214.835 411.359 199.206 411.367 183.577 411.364 174.804 411.362 166.032 411.364 157.26 411.378 149.791 411.39 142.323 411.392 134.855 411.38 131.047 411.374 127.238 411.373 123.429 411.385 119.297 411.397 115.164 411.387 111.032 411.374 109.234 411.385 109.234 411.385 107.4 411.397 96.2317 411.324 88.094 408.902 80 401 71.5277 390.801 70.1502 381.92 70.8047 369.061 71.2108 364.776 72.6391 361.541 75 358 75.4125 357.319 75.825 356.639 76.25 355.938 82.253 346.933 91.7302 340.759 102.679 340.743ZM86.6875 360.438C81.7388 367.952 80.9429 374.104 82 383 84.5078 390.502 89.2775 394.782 95.9375 398.75 103.035 401.647 110.625 401.144 118.17 401.134 120.007 401.137 120.007 401.137 121.882 401.141 125.269 401.146 128.656 401.147 132.043 401.145 135.701 401.145 139.359 401.151 143.017 401.155 150.179 401.164 157.34 401.167 164.502 401.167 170.324 401.168 176.146 401.17 181.968 401.173 198.483 401.182 214.997 401.186 231.511 401.185 232.846 401.185 232.846 401.185 234.208 401.185 235.098 401.185 235.989 401.185 236.907 401.185 251.347 401.185 265.786 401.194 280.226 401.208 295.06 401.223 309.894 401.23 324.728 401.229 333.053 401.229 341.378 401.231 349.704 401.242 356.791 401.251 363.879 401.253 370.966 401.247 374.58 401.243 378.194 401.243 381.809 401.252 385.731 401.261 389.653 401.255 393.576 401.247 394.712 401.252 395.848 401.258 397.019 401.263 406.865 401.22 415.101 400.212 423 394 429.204 387.46 430.618 381.292 430.414 372.484 429.65 366.054 426.852 361.409 422.062 357.125 412.864 350.743 404.663 350.852 393.83 350.866 392.605 350.864 391.38 350.862 390.118 350.859 386.731 350.854 383.344 350.853 379.957 350.855 376.299 350.855 372.641 350.849 368.983 350.845 361.821 350.836 354.66 350.833 347.498 350.833 341.676 350.832 335.854 350.83 330.032 350.827 313.517 350.818 297.003 350.814 280.489 350.815 279.154 350.815 279.154 350.815 277.792 350.815 276.902 350.815 276.011 350.815 275.093 350.815 260.653 350.815 246.214 350.806 231.774 350.792 216.94 350.777 202.106 350.77 187.272 350.771 178.947 350.771 170.622 350.769 162.296 350.758 155.209 350.749 148.121 350.747 141.034 350.753 137.42 350.757 133.806 350.757 130.191 350.748 126.269 350.739 122.347 350.745 118.424 350.753 117.288 350.748 116.152 350.742 114.981 350.737 103.931 350.785 94.5738 352.125 86.6875 360.438Z" fill="#FFFFFF"/><path d="M102.679 220.743C103.794 220.736 104.908 220.73 106.056 220.723 107.269 220.726 108.483 220.729 109.733 220.733 111.031 220.728 112.328 220.724 113.665 220.719 117.26 220.707 120.854 220.707 124.449 220.709 128.329 220.71 132.208 220.699 136.087 220.689 143.686 220.673 151.284 220.667 158.882 220.666 165.059 220.665 171.236 220.661 177.413 220.654 194.929 220.637 212.445 220.628 229.962 220.629 231.378 220.629 231.378 220.629 232.823 220.629 234.24 220.63 234.24 220.63 235.687 220.63 251.006 220.63 266.325 220.611 281.645 220.583 297.378 220.554 313.111 220.541 328.845 220.542 337.676 220.543 346.508 220.537 355.34 220.516 362.859 220.498 370.378 220.493 377.898 220.507 381.733 220.514 385.567 220.514 389.403 220.496 393.564 220.478 397.724 220.49 401.886 220.506 403.093 220.495 404.3 220.485 405.543 220.474 416.02 220.56 424.356 223.697 432 231 440.458 241.223 441.85 250.068 441.195 262.939 440.789 267.224 439.361 270.459 437 274 436.587 274.681 436.175 275.361 435.75 276.062 431.143 282.973 424.321 288.386 416.248 290.588 411.297 291.495 406.238 291.276 401.222 291.261 399.932 291.265 398.642 291.268 397.313 291.272 393.743 291.283 390.174 291.28 386.604 291.276 382.75 291.274 378.895 291.283 375.041 291.29 367.495 291.303 359.948 291.305 352.401 291.302 346.267 291.301 340.132 291.302 333.997 291.307 333.123 291.307 332.25 291.308 331.35 291.308 329.575 291.31 327.801 291.311 326.026 291.312 309.388 291.323 292.75 291.321 276.112 291.315 260.896 291.309 245.681 291.321 230.465 291.34 214.835 291.359 199.206 291.367 183.577 291.364 174.804 291.362 166.032 291.364 157.26 291.378 149.791 291.39 142.323 291.392 134.855 291.38 131.047 291.374 127.238 291.373 123.429 291.385 119.297 291.397 115.164 291.387 111.032 291.374 109.234 291.385 109.234 291.385 107.4 291.397 96.2317 291.324 88.094 288.902 80 281 71.5277 270.801 70.1502 261.92 70.8047 249.061 71.2108 244.776 72.6391 241.541 75 238 75.4125 237.319 75.825 236.639 76.25 235.938 82.253 226.933 91.7302 220.759 102.679 220.743ZM86.6875 240.438C81.7388 247.952 80.9429 254.104 82 263 84.5078 270.502 89.2775 274.782 95.9375 278.75 103.035 281.647 110.625 281.144 118.17 281.134 120.007 281.137 120.007 281.137 121.882 281.141 125.269 281.146 128.656 281.147 132.043 281.145 135.701 281.145 139.359 281.151 143.017 281.155 150.179 281.164 157.34 281.167 164.502 281.167 170.324 281.168 176.146 281.17 181.968 281.173 198.483 281.182 214.997 281.186 231.511 281.185 232.846 281.185 232.846 281.185 234.208 281.185 235.098 281.185 235.989 281.185 236.907 281.185 251.347 281.185 265.786 281.194 280.226 281.208 295.06 281.223 309.894 281.23 324.728 281.229 333.053 281.229 341.378 281.231 349.704 281.242 356.791 281.251 363.879 281.253 370.966 281.247 374.58 281.243 378.194 281.243 381.809 281.252 385.731 281.261 389.653 281.255 393.576 281.247 394.712 281.252 395.848 281.258 397.019 281.263 406.865 281.22 415.101 280.212 423 274 429.204 267.46 430.618 261.292 430.414 252.484 429.65 246.054 426.852 241.409 422.062 237.125 412.864 230.743 404.663 230.852 393.83 230.866 392.605 230.864 391.38 230.862 390.118 230.859 386.731 230.854 383.344 230.853 379.957 230.855 376.299 230.855 372.641 230.849 368.983 230.845 361.821 230.836 354.66 230.834 347.498 230.833 341.676 230.832 335.854 230.83 330.032 230.827 313.517 230.818 297.003 230.814 280.489 230.815 279.154 230.815 279.154 230.815 277.792 230.815 276.902 230.815 276.011 230.815 275.093 230.815 260.653 230.815 246.214 230.806 231.774 230.792 216.94 230.777 202.106 230.77 187.272 230.771 178.947 230.771 170.622 230.769 162.296 230.758 155.209 230.749 148.121 230.747 141.034 230.753 137.42 230.757 133.806 230.757 130.191 230.748 126.269 230.739 122.347 230.745 118.424 230.753 117.288 230.748 116.152 230.742 114.981 230.737 103.931 230.785 94.5738 232.125 86.6875 240.438Z" fill="#FFFFFF"/><path d="M102.679 100.743C103.794 100.736 104.908 100.73 106.056 100.723 107.269 100.726 108.483 100.729 109.733 100.733 111.031 100.728 112.328 100.724 113.665 100.719 117.26 100.707 120.854 100.707 124.449 100.709 128.329 100.71 132.208 100.699 136.087 100.689 143.686 100.673 151.284 100.667 158.882 100.666 165.059 100.665 171.236 100.661 177.413 100.654 194.929 100.637 212.445 100.628 229.962 100.629 231.378 100.629 231.378 100.629 232.823 100.629 234.24 100.63 234.24 100.63 235.687 100.63 251.006 100.63 266.325 100.611 281.645 100.583 297.378 100.554 313.111 100.541 328.845 100.542 337.676 100.543 346.508 100.537 355.34 100.516 362.859 100.498 370.378 100.493 377.898 100.507 381.733 100.513 385.567 100.514 389.403 100.496 393.564 100.478 397.724 100.49 401.886 100.506 403.093 100.495 404.3 100.485 405.543 100.474 416.02 100.56 424.356 103.697 432 111 440.458 121.223 441.85 130.068 441.195 142.939 440.789 147.224 439.361 150.459 437 154 436.587 154.681 436.175 155.361 435.75 156.062 431.143 162.973 424.321 168.386 416.248 170.588 411.297 171.495 406.238 171.276 401.222 171.261 399.932 171.265 398.642 171.268 397.313 171.272 393.743 171.283 390.174 171.28 386.604 171.276 382.75 171.274 378.895 171.283 375.041 171.29 367.495 171.303 359.948 171.305 352.401 171.302 346.267 171.301 340.132 171.302 333.997 171.307 333.123 171.307 332.25 171.308 331.35 171.308 329.575 171.31 327.801 171.311 326.026 171.312 309.388 171.323 292.75 171.321 276.112 171.315 260.896 171.309 245.681 171.321 230.465 171.34 214.835 171.359 199.206 171.367 183.577 171.364 174.804 171.362 166.032 171.364 157.26 171.378 149.791 171.39 142.323 171.392 134.855 171.38 131.047 171.374 127.238 171.373 123.429 171.385 119.297 171.397 115.164 171.387 111.032 171.374 109.234 171.385 109.234 171.385 107.4 171.397 96.2317 171.324 88.094 168.902 80 161 71.5277 150.801 70.1502 141.92 70.8047 129.061 71.2108 124.776 72.6391 121.541 75 118 75.4125 117.319 75.825 116.639 76.25 115.938 82.253 106.933 91.7302 100.759 102.679 100.743ZM86.6875 120.438C81.7388 127.952 80.9429 134.104 82 143 84.5078 150.502 89.2775 154.782 95.9375 158.75 103.035 161.647 110.625 161.144 118.17 161.134 120.007 161.137 120.007 161.137 121.882 161.141 125.269 161.146 128.656 161.147 132.043 161.145 135.701 161.145 139.359 161.151 143.017 161.155 150.179 161.164 157.34 161.166 164.502 161.167 170.324 161.168 176.146 161.17 181.968 161.173 198.483 161.182 214.997 161.186 231.511 161.185 232.846 161.185 232.846 161.185 234.208 161.185 235.098 161.185 235.989 161.185 236.907 161.185 251.347 161.185 265.786 161.194 280.226 161.208 295.06 161.223 309.894 161.23 324.728 161.229 333.053 161.229 341.378 161.231 349.704 161.242 356.791 161.251 363.879 161.253 370.966 161.247 374.58 161.243 378.194 161.243 381.809 161.252 385.731 161.261 389.653 161.255 393.576 161.247 394.712 161.252 395.848 161.258 397.019 161.263 406.865 161.22 415.101 160.212 423 154 429.204 147.46 430.618 141.292 430.414 132.484 429.65 126.054 426.852 121.409 422.062 117.125 412.864 110.743 404.663 110.852 393.83 110.866 392.605 110.864 391.38 110.862 390.118 110.859 386.731 110.854 383.344 110.853 379.957 110.855 376.299 110.855 372.641 110.849 368.983 110.845 361.821 110.836 354.66 110.834 347.498 110.833 341.676 110.832 335.854 110.83 330.032 110.827 313.517 110.818 297.003 110.814 280.489 110.815 279.154 110.815 279.154 110.815 277.792 110.815 276.902 110.815 276.011 110.815 275.093 110.815 260.653 110.815 246.214 110.806 231.774 110.792 216.94 110.777 202.106 110.77 187.272 110.771 178.947 110.771 170.622 110.769 162.296 110.758 155.209 110.749 148.121 110.747 141.034 110.753 137.42 110.757 133.806 110.757 130.191 110.748 126.269 110.739 122.347 110.745 118.424 110.753 117.288 110.748 116.152 110.742 114.981 110.737 103.931 110.785 94.5738 112.125 86.6875 120.438Z" fill="#FFFFFF"/></g></svg>