<svg width="24" height="24" xmlns="http://www.w3.org/2000/svg" xmlns:xlink="http://www.w3.org/1999/xlink" xml:space="preserve" overflow="hidden"><g><path d="M10 20 14 20C14 21.1 13.1 22 12 22 10.9 22 10 21.1 10 20ZM20 17.35 20 19 4 19 4 17.35 6 15.47 6 10.32C6 7.4 7.56 5.1 10 4.34L10 3.96C10 2.54 11.49 1.46 12.99 2.2 13.64 2.52 14 3.23 14 3.96L14 4.35C16.44 5.1 18 7.41 18 10.33L18 15.48 20 17.35ZM19 17.77 17 15.89 17 10.42C17 7.95 15.81 6.06 13.87 5.32 12.61 4.79 11.23 4.82 10.03 5.35 8.15 6.11 7 7.99 7 10.42L7 15.89 5 17.77 5 18 19 18 19 17.77Z" fill="#FFFFFF"/></g></svg>