<svg width="24" height="24" xmlns="http://www.w3.org/2000/svg" xmlns:xlink="http://www.w3.org/1999/xlink" xml:space="preserve" overflow="hidden"><g><path d="M11.1562 22.6453C10.2656 22.4531 10.0406 21.3047 10.8047 20.8359L11.0297 20.6953 12 20.6953 12.9703 20.6953 13.1953 20.8359C13.7297 21.1688 13.8141 21.9703 13.35 22.3875 13.0875 22.6313 12.9609 22.6594 12.1172 22.6688 11.6813 22.6781 11.2453 22.6641 11.1562 22.6453ZM12.8906 21.8906C13.0266 21.7547 13.0125 21.5438 12.8625 21.4266 12.75 21.3375 12.675 21.3281 12 21.3281 11.325 21.3281 11.25 21.3375 11.1375 21.4266 11.0484 21.4969 11.0156 21.5672 11.0156 21.6797 11.0156 21.9563 11.1094 21.9844 12.0094 21.9844 12.7359 21.9844 12.8063 21.975 12.8906 21.8906Z" fill="#FFFFFF" transform="matrix(1 0 0 -1 0 24)"/><path d="M11.5078 20.3156C10.8469 20.2266 10.6078 20.175 10.2188 20.0531 9.28594 19.7578 8.48906 19.2703 7.78125 18.5625 6.9375 17.7234 6.39375 16.7344 6.1125 15.5156 6.04219 15.2109 6.02813 14.7844 6.00469 12.2578 5.97188 9.00469 5.99531 9.19688 5.625 8.79375 5.36719 8.51719 5.09531 8.39062 4.63594 8.33906 3.97969 8.26406 3.54375 7.94063 3.38906 7.41094 3.28125 7.02656 3.32344 6.33281 3.47813 5.99531 3.64688 5.63906 3.88125 5.38594 4.22813 5.19844L4.52344 5.03906 12 5.03906 19.4766 5.03906 19.7719 5.19844C20.1188 5.38594 20.3531 5.63906 20.5219 5.99531 20.6813 6.34688 20.7234 7.04063 20.6016 7.425 20.4328 7.95469 20.0203 8.26406 19.3734 8.33906 19.1719 8.35781 18.9281 8.40938 18.8344 8.45156 18.5906 8.55469 18.2578 8.87813 18.1313 9.13125L18.0234 9.35156 17.9953 12.1875C17.9719 14.6391 17.9578 15.0703 17.8875 15.375 17.55 16.8422 16.8281 18.0563 15.7688 18.9328 14.7094 19.8141 13.5375 20.2641 12.1828 20.3156 11.8875 20.325 11.5875 20.3297 11.5078 20.3156ZM12.8672 19.5844C14.2172 19.3781 15.5578 18.4875 16.3828 17.2547 16.8 16.6219 17.0203 16.1203 17.2125 15.3281 17.3063 14.9531 17.3109 14.7516 17.3391 12.0703L17.3672 9.21094 17.5359 8.85938C17.8828 8.14688 18.4781 7.74375 19.3078 7.66875 19.8609 7.61719 20.0531 7.34063 20.0016 6.68906 19.9594 6.17344 19.7156 5.84531 19.2891 5.72344 19.1484 5.68125 17.2547 5.67188 11.8781 5.68125L4.65938 5.69531 4.4625 5.82188C4.18594 6.00469 4.03125 6.29531 3.99844 6.68906 3.94688 7.34063 4.13906 7.61719 4.69219 7.66875 5.52188 7.74375 6.10313 8.1375 6.45938 8.85469L6.63281 9.20625 6.66094 12.1125C6.68438 15.1266 6.68438 15.1313 6.9 15.8625 7.35469 17.4328 8.65313 18.7969 10.2281 19.35 11.1047 19.6594 11.9062 19.7297 12.8672 19.5844Z" fill="#FFFFFF" transform="matrix(1 0 0 -1 0 24)"/><path d="M11.1094 18.9141C10.1859 18.7266 9.38906 18.3 8.71406 17.6297 8.14219 17.0531 7.74375 16.3875 7.52344 15.6281 7.40625 15.225 7.29844 14.3906 7.35 14.25 7.43906 13.9922 7.75313 13.9266 7.91719 14.1375 7.99219 14.2313 8.01562 14.3297 8.01562 14.5359 8.01562 15.525 8.56875 16.65 9.4125 17.3719 10.0781 17.9391 11.0672 18.3281 11.8594 18.3281 12.2625 18.3281 12.4734 18.6516 12.2344 18.8906 12.1547 18.9703 12.0797 18.9844 11.7797 18.9797 11.5781 18.9797 11.2781 18.9469 11.1094 18.9141Z" fill="#FFFFFF" transform="matrix(1 0 0 -1 0 24)"/><path d="M4.79063 6.58125C4.65469 6.4875 4.65 6.225 4.78125 6.09375 4.87031 6.00469 4.93594 6 6.99844 6L9.12656 6 9.225 6.10781C9.35156 6.24375 9.35625 6.44063 9.23438 6.5625 9.14531 6.65156 9.07969 6.65625 7.01719 6.65625 5.175 6.65625 4.88438 6.64688 4.79063 6.58125Z" fill="#FFFFFF" transform="matrix(1 0 0 -1 0 24)"/><path d="M10.0781 6.52969C9.96094 6.37969 9.98438 6.20625 10.1344 6.08438 10.2094 6.01875 10.3172 6 10.6734 6 11.0766 6 11.1234 6.00938 11.2266 6.11719 11.3672 6.25781 11.3719 6.37031 11.2453 6.53438 11.1516 6.65156 11.1328 6.65625 10.6641 6.65625 10.1906 6.65625 10.1766 6.65156 10.0781 6.52969Z" fill="#FFFFFF" transform="matrix(1 0 0 -1 0 24)"/><path d="M9.24375 4.65C9.1875 4.64062 9.10313 4.57969 9.06094 4.51875 8.89219 4.26094 9.13125 3.24375 9.4875 2.70938 9.58125 2.56406 9.80625 2.30625 9.98438 2.1375 10.8891 1.28906 12.1969 1.10625 13.35 1.66875 13.7484 1.86563 14.25 2.31094 14.5125 2.70938 14.7422 3.05156 14.9438 3.64688 14.9813 4.08281 15.0188 4.49531 14.9391 4.64531 14.6813 4.65 14.4469 4.65938 14.3625 4.54688 14.3297 4.18125 14.2125 2.93438 13.2234 2.01562 12 2.01562 10.7766 2.01562 9.7875 2.93438 9.67031 4.18125 9.6375 4.57031 9.52031 4.69688 9.24375 4.65Z" fill="#FFFFFF" transform="matrix(1 0 0 -1 0 24)"/><path d="M10.9359 4.02656C10.6828 3.93281 10.6688 3.62813 10.9078 3.42188 11.2266 3.14063 11.55 3.02344 12 3.02344 12.3375 3.02344 12.4406 3.04219 12.6797 3.15469 13.0547 3.32813 13.2656 3.53438 13.2656 3.72656 13.2656 4.05 12.9281 4.13906 12.6234 3.89531 12.2578 3.60469 11.7469 3.6 11.3906 3.88594 11.1984 4.04063 11.0719 4.07812 10.9359 4.02656Z" fill="#FFFFFF" transform="matrix(1 0 0 -1 0 24)"/></g></svg>