<?xml version="1.0" encoding="UTF-8"?>
<svg version="1.1" xmlns="http://www.w3.org/2000/svg" width="512" height="512">
<path d="M0 0 C0.98385581 -0.00644889 1.96771162 -0.01289778 2.98138124 -0.0195421 C4.05471654 -0.01644489 5.12805185 -0.01334769 6.23391247 -0.01015663 C7.38001828 -0.01468774 8.52612409 -0.01921886 9.70696038 -0.02388728 C12.88410447 -0.03435622 16.0611062 -0.03585733 19.23826206 -0.03349853 C22.66646023 -0.03309025 26.09462468 -0.04413054 29.52280712 -0.05361366 C36.2378509 -0.07022242 42.95285957 -0.07572316 49.66792218 -0.07683842 C55.12683592 -0.07778897 60.58573809 -0.08189964 66.04464817 -0.08823967 C81.52443348 -0.10585192 97.00419107 -0.11507859 112.48398647 -0.11357872 C113.7356119 -0.11345885 113.7356119 -0.11345885 115.0125227 -0.11333656 C115.84795946 -0.1132548 116.68339622 -0.11317304 117.54414924 -0.1130888 C131.08261433 -0.11227596 144.62096814 -0.13141328 158.15940104 -0.1596133 C172.06327847 -0.18834579 185.96710165 -0.20215338 199.87100953 -0.20042574 C207.67590673 -0.19976196 215.48068729 -0.20524922 223.28555775 -0.22678185 C229.93105445 -0.2449985 236.57638164 -0.24933709 243.22189251 -0.235763 C246.61138202 -0.22923548 250.00028113 -0.23128347 253.38978291 -0.2464695 C257.06760933 -0.26188031 260.74458131 -0.25263992 264.42238903 -0.23720741 C265.48903217 -0.24749454 266.55567531 -0.25778167 267.65464097 -0.26838052 C275.01162954 -0.20014617 280.35661959 1.03357196 286.04206371 6.03851891 C286.48807934 6.60570641 286.93409496 7.17289391 287.39362621 7.75726891 C288.08585278 8.60805016 288.08585278 8.60805016 288.79206371 9.47601891 C291.19806471 12.97008405 292.27364704 15.48957286 292.13117504 19.76849937 C292.10968899 20.65896965 292.08820293 21.54943993 292.06606579 22.46689415 C292.03623104 23.42638969 292.00639629 24.38588524 291.97565746 25.37445641 C290.76156296 56.07124649 290.76156296 56.07124649 304.02839184 82.66840172 C307.51200199 87.19982985 310.30777923 92.16785579 313.20435619 97.08530235 C314.97654846 100.07756012 316.79198301 103.04327347 318.60456371 106.01117516 C319.33741894 107.21439724 320.07016589 108.41768529 320.8028059 109.62103844 C322.28712697 112.05734123 323.77226255 114.49314561 325.25788403 116.92865562 C329.55609853 123.97594272 333.83916504 131.03195598 338.10309887 138.10004234 C339.89412789 141.05206723 341.70928383 143.98777697 343.53034496 146.92133141 C344.54818799 148.59525397 345.56518232 150.26969303 346.58112621 151.94476891 C347.04051586 152.66801353 347.49990551 153.39125816 347.97321606 154.1364193 C352.13622216 161.10407203 351.78016396 167.50419057 349.83112621 175.25726891 C346.1009004 188.83735367 336.79520032 199.65825961 325.01862621 207.25726891 C321.05862621 209.23726891 321.05862621 209.23726891 317.01862621 211.25726891 C316.68862621 271.97726891 316.35862621 332.69726891 316.01862621 395.25726891 C325.58862621 395.25726891 335.15862621 395.25726891 345.01862621 395.25726891 C353.02585921 399.83283062 353.02585921 399.83283062 354.01862621 403.25726891 C354.28605175 405.22319603 354.28605175 405.22319603 354.30915356 407.30389977 C354.32191326 408.08828926 354.33467297 408.87267876 354.34781933 409.68083763 C354.3511578 410.93876877 354.3511578 410.93876877 354.35456371 412.22211266 C354.36122051 413.09243629 354.36787731 413.96275993 354.37473583 414.85945702 C354.3848476 416.6976873 354.38955331 418.53595419 354.38923168 420.37421227 C354.39360562 423.18155085 354.42994165 425.98731764 354.46784496 428.79437828 C354.47371335 430.58278438 354.4776826 432.37119792 354.47956371 434.15961266 C354.50112026 435.41450745 354.50112026 435.41450745 354.5231123 436.69475365 C354.49227567 440.64146358 354.32167695 442.75577525 352.23981762 446.20087242 C347.95698189 450.16595544 344.81107502 450.50808096 338.99951649 450.51453781 C338.28927011 450.51804389 337.57902374 450.52154996 336.84725475 450.52516228 C334.45513347 450.53450404 332.06325415 450.52954588 329.67112255 450.52469444 C327.94365311 450.5284293 326.21618535 450.53303017 324.4887203 450.53842509 C319.73206266 450.55069073 314.97547517 450.55039044 310.21880531 450.54803634 C305.09259417 450.54762907 299.96640579 450.55865864 294.84020519 450.56815147 C284.79357541 450.58478175 274.74696909 450.59026193 264.7003267 450.59137623 C256.5363769 450.5923257 248.37243486 450.59643094 240.20848751 450.60277748 C217.07608575 450.62039507 193.94370256 450.62961549 170.81129403 450.62811653 C168.93972424 450.62799666 168.93972424 450.62799666 167.03034496 450.62787437 C165.78111324 450.62779261 164.53188152 450.62771085 163.24479429 450.62762661 C142.99267592 450.62681346 122.74063187 450.64595708 102.488535 450.67415111 C81.70744604 450.70285395 60.92639336 450.71669285 40.14528406 450.71496356 C28.47276985 450.71429878 16.80033357 450.71982957 5.12783718 450.74131966 C-4.80933011 450.75949722 -14.74638415 450.76390699 -24.68356083 450.75030081 C-29.75567865 450.74375396 -34.82757897 450.74371575 -39.89967632 450.76100731 C-44.54082505 450.77666729 -49.18158255 450.77394719 -53.82272132 450.75643905 C-55.50372198 450.75335349 -57.18475133 450.75705968 -58.86571817 450.7681592 C-61.14781568 450.78223268 -63.42853184 450.77173317 -65.71058178 450.75504684 C-67.61314568 450.75569895 -67.61314568 450.75569895 -69.55414522 450.75636423 C-73.6439695 450.16077741 -75.7866588 448.83688063 -78.98137379 446.25726891 C-81.38323418 442.65447831 -81.19625377 440.13821773 -81.11418629 435.99164391 C-81.11499333 434.52940223 -81.11765702 433.06716061 -81.12199879 431.60492516 C-81.12003926 429.30884648 -81.10653522 427.01531484 -81.06047535 424.71967125 C-80.62339016 415.78630873 -80.62339016 415.78630873 -83.75212574 407.74432945 C-85.74690971 406.02335261 -87.75924709 404.66013385 -89.98137379 403.25726891 C-93.35484694 398.57793517 -94.11885311 394.70569744 -94.04387379 389.00726891 C-94.03485035 388.11523766 -94.02582691 387.22320641 -94.01653004 386.30414391 C-94.00492847 385.62867516 -93.99332691 384.95320641 -93.98137379 384.25726891 C-95.15699879 383.76226891 -96.33262379 383.26726891 -97.54387379 382.75726891 C-102.48596022 380.30381319 -105.81333053 376.7292604 -108.98137379 372.25726891 C-111.02202821 366.13530565 -110.85689573 358.83775463 -108.79387379 352.75726891 C-106.74169707 349.92668034 -104.61778783 347.55568115 -101.98137379 345.25726891 C-101.32137379 345.25726891 -100.66137379 345.25726891 -99.98137379 345.25726891 C-102.42405875 334.19968324 -104.86680443 323.14211099 -107.30962658 312.08455563 C-108.44405367 306.9495063 -109.57846023 301.81445244 -110.7128191 296.67938805 C-111.80855072 291.71918675 -112.9043373 286.7589976 -114.00016117 281.79881668 C-114.41719086 279.91111173 -114.83420111 278.02340249 -115.25119114 276.13568878 C-115.8374693 273.48162387 -116.42381804 270.82757455 -117.01018238 268.17352867 C-117.18065586 267.40172264 -117.35112934 266.62991661 -117.52676868 265.83472252 C-117.68938694 265.09873329 -117.8520052 264.36274406 -118.01955128 263.60445213 C-118.17590424 262.89207956 -118.33225719 262.17970699 -118.49334812 261.44574738 C-118.83586924 259.9097624 -119.18839785 258.37599121 -119.54828739 256.8439827 C-119.73186172 256.05396929 -119.91543606 255.26395588 -120.10457325 254.45000267 C-120.35633037 253.38732626 -120.35633037 253.38732626 -120.61317348 252.30318165 C-120.98137379 250.25726891 -120.98137379 250.25726891 -120.98137379 246.25726891 C-122.16215504 246.30367516 -123.34293629 246.35008141 -124.55949879 246.39789391 C-126.11676513 246.4354184 -127.67405886 246.47181783 -129.23137379 246.50726891 C-130.00867847 246.54078453 -130.78598316 246.57430016 -131.58684254 246.60883141 C-135.36085581 246.67334445 -137.34194017 246.70536813 -140.50090504 244.49164391 C-142.7804279 241.05130861 -142.66892079 238.24340448 -141.98137379 234.25726891 C-140.23884034 231.02113536 -139.50951435 230.43331576 -135.98137379 229.25726891 C-132.02779183 228.97330349 -128.06901604 228.97969231 -124.10637379 228.94476891 C-123.01711597 228.915765 -121.92785816 228.88676109 -120.80559254 228.85687828 C-112.88993669 228.79390183 -112.88993669 228.79390183 -108.85637379 230.85101891 C-106.50565836 233.86777037 -105.73621711 236.34826947 -104.85637379 240.06976891 C-104.4193816 241.84287437 -104.4193816 241.84287437 -103.97356129 243.65180016 C-102.56898163 250.17148292 -101.28932443 256.71751567 -99.98137379 263.25726891 C-81.17137379 263.25726891 -62.36137379 263.25726891 -42.98137379 263.25726891 C-43.31137379 246.09726891 -43.64137379 228.93726891 -43.98137379 211.25726891 C-47.61137379 209.27726891 -51.24137379 207.29726891 -54.98137379 205.25726891 C-66.15086306 196.96696146 -74.51263057 186.18374353 -77.61418629 172.45648766 C-78.48177379 164.89740081 -78.44851493 159.65610488 -74.29387379 153.00726891 C-73.89088062 152.32728844 -73.48788746 151.64730797 -73.07268238 150.94672203 C-71.73198106 148.7019675 -70.36079002 146.4784193 -68.98137379 144.25726891 C-68.52069508 143.51025719 -68.06001637 142.76324547 -67.58537769 141.99359703 C-65.5622231 138.71504908 -63.53334243 135.44025094 -61.49113941 132.17352867 C-56.29460575 123.84051577 -51.29042087 115.39843909 -46.29387379 106.94476891 C-29.45877524 78.4731131 -29.45877524 78.4731131 -25.71146107 73.60883141 C-21.45156961 67.73511568 -21.30349131 62.69762314 -21.41496754 55.60101891 C-21.40933292 54.49931358 -21.40369831 53.39760826 -21.39789295 52.26251793 C-21.38150455 48.76032965 -21.39693416 45.25941231 -21.41887379 41.75726891 C-21.43550876 38.25524495 -21.44450739 34.75405732 -21.42914295 31.25201988 C-21.41991796 29.07940959 -21.42884162 26.90662127 -21.45877552 24.73419762 C-21.4320189 17.30074884 -20.22831717 12.01994602 -15.23528004 6.23383141 C-14.67711597 5.78781578 -14.11895191 5.34180016 -13.54387379 4.88226891 C-12.98828785 4.42078453 -12.43270191 3.95930016 -11.86028004 3.48383141 C-8.02680235 0.98131167 -4.55337971 0.00757046 0 0 Z M-3.98137379 20.25726891 C-3.98137379 32.13726891 -3.98137379 44.01726891 -3.98137379 56.25726891 C88.41862621 56.25726891 180.81862621 56.25726891 276.01862621 56.25726891 C277.37402272 36.80366098 277.37402272 36.80366098 274.01862621 18.25726891 C271.6338084 17.06486 270.17950203 17.12985402 267.51736832 17.12584114 C266.08771983 17.12007942 266.08771983 17.12007942 264.62918955 17.11420131 C263.57483271 17.11506779 262.52047587 17.11593427 261.43416882 17.11682701 C260.31976687 17.11385589 259.20536492 17.11088477 258.05719322 17.10782361 C254.29766668 17.09910493 250.53817185 17.0976257 246.77863598 17.09613609 C244.09358601 17.09151023 241.40853897 17.08650679 238.72349072 17.08109093 C231.4116591 17.06749684 224.09983296 17.06148141 216.78799081 17.05708027 C212.22532583 17.05432005 207.66266297 17.05008314 203.09999943 17.0455761 C190.47515432 17.03338275 177.85031092 17.02308309 165.22546005 17.019701 C164.41712711 17.01948144 163.60879416 17.01926187 162.77596628 17.01903565 C161.96566806 17.01881737 161.15536984 17.0185991 160.32051712 17.0183742 C158.67846429 17.01793073 157.03641146 17.01748417 155.39435863 17.01703453 C154.57983874 17.0168131 153.76531884 17.01659167 152.92611652 17.01636353 C139.72036461 17.01241334 126.51466781 16.99495289 113.3089372 16.97167501 C99.76113852 16.94798623 86.21336752 16.93550031 72.66554779 16.93433309 C65.05472561 16.93341501 57.44397525 16.92762928 49.8331728 16.90951347 C43.35400576 16.89414591 36.87493274 16.88897219 30.39575095 16.89725158 C27.08802346 16.90116985 23.780526 16.89855369 20.47281361 16.88619423 C16.89173232 16.87359363 13.31114416 16.87928665 9.73006725 16.88977623 C8.67794113 16.88171983 7.62581501 16.87366342 6.54180628 16.86536288 C5.10824617 16.87524765 5.10824617 16.87524765 3.64572525 16.88533211 C2.81863936 16.88473502 1.99155346 16.88413793 1.13940436 16.88352275 C-1.4239619 17.12620407 -1.4239619 17.12620407 -3.98137379 20.25726891 Z M-8.56779957 77.44037437 C-9.40724219 79.02802947 -10.21503853 80.6330636 -10.98137379 82.25726891 C-11.62687183 83.28553795 -12.27236988 84.31380699 -12.93742847 85.3732357 C-13.50364918 86.30820885 -14.06986988 87.24318199 -14.65324879 88.20648766 C-15.30881763 89.287286 -15.96438648 90.36808434 -16.63982105 91.48163414 C-17.33707608 92.63596964 -18.03425841 93.79034906 -18.73137379 94.94476891 C-19.46946324 96.16366715 -20.20766562 97.38249703 -20.9459734 98.60126305 C-27.24287795 109.00391016 -33.49987764 119.43068013 -39.74016285 129.86737633 C-45.4635128 139.43190896 -45.4635128 139.43190896 -48.28557301 143.98822594 C-48.65826817 144.59002174 -49.03096333 145.19181755 -49.41495228 145.81184959 C-50.45023649 147.4794745 -51.48901684 149.14492747 -52.52800465 150.81024742 C-54.06648307 152.92621907 -54.06648307 152.92621907 -53.98137379 154.25726891 C-27.25137379 154.25726891 -0.52137379 154.25726891 27.01862621 154.25726891 C28.87582381 149.92380785 30.49567012 146.04589788 31.84040356 141.6076107 C32.16439129 140.54507576 32.48837902 139.48254082 32.82218456 138.38780785 C33.16286968 137.25547218 33.5035548 136.12313652 33.85456371 134.95648766 C34.21579327 133.7661039 34.57702282 132.57572014 34.94919872 131.34926414 C35.90700391 128.18917326 36.86111549 125.02799682 37.81373119 121.86633873 C38.76598257 118.71090981 39.72492723 115.55751329 40.68268871 112.40375328 C44.62310559 99.39768702 48.47731182 86.37806839 52.01862621 73.25726891 C44.69095163 73.04829039 37.36392384 72.88860731 30.03386784 72.79095936 C26.62960127 72.74407825 23.22737962 72.68056311 19.82429028 72.57831383 C15.90755166 72.46137462 11.99162647 72.4180686 8.07331371 72.37836266 C6.85747601 72.33191109 5.6416383 72.28545952 4.38895702 72.23760033 C-1.5816983 72.23404232 -5.07138535 72.26891127 -8.56779957 77.44037437 Z M70.01862621 73.25726891 C68.07331657 78.44476128 66.2696971 83.48174752 64.65851879 88.75897789 C64.44350216 89.46079689 64.22848553 90.16261589 64.00695324 90.88570213 C63.30654042 93.17417253 62.60975984 95.46372979 61.91315746 97.75336266 C61.42438167 99.35384649 60.93542099 100.95427387 60.44628429 102.55464745 C59.426904 105.89180817 58.40923486 109.22948409 57.39289379 112.56757164 C56.08749942 116.85479496 54.77859053 121.14093531 53.46852112 125.42673206 C52.46117128 128.72308019 51.45525133 132.01986319 50.4498148 135.31679535 C49.96731265 136.89862366 49.484455 138.48034358 49.00124073 140.0619545 C48.32961106 142.26132012 47.6598095 144.4612338 46.99055004 146.66132164 C46.60877102 147.91404366 46.226992 149.16676567 45.83364391 150.45744896 C44.97204364 152.93128799 44.97204364 152.93128799 45.01862621 154.25726891 C72.40862621 154.25726891 99.79862621 154.25726891 128.01862621 154.25726891 C128.01862621 127.52726891 128.01862621 100.79726891 128.01862621 73.25726891 C108.87862621 73.25726891 89.73862621 73.25726891 70.01862621 73.25726891 Z M145.01862621 73.25726891 C145.01862621 99.98726891 145.01862621 126.71726891 145.01862621 154.25726891 C172.40862621 154.25726891 199.79862621 154.25726891 228.01862621 154.25726891 C220.13781945 127.10586046 220.13781945 127.10586046 211.98591137 100.03851891 C210.98627769 96.77671574 209.99261564 93.51312616 208.99909496 90.24945641 C208.36012091 88.16080798 207.72081252 86.0722618 207.08112621 83.98383141 C206.7864143 83.01442619 206.49170238 82.04502098 206.18805981 81.04623985 C205.91687328 80.16535698 205.64568676 79.28447411 205.36628246 78.37689781 C205.12917553 77.60214104 204.8920686 76.82738426 204.6477766 76.02915001 C204.16134972 74.25674433 204.16134972 74.25674433 203.01862621 73.25726891 C201.20807596 73.16350837 199.3938542 73.13982781 197.58088207 73.14374352 C196.40344433 73.14386436 195.22600658 73.14398521 194.01288891 73.14410973 C192.76568066 73.14922569 191.5184724 73.15434166 190.23346996 73.15961266 C188.52471691 73.16112328 188.52471691 73.16112328 186.7814436 73.16266441 C182.50632763 73.16791553 178.23122596 73.18187664 173.95612621 73.19476891 C164.40675121 73.21539391 154.85737621 73.23601891 145.01862621 73.25726891 Z M221.01862621 73.25726891 C225.49947438 89.23507398 230.26098117 105.12392994 235.10676098 120.99408531 C236.14354873 124.39008675 237.17562282 127.78750239 238.20664215 131.18525887 C239.19969311 134.45493053 240.19730488 137.72320553 241.19440746 140.99164391 C241.56415188 142.21115746 241.93389629 143.43067101 242.31484509 144.68713951 C242.65577694 145.80050682 242.99670879 146.91387413 243.34797192 148.06097984 C243.64742214 149.04354759 243.94687237 150.02611534 244.25539684 151.03845787 C244.81876723 153.20362642 244.81876723 153.20362642 246.01862621 154.25726891 C248.54403623 154.35231141 251.04199747 154.38284048 253.56769848 154.3707943 C254.35788372 154.37094032 255.14806896 154.37108635 255.96219921 154.3712368 C258.58650443 154.37053747 261.21073957 154.36274418 263.83503246 154.35492516 C265.64964287 154.35306105 267.46425377 154.35163711 269.27886486 154.35063744 C274.06452851 154.3468117 278.85016201 154.33698094 283.63581371 154.32593346 C288.51536685 154.31572053 293.39492485 154.31114007 298.27448559 154.30609703 C307.85587907 154.29535872 317.43725014 154.27828164 327.01862621 154.25726891 C323.90889686 148.50136363 320.80623454 142.75983956 317.38190746 137.18305016 C316.7314143 136.11876793 316.08092113 135.0544857 315.41071606 133.9579525 C314.72445141 132.83985191 314.03818676 131.72175133 313.33112621 130.56976891 C308.47645909 122.63381039 303.65728725 114.67932739 298.92878246 106.66742516 C298.50722378 105.95373268 298.08566509 105.24004021 297.6513319 104.50472069 C295.60464546 101.03779706 293.56297007 97.56804025 291.52765942 94.09442711 C290.77218291 92.81268843 290.01657386 91.53102786 289.26081371 90.24945641 C288.60967602 89.13941246 287.95853832 88.02936852 287.28766918 86.88568687 C286.93328274 86.32849968 286.57889629 85.77131248 286.21377087 85.19724083 C285.29901557 83.71239998 284.46081572 82.18015517 283.65880871 80.63150597 C280.54452605 75.21653305 280.54452605 75.21653305 275.19684887 72.39072227 C271.71060474 72.09846487 268.3615794 72.13169694 264.86628246 72.28070641 C263.61101254 72.29485588 262.35574261 72.30900536 261.0624342 72.3235836 C257.74360951 72.36995268 254.43181732 72.45952031 251.11493969 72.5706234 C247.72342378 72.67342128 244.3311769 72.71869634 240.93854809 72.76898766 C234.29664834 72.87904335 227.65804272 73.04621118 221.01862621 73.25726891 Z M-59.98137379 171.25726891 C-53.64463612 183.93074424 -48.02985916 191.3501462 -34.98137379 196.25726891 C-21.0441273 200.42165099 -7.95529529 200.01535948 5.25300121 193.71430016 C15.08766275 187.77818539 19.34136746 181.7811011 24.01862621 171.25726891 C-3.70137379 171.25726891 -31.42137379 171.25726891 -59.98137379 171.25726891 Z M43.01862621 171.25726891 C47.99005407 182.44298157 53.57161448 190.31492394 65.01862621 195.25726891 C79.86922153 200.29104212 93.88529065 200.5684616 108.25300121 193.71430016 C118.08766275 187.77818539 122.34136746 181.7811011 127.01862621 171.25726891 C99.29862621 171.25726891 71.57862621 171.25726891 43.01862621 171.25726891 Z M146.01862621 171.25726891 C150.99005407 182.44298157 156.57161448 190.31492394 168.01862621 195.25726891 C182.86922153 200.29104212 196.88529065 200.5684616 211.25300121 193.71430016 C221.08766275 187.77818539 225.34136746 181.7811011 230.01862621 171.25726891 C202.29862621 171.25726891 174.57862621 171.25726891 146.01862621 171.25726891 Z M249.01862621 171.25726891 C253.99005407 182.44298157 259.57161448 190.31492394 271.01862621 195.25726891 C285.86922153 200.29104212 299.88529065 200.5684616 314.25300121 193.71430016 C324.08766275 187.77818539 328.34136746 181.7811011 333.01862621 171.25726891 C305.29862621 171.25726891 277.57862621 171.25726891 249.01862621 171.25726891 Z M33.01862621 190.25726891 C32.39987621 191.0017025 32.39987621 191.0017025 31.76862621 191.76117516 C21.54996303 203.7817901 8.94319478 212.6693519 -7.14153004 214.5036068 C-9.33811435 214.67113049 -11.53046696 214.78844695 -13.73137379 214.88226891 C-14.47258472 214.92094078 -15.21379566 214.95961266 -15.97746754 214.99945641 C-19.31756409 215.16736072 -22.63638166 215.25726891 -25.98137379 215.25726891 C-25.98137379 231.09726891 -25.98137379 246.93726891 -25.98137379 263.25726891 C-11.2032042 263.38805524 -11.2032042 263.38805524 3.57526684 263.46503258 C5.44183171 263.49150139 7.30837211 263.51978364 9.17487621 263.55023766 C10.12717113 263.54624962 11.07946606 263.54226158 12.0606184 263.53815269 C20.06033363 263.7070586 24.71113767 266.197842 30.51862621 271.56976891 C31.01362621 272.12664391 31.50862621 272.68351891 32.01862621 273.25726891 C32.03844555 272.52089195 32.05826488 271.784515 32.07868481 271.02582359 C32.17400449 267.68594835 32.28365617 264.34669252 32.39362621 261.00726891 C32.42456371 259.84840172 32.45550121 258.68953453 32.48737621 257.49555016 C32.52604809 256.38051109 32.56471996 255.26547203 32.60456371 254.11664391 C32.63598461 253.09022789 32.66740551 252.06381187 32.69977856 251.00629234 C33.01865772 248.25699724 33.52147436 246.56784444 35.01862621 244.25726891 C38.11797584 242.70759409 41.3922245 243.11668318 44.79375744 243.12355614 C45.60597651 243.12129058 46.41819558 243.11902502 47.25502735 243.11669081 C49.99191503 243.1103323 52.72875343 243.11118136 55.4656477 243.11200523 C57.42164201 243.10901491 59.37763572 243.10561268 61.33362865 243.10182762 C66.65792516 243.09297086 71.98220562 243.09064881 77.30650878 243.09001184 C81.74512435 243.08906414 86.18373615 243.08538748 90.62235028 243.08183974 C101.09046307 243.07368892 111.55856725 243.07125609 122.02668285 243.07196617 C132.83984246 243.07256724 143.65295222 243.06201102 154.4660992 243.04622251 C163.73744964 243.03316557 173.00878375 243.02778149 182.28014332 243.02842158 C187.82297265 243.0286771 193.36575771 243.02579636 198.90857792 243.01524353 C204.11974747 243.00559347 209.33083014 243.00546202 214.54200268 243.01276016 C216.45807617 243.01380985 218.37415499 243.01142054 220.29021931 243.0053997 C222.89908694 242.99773082 225.50765068 243.00229047 228.11651134 243.01003075 C228.88070729 243.00488718 229.64490324 242.99974362 230.43225664 242.99444419 C234.17836234 243.01912781 235.81879366 243.1240472 239.01862621 245.25726891 C240.82718876 250.68295656 240.28864881 256.51695615 240.33112621 262.19476891 C240.36013012 263.48318687 240.38913403 264.77160484 240.41901684 266.09906578 C240.42739574 267.33592125 240.43577465 268.57277672 240.44440746 269.84711266 C240.46628124 271.54662071 240.46628124 271.54662071 240.48859692 273.28046227 C239.91146793 276.93601226 238.95320892 278.06382381 236.01862621 280.25726891 C234.69862621 280.58726891 233.37862621 280.91726891 232.01862621 281.25726891 C232.01862621 318.87726891 232.01862621 356.49726891 232.01862621 395.25726891 C254.12862621 395.25726891 276.23862621 395.25726891 299.01862621 395.25726891 C299.01862621 335.85726891 299.01862621 276.45726891 299.01862621 215.25726891 C295.05862621 215.25726891 291.09862621 215.25726891 287.01862621 215.25726891 C268.44219898 213.89105527 253.53138079 205.76004363 241.01862621 192.25726891 C240.35862621 191.59726891 239.69862621 190.93726891 239.01862621 190.25726891 C238.46175121 190.90953453 237.90487621 191.56180016 237.33112621 192.23383141 C226.04567124 205.15872747 212.36140781 213.61325753 194.93171215 214.89154625 C177.19273632 215.86879806 161.41537079 212.16117965 147.01862621 201.25726891 C144.19892382 198.71813392 141.58885739 196.04572726 139.01862621 193.25726891 C138.02316129 192.2527543 137.02474225 191.25111523 136.01862621 190.25726891 C135.60612621 190.75355797 135.19362621 191.24984703 134.76862621 191.76117516 C123.98216303 204.44971555 110.87028237 213.02695949 93.97565746 214.74164391 C75.53398396 216.09415078 59.04357722 212.63697519 44.01862621 201.25726891 C41.19892382 198.71813392 38.58885739 196.04572726 36.01862621 193.25726891 C35.02316129 192.2527543 34.02474225 191.25111523 33.01862621 190.25726891 Z M49.01862621 259.25726891 C49.01862621 260.90726891 49.01862621 262.55726891 49.01862621 264.25726891 C106.76862621 264.25726891 164.51862621 264.25726891 224.01862621 264.25726891 C224.01862621 262.60726891 224.01862621 260.95726891 224.01862621 259.25726891 C166.26862621 259.25726891 108.51862621 259.25726891 49.01862621 259.25726891 Z M34.01862621 279.25726891 C33.7853059 280.49347984 33.55198559 281.72969078 33.31159496 283.00336266 C30.49393848 297.62213807 27.35113258 312.17071975 24.13572216 326.70651817 C23.64099928 328.94865019 23.14976671 331.19155518 22.66202831 333.4352169 C21.9653182 336.63470301 21.25540076 339.83098555 20.54206371 343.02680016 C20.22811909 344.48477516 20.22811909 344.48477516 19.90783215 345.97220421 C19.60181828 347.32337837 19.60181828 347.32337837 19.28962231 348.70184898 C19.11595135 349.48804115 18.94228039 350.27423332 18.76334667 351.0842495 C17.79717901 353.90342957 17.32286883 355.28475055 15.01862621 357.25726891 C11.71632173 357.87230007 8.43737528 357.79976405 5.08698559 357.77142906 C4.06724148 357.77855415 3.04749737 357.78567924 1.99685192 357.79302025 C-1.38150171 357.81235485 -4.75923291 357.80401175 -8.13762379 357.79633141 C-10.48028452 357.80623138 -12.82293746 357.81816994 -15.16557789 357.83206749 C-21.33925648 357.86449619 -27.51275757 357.87482781 -33.68651295 357.87891197 C-43.56924666 357.88765424 -53.45183408 357.92305233 -63.33444691 357.9710865 C-66.79286044 357.98371361 -70.25109118 357.98290987 -73.7095232 357.98081017 C-75.82292797 357.9873886 -77.93633147 357.99439449 -80.04973316 358.00189781 C-81.01606174 357.99777382 -81.98239033 357.99364983 -82.97800159 357.98940086 C-83.86127628 357.99478371 -84.74455097 358.00016655 -85.65459156 358.00571251 C-86.80605797 358.00621573 -86.80605797 358.00621573 -87.98078632 358.00672913 C-90.29804283 358.14554227 -90.29804283 358.14554227 -92.98137379 360.25726891 C-93.48137379 362.75726891 -93.48137379 362.75726891 -92.98137379 365.25726891 C-89.92892996 367.29223146 -89.3435354 367.50722136 -85.91602039 367.5088253 C-85.09045643 367.51420815 -84.26489246 367.51959099 -83.41431141 367.52513695 C-82.06075802 367.51895096 -82.06075802 367.51895096 -80.67986012 367.51264 C-79.72666889 367.51626045 -78.77347767 367.51988091 -77.79140186 367.52361107 C-75.71904744 367.53051014 -73.64667482 367.53300955 -71.57430935 367.53166389 C-68.29106437 367.53069985 -65.00814787 367.54362796 -61.72494984 367.56064415 C-52.38914535 367.60694483 -43.05337307 367.63151187 -33.71745777 367.63812828 C-28.00801804 367.6431506 -22.29891907 367.66744152 -16.58959484 367.70345497 C-14.416389 367.71324009 -12.2431362 367.71559198 -10.06991482 367.71028328 C-7.02286148 367.70319161 -3.97681813 367.72054023 -0.92986012 367.74310875 C-0.03761234 367.73493629 0.85463543 367.72676384 1.77392101 367.71834373 C8.59645304 367.80790501 14.13648524 369.40794168 19.07721996 374.29242516 C19.53225903 374.96144859 19.98729809 375.63047203 20.45612621 376.31976891 C20.92921215 376.99137047 21.40229809 377.66297203 21.88971996 378.35492516 C24.9283487 383.47538257 24.58295416 389.46905448 25.01862621 395.25726891 C30.62862621 395.25726891 36.23862621 395.25726891 42.01862621 395.25726891 C42.01862621 357.63726891 42.01862621 320.01726891 42.01862621 281.25726891 C39.37862621 280.59726891 36.73862621 279.93726891 34.01862621 279.25726891 Z M-95.98137379 280.25726891 C-95.38062455 285.06326281 -94.81089709 289.4602386 -93.7662859 294.12250328 C-93.40101795 295.76557457 -93.40101795 295.76557457 -93.02837086 297.44183922 C-92.77438526 298.56686852 -92.52039967 299.69189781 -92.25871754 300.85101891 C-92.02382618 301.90450523 -91.78893482 302.95799156 -91.54692554 304.04340172 C-90.67498376 307.94893623 -89.79655111 311.85301932 -88.91887379 315.75726891 C-86.95949879 324.50226891 -85.00012379 333.24726891 -82.98137379 342.25726891 C-54.27137379 342.25726891 -25.56137379 342.25726891 4.01862621 342.25726891 C7.29800121 328.02601891 7.29800121 328.02601891 10.64362621 313.50726891 C11.34052563 310.51567711 12.03742504 307.52408531 12.75544262 304.44183922 C13.29478623 302.07327317 13.83310549 299.70447353 14.37018871 297.33539391 C14.80657665 295.48760338 14.80657665 295.48760338 15.25178051 293.60248375 C15.64804638 291.83687096 15.64804638 291.83687096 16.05231762 290.03558922 C16.28770245 289.01410789 16.52308727 287.99262657 16.76560497 286.94019127 C17.28946932 283.91692665 17.28946932 283.91692665 15.01862621 280.25726891 C-21.61137379 280.25726891 -58.24137379 280.25726891 -95.98137379 280.25726891 Z M58.01862621 281.25726891 C58.01862621 318.87726891 58.01862621 356.49726891 58.01862621 395.25726891 C81.11862621 395.25726891 104.21862621 395.25726891 128.01862621 395.25726891 C128.01862621 357.63726891 128.01862621 320.01726891 128.01862621 281.25726891 C104.91862621 281.25726891 81.81862621 281.25726891 58.01862621 281.25726891 Z M145.01862621 281.25726891 C145.01862621 318.87726891 145.01862621 356.49726891 145.01862621 395.25726891 C168.11862621 395.25726891 191.21862621 395.25726891 215.01862621 395.25726891 C215.01862621 357.63726891 215.01862621 320.01726891 215.01862621 281.25726891 C191.91862621 281.25726891 168.81862621 281.25726891 145.01862621 281.25726891 Z M-75.98137379 385.31976891 C-77.49776731 388.25778136 -76.90431096 390.15883698 -75.98137379 393.25726891 C-73.22241744 395.5536467 -73.22241744 395.5536467 -70.41887379 395.00726891 C-67.83136812 394.41918838 -67.83136812 394.41918838 -65.98137379 392.25726891 C-66.30463932 388.66047824 -66.30463932 388.66047824 -66.98137379 385.25726891 C-71.59771358 384.11552572 -71.59771358 384.11552572 -75.98137379 385.31976891 Z M-48.98137379 384.25726891 C-48.98137379 387.88726891 -48.98137379 391.51726891 -48.98137379 395.25726891 C-39.41137379 395.25726891 -29.84137379 395.25726891 -19.98137379 395.25726891 C-19.98137379 391.62726891 -19.98137379 387.99726891 -19.98137379 384.25726891 C-29.55137379 384.25726891 -39.12137379 384.25726891 -48.98137379 384.25726891 Z M-1.91887379 385.38226891 C-3.34204369 387.89374521 -3.40811894 389.41230119 -2.98137379 392.25726891 C-1.89804045 394.17393557 -1.89804045 394.17393557 0.01862621 395.25726891 C2.86359393 395.68401406 4.3821499 395.61793881 6.89362621 394.19476891 C8.66644805 391.14157575 7.71097927 388.59315182 7.01862621 385.25726891 C2.40853133 384.08718146 2.40853133 384.08718146 -1.91887379 385.38226891 Z M-63.98137379 412.25726891 C-63.98137379 419.18726891 -63.98137379 426.11726891 -63.98137379 433.25726891 C68.67862621 433.25726891 201.33862621 433.25726891 338.01862621 433.25726891 C338.01862621 426.32726891 338.01862621 419.39726891 338.01862621 412.25726891 C205.35862621 412.25726891 72.69862621 412.25726891 -63.98137379 412.25726891 Z " fill="#000000" transform="translate(149.98137378692627,30.74273109436035)"/>
<path d="M0 0 C0.64604187 -0.00686325 1.29208374 -0.0137265 1.95770264 -0.02079773 C4.08734287 -0.03905716 6.21624576 -0.03522974 8.34594727 -0.02954102 C9.83041116 -0.03410344 11.31487295 -0.0394092 12.79933167 -0.04542542 C15.90878893 -0.05435491 19.01798934 -0.05193562 22.12744141 -0.04199219 C26.10672894 -0.03050546 30.08512868 -0.05070913 34.06429958 -0.07990932 C37.12959906 -0.09828126 40.1946862 -0.09797692 43.26002693 -0.0922718 C44.72680977 -0.09211869 46.19360709 -0.09815472 47.66033745 -0.11056328 C49.714224 -0.12549077 51.7664761 -0.11478645 53.8203125 -0.09765625 C54.98739243 -0.09749008 56.15447235 -0.09732391 57.35691833 -0.09715271 C61.12689809 0.50886835 62.78539363 1.74182779 65.47485352 4.40405273 C66.62882165 7.40436989 66.60069185 8.9235791 65.78735352 12.02905273 C64.26523123 14.78336924 63.17817497 15.80374702 60.47485352 17.40405273 C57.48390198 17.79173279 57.48390198 17.79173279 53.94970703 17.80810547 C53.30366516 17.81496872 52.65762329 17.82183197 51.99200439 17.8289032 C49.86236416 17.84716263 47.73346127 17.84333521 45.60375977 17.83764648 C44.11929587 17.84220891 42.63483408 17.84751467 41.15037537 17.85353088 C38.04091811 17.86246038 34.9317177 17.86004109 31.82226562 17.85009766 C27.84297809 17.83861093 23.86457835 17.8588146 19.88540745 17.88801479 C16.82010797 17.90638673 13.75502083 17.90608239 10.6896801 17.90037727 C9.22289726 17.90022416 7.75609994 17.90626019 6.28936958 17.91866875 C4.23548304 17.93359624 2.18323094 17.92289192 0.12939453 17.90576172 C-1.03768539 17.90559555 -2.20476532 17.90542938 -3.4072113 17.90525818 C-7.17719106 17.29923712 -8.8356866 16.06627768 -11.52514648 13.40405273 C-12.67911462 10.40373558 -12.65098482 8.88452637 -11.83764648 5.77905273 C-8.9746288 0.59835407 -5.68551501 0.02633899 0 0 Z " fill="#000000" transform="translate(197.525146484375,58.595947265625)"/>
<path d="M0 0 C0.6461879 -0.00700928 1.29237579 -0.01401855 1.95814514 -0.02124023 C4.08256704 -0.03876735 6.20564399 -0.02721823 8.33007812 -0.01367188 C9.81311294 -0.01636836 11.29614602 -0.02025208 12.7791748 -0.02526855 C15.8827401 -0.03115637 18.98584395 -0.02262444 22.08935547 -0.00390625 C26.06080609 0.01888368 30.03117539 0.00575664 34.00258636 -0.01819611 C37.06361997 -0.03267395 40.12439864 -0.02803917 43.18544006 -0.01768494 C44.64942046 -0.0150231 46.11342426 -0.01826832 47.57737732 -0.02760315 C49.62642413 -0.03780252 51.67373802 -0.02222486 53.72265625 0 C54.88671997 0.00318237 56.05078369 0.00636475 57.25012207 0.00964355 C61.01169982 0.62375761 62.67534229 1.86126493 65.36132812 4.51757812 C66.51529626 7.51789528 66.48716646 9.03710449 65.67382812 12.14257812 C64.15170584 14.89689463 63.06464958 15.91727241 60.36132812 17.51757812 C57.37037659 17.90525818 57.37037659 17.90525818 53.83618164 17.92163086 C53.19013977 17.92849411 52.5440979 17.93535736 51.878479 17.94242859 C49.74883877 17.96068802 47.61993588 17.9568606 45.49023438 17.95117188 C44.00577048 17.9557343 42.52130869 17.96104006 41.03684998 17.96705627 C37.92739272 17.97598577 34.81819231 17.97356648 31.70874023 17.96362305 C27.7294527 17.95213632 23.75105296 17.97233999 19.77188206 18.00154018 C16.70658258 18.01991212 13.64149544 18.01960778 10.57615471 18.01390266 C9.10937187 18.01374955 7.64257455 18.01978558 6.17584419 18.03219414 C4.12195764 18.04712163 2.06970555 18.03641731 0.01586914 18.01928711 C-1.15121078 18.01912094 -2.31829071 18.01895477 -3.52073669 18.01878357 C-7.28506688 17.41367067 -8.95543501 16.17773927 -11.63867188 13.51757812 C-12.30273438 11.29882812 -12.30273438 11.29882812 -12.26367188 9.01757812 C-12.2765625 8.26476562 -12.28945313 7.51195313 -12.30273438 6.73632812 C-10.55134189 0.88461676 -5.42499094 0.0148311 0 0 Z " fill="#000000" transform="translate(321.638671875,58.482421875)"/>
<path d="M0 0 C2.875 2.0625 2.875 2.0625 5 5 C5.53976784 10.42750869 4.56412743 13.64554913 1.89453125 18.34375 C1.41290779 19.2029303 1.41290779 19.2029303 0.92155457 20.07946777 C0.24328314 21.283306 -0.44204276 22.48319427 -1.1340332 23.67919922 C-2.18040476 25.48773666 -3.20619286 27.30668666 -4.22851562 29.12890625 C-13.27104779 45.13552389 -13.27104779 45.13552389 -17 47 C-21.33327174 47.49055907 -23.32000344 47.47744439 -26.9375 44.9375 C-29.53838283 41.23321233 -29.38721507 39.46240317 -29 35 C-27.71826172 31.94555664 -27.71826172 31.94555664 -25.9296875 28.91015625 C-24.95515625 27.23856445 -24.95515625 27.23856445 -23.9609375 25.53320312 C-23.61772461 24.962229 -23.27451172 24.39125488 -22.92089844 23.80297852 C-21.88466635 22.07858576 -20.87030524 20.34283785 -19.859375 18.60351562 C-8.32036315 -0.97886625 -8.32036315 -0.97886625 0 0 Z " fill="#000000" transform="translate(247,341)"/>
<path d="M0 0 C3.52711488 1.95950826 4.74580295 3.17963679 5.9453125 7.05078125 C6.02206526 12.59342713 3.84456499 15.94532088 1.0625 20.625 C0.55904053 21.50148193 0.05558105 22.37796387 -0.46313477 23.28100586 C-1.95630432 25.86576656 -3.47542828 28.43367167 -5 31 C-5.79215792 32.36299586 -6.58387499 33.7262481 -7.375 35.08984375 C-12.97547484 44.56283735 -12.97547484 44.56283735 -17 47 C-20.68818005 47.54930341 -22.53248818 47.23375591 -25.875 45.5625 C-28.38186367 42.53951734 -28.58325509 40.53587948 -28.48583984 36.66381836 C-27.48634158 31.18365475 -24.28157388 26.66689326 -21.375 22 C-20.75753906 20.97132813 -20.14007813 19.94265625 -19.50390625 18.8828125 C-7.63989197 -0.74900902 -7.63989197 -0.74900902 0 0 Z " fill="#000000" transform="translate(333,341)"/>
<path d="M0 0 C2.40933732 2.17617564 2.92161237 3.40407583 3.34375 6.61328125 C2.87081429 11.2727728 0.91453844 14.44834667 -1.4375 18.4375 C-1.88617432 19.21867187 -2.33484863 19.99984375 -2.79711914 20.8046875 C-4.18520696 23.21086887 -5.59196389 25.60545119 -7 28 C-7.85472723 29.48014518 -8.7089177 30.9606005 -9.5625 32.44140625 C-10.35267117 33.79514486 -11.14426683 35.14805332 -11.9375 36.5 C-12.30222412 37.1283374 -12.66694824 37.7566748 -13.04272461 38.40405273 C-14.83570466 41.40433668 -16.0377892 43.0251928 -19 45 C-25.90410959 45.65753425 -25.90410959 45.65753425 -29.5 43.5 C-31.56752908 40.0541182 -31.47258554 36.88652818 -31 33 C-29.6105957 29.61669922 -29.6105957 29.61669922 -27.67578125 26.3046875 C-27.3325029 25.70874786 -26.98922455 25.11280823 -26.63554382 24.49880981 C-25.9113364 23.24889215 -25.17892243 22.00369638 -24.4387207 20.76318359 C-23.31670323 18.88204699 -22.21997221 16.98794792 -21.12695312 15.08984375 C-10.12166253 -3.79562345 -10.12166253 -3.79562345 0 0 Z " fill="#000000" transform="translate(352,352)"/>
<path d="M0 0 C2.54803989 3.82205984 2.86380867 6.59159713 2 11 C0.13283052 15.36914677 -2.21851673 19.40849423 -4.625 23.5 C-5.24246094 24.58925781 -5.85992187 25.67851562 -6.49609375 26.80078125 C-14.18152965 40.18152965 -14.18152965 40.18152965 -19 45 C-25.95389774 45.45599329 -25.95389774 45.45599329 -29.4375 43.9375 C-31.18746721 41.76754065 -32.05029882 39.98381451 -32.27734375 37.18359375 C-31.61685966 31.98344434 -28.57505504 27.47464695 -26 23 C-25.40324463 21.95585937 -25.40324463 21.95585937 -24.79443359 20.890625 C-13.27703908 0.82834968 -13.27703908 0.82834968 -9.6875 -1.5 C-5.95212532 -2.19495343 -3.49920674 -1.38647814 0 0 Z " fill="#000000" transform="translate(266,352)"/>
</svg>
