<svg width="512" height="512" xmlns="http://www.w3.org/2000/svg" xmlns:xlink="http://www.w3.org/1999/xlink" xml:space="preserve" overflow="hidden"><g><path d="M149.981 30.7427C150.965 30.7363 151.949 30.7298 152.963 30.7232 154.036 30.7263 155.109 30.7294 156.215 30.7326 157.361 30.728 158.507 30.7235 159.688 30.7188 162.865 30.7084 166.042 30.7069 169.22 30.7092 172.648 30.7096 176.076 30.6986 179.504 30.6891 186.219 30.6725 192.934 30.667 199.649 30.6659 205.108 30.6649 210.567 30.6608 216.026 30.6545 231.506 30.6369 246.986 30.6277 262.465 30.6292 263.717 30.6293 263.717 30.6293 264.994 30.6294 265.829 30.6295 266.665 30.6296 267.526 30.6296 281.064 30.6305 294.602 30.6113 308.141 30.5831 322.045 30.5544 335.948 30.5406 349.852 30.5423 357.657 30.543 365.462 30.5375 373.267 30.5159 379.912 30.4977 386.558 30.4934 393.203 30.507 396.593 30.5135 399.982 30.5114 403.371 30.4963 407.049 30.4809 410.726 30.4901 414.404 30.5055 415.47 30.4952 416.537 30.4849 417.636 30.4743 424.993 30.5426 430.338 31.7763 436.023 36.7812 436.469 37.3484 436.915 37.9156 437.375 38.5 438.067 39.3508 438.067 39.3508 438.773 40.2188 441.179 43.7128 442.255 46.2323 442.113 50.5112 442.091 51.4017 442.07 52.2922 442.047 53.2096 442.018 54.1691 441.988 55.1286 441.957 56.1172 440.743 86.814 440.743 86.814 454.01 113.411 457.493 117.943 460.289 122.911 463.186 127.828 464.958 130.82 466.773 133.786 468.586 136.754 469.319 137.957 470.052 139.16 470.784 140.364 472.268 142.8 473.754 145.236 475.239 147.671 479.537 154.719 483.821 161.775 488.084 168.843 489.875 171.795 491.691 174.731 493.512 177.664 494.53 179.338 495.547 181.012 496.562 182.688 497.022 183.411 497.481 184.134 497.955 184.879 502.118 191.847 501.762 198.247 499.812 206 496.082 219.58 486.777 230.401 475 238 471.04 239.98 471.04 239.98 467 242 466.67 302.72 466.34 363.44 466 426 475.57 426 485.14 426 495 426 503.007 430.576 503.007 430.576 504 434 504.267 435.966 504.267 435.966 504.291 438.047 504.303 438.831 504.316 439.615 504.329 440.424 504.333 441.682 504.333 441.682 504.336 442.965 504.343 443.835 504.349 444.706 504.356 445.602 504.366 447.44 504.371 449.279 504.371 451.117 504.375 453.924 504.411 456.73 504.449 459.537 504.455 461.326 504.459 463.114 504.461 464.902 504.482 466.157 504.482 466.157 504.504 467.438 504.474 471.384 504.303 473.499 502.221 476.944 497.938 480.909 494.792 481.251 488.981 481.257 488.271 481.261 487.56 481.264 486.829 481.268 484.437 481.277 482.045 481.272 479.652 481.267 477.925 481.271 476.198 481.276 474.47 481.281 469.713 481.293 464.957 481.293 460.2 481.291 455.074 481.29 449.948 481.301 444.822 481.311 434.775 481.328 424.728 481.333 414.682 481.334 406.518 481.335 398.354 481.339 390.19 481.346 367.057 481.363 343.925 481.372 320.793 481.371 318.921 481.371 318.921 481.371 317.012 481.371 315.762 481.371 314.513 481.37 313.226 481.37 292.974 481.37 272.722 481.389 252.47 481.417 231.689 481.446 210.908 481.459 190.127 481.458 178.454 481.457 166.782 481.463 155.109 481.484 145.172 481.502 135.235 481.507 125.298 481.493 120.226 481.486 115.154 481.486 110.082 481.504 105.441 481.519 100.8 481.517 96.1586 481.499 94.4776 481.496 92.7966 481.5 91.1156 481.511 88.8336 481.525 86.5528 481.514 84.2708 481.498 82.3682 481.498 82.3682 481.498 80.4272 481.499 76.3374 480.904 74.1947 479.58 71 477 68.5981 473.397 68.7851 470.881 68.8672 466.734 68.8664 465.272 68.8637 463.81 68.8594 462.348 68.8613 460.052 68.8748 457.758 68.9209 455.462 69.358 446.529 69.358 446.529 66.2292 438.487 64.2345 436.766 62.2221 435.403 60 434 56.6265 429.321 55.8625 425.448 55.9375 419.75 55.9465 418.858 55.9555 417.966 55.9648 417.047 55.9764 416.371 55.988 415.696 56 415 54.8244 414.505 53.6487 414.01 52.4375 413.5 47.4954 411.047 44.168 407.472 41 403 38.9593 396.878 39.1245 389.581 41.1875 383.5 43.2397 380.669 45.3636 378.298 48 376 48.66 376 49.32 376 50 376 47.5573 364.942 45.1146 353.885 42.6717 342.827 41.5373 337.692 40.4029 332.557 39.2685 327.422 38.1728 322.462 37.077 317.502 35.9812 312.542 35.5642 310.654 35.1472 308.766 34.7302 306.878 34.1439 304.224 33.5575 301.57 32.9712 298.916 32.8007 298.144 32.6302 297.373 32.4546 296.577 32.292 295.841 32.1294 295.105 31.9618 294.347 31.8055 293.635 31.6491 292.922 31.488 292.188 31.1455 290.652 30.793 289.119 30.4331 287.587 30.2495 286.797 30.0659 286.007 29.8768 285.193 29.625 284.13 29.625 284.13 29.3682 283.046 29 281 29 281 29 277 27.8192 277.046 26.6384 277.093 25.4219 277.141 23.8646 277.178 22.3073 277.215 20.75 277.25 19.9727 277.284 19.1954 277.317 18.3945 277.352 14.6205 277.416 12.6394 277.448 9.48047 275.234 7.20094 271.794 7.31245 268.986 8 265 9.74252 261.764 10.4718 261.176 14 260 17.9536 259.716 21.9124 259.722 25.875 259.688 26.9643 259.659 28.0535 259.629 29.1758 259.6 37.0914 259.537 37.0914 259.537 41.125 261.594 43.4757 264.611 44.2452 267.091 45.125 270.812 45.562 272.586 45.562 272.586 46.0078 274.395 47.4124 280.914 48.692 287.46 50 294 68.81 294 87.62 294 107 294 106.67 276.84 106.34 259.68 106 242 102.37 240.02 98.74 238.04 95 236 83.8305 227.71 75.4687 216.926 72.3672 203.199 71.4996 195.64 71.5329 190.399 75.6875 183.75 76.0905 183.07 76.4935 182.39 76.9087 181.689 78.2494 179.445 79.6206 177.221 81 175 81.4607 174.253 81.9214 173.506 82.396 172.736 84.4191 169.458 86.448 166.183 88.4902 162.916 93.6868 154.583 98.6909 146.141 103.688 137.688 120.523 109.216 120.523 109.216 124.27 104.352 128.53 98.4778 128.678 93.4404 128.566 86.3438 128.572 85.242 128.578 84.1403 128.583 83.0052 128.6 79.5031 128.584 76.0021 128.562 72.5 128.546 68.998 128.537 65.4968 128.552 61.9948 128.561 59.8221 128.553 57.6494 128.523 55.4769 128.549 48.0435 129.753 42.7627 134.746 36.9766 135.304 36.5305 135.862 36.0845 136.438 35.625 136.993 35.1635 137.549 34.702 138.121 34.2266 141.955 31.724 145.428 30.7503 149.981 30.7427ZM146 51C146 62.88 146 74.76 146 87 238.4 87 330.8 87 426 87 427.355 67.5464 427.355 67.5464 424 49 421.615 47.8076 420.161 47.8726 417.499 47.8686 416.069 47.8628 416.069 47.8628 414.611 47.8569 413.556 47.8578 412.502 47.8587 411.416 47.8596 410.301 47.8566 409.187 47.8536 408.039 47.8506 404.279 47.8418 400.52 47.8404 396.76 47.8389 394.075 47.8342 391.39 47.8292 388.705 47.8238 381.393 47.8102 374.081 47.8042 366.769 47.7998 362.207 47.7971 357.644 47.7928 353.081 47.7883 340.457 47.7761 327.832 47.7658 315.207 47.7624 314.398 47.7622 313.59 47.762 312.757 47.7618 311.947 47.7616 311.137 47.7613 310.302 47.7611 308.66 47.7607 307.018 47.7602 305.376 47.7598 304.561 47.7595 303.747 47.7593 302.907 47.7591 289.702 47.7551 276.496 47.7377 263.29 47.7144 249.743 47.6907 236.195 47.6782 222.647 47.6771 215.036 47.6761 207.425 47.6704 199.815 47.6522 193.335 47.6369 186.856 47.6317 180.377 47.64 177.069 47.6439 173.762 47.6413 170.454 47.6289 166.873 47.6163 163.293 47.622 159.711 47.6325 158.659 47.6245 157.607 47.6164 156.523 47.6081 155.09 47.618 155.09 47.618 153.627 47.6281 152.8 47.6275 151.973 47.6269 151.121 47.6263 148.557 47.8689 148.557 47.8689 146 51ZM141.414 108.183C140.574 109.771 139.766 111.376 139 113 138.354 114.028 137.709 115.057 137.044 116.116 136.478 117.051 135.911 117.986 135.328 118.949 134.673 120.03 134.017 121.111 133.342 122.224 132.644 123.379 131.947 124.533 131.25 125.688 130.512 126.906 129.774 128.125 129.035 129.344 122.738 139.747 116.481 150.173 110.241 160.61 104.518 170.175 104.518 170.175 101.696 174.731 101.323 175.333 100.95 175.935 100.566 176.555 99.5311 178.222 98.4924 179.888 97.4534 181.553 95.9149 183.669 95.9149 183.669 96 185 122.73 185 149.46 185 177 185 178.857 180.667 180.477 176.789 181.822 172.35 182.146 171.288 182.47 170.225 182.804 169.131 183.144 167.998 183.485 166.866 183.836 165.699 184.197 164.509 184.558 163.318 184.931 162.092 185.888 158.932 186.842 155.771 187.795 152.609 188.747 149.454 189.706 146.3 190.664 143.146 194.604 130.14 198.459 117.121 202 104 194.672 103.791 187.345 103.631 180.015 103.534 176.611 103.487 173.209 103.423 169.806 103.321 165.889 103.204 161.973 103.161 158.055 103.121 156.839 103.075 155.623 103.028 154.37 102.98 148.4 102.977 144.91 103.012 141.414 108.183ZM220 104C218.055 109.187 216.251 114.224 214.64 119.502 214.425 120.204 214.21 120.905 213.988 121.628 213.288 123.917 212.591 126.206 211.895 128.496 211.406 130.097 210.917 131.697 210.428 133.297 209.408 136.635 208.391 139.972 207.374 143.31 206.069 147.598 204.76 151.884 203.45 156.169 202.443 159.466 201.437 162.763 200.431 166.06 199.949 167.641 199.466 169.223 198.983 170.805 198.311 173.004 197.641 175.204 196.972 177.404 196.59 178.657 196.208 179.91 195.815 181.2 194.953 183.674 194.953 183.674 195 185 222.39 185 249.78 185 278 185 278 158.27 278 131.54 278 104 258.86 104 239.72 104 220 104ZM295 104C295 130.73 295 157.46 295 185 322.39 185 349.78 185 378 185 370.119 157.849 370.119 157.849 361.967 130.781 360.968 127.519 359.974 124.256 358.98 120.992 358.341 118.904 357.702 116.815 357.062 114.727 356.768 113.757 356.473 112.788 356.169 111.789 355.898 110.908 355.627 110.027 355.348 109.12 355.111 108.345 354.873 107.57 354.629 106.772 354.143 104.999 354.143 104.999 353 104 351.189 103.906 349.375 103.883 347.562 103.886 346.385 103.887 345.207 103.887 343.994 103.887 342.747 103.892 341.5 103.897 340.215 103.902 338.506 103.904 338.506 103.904 336.763 103.905 332.488 103.911 328.213 103.925 323.938 103.938 314.388 103.958 304.839 103.979 295 104ZM371 104C375.481 119.978 380.242 135.867 385.088 151.737 386.125 155.133 387.157 158.53 388.188 161.928 389.181 165.198 390.179 168.466 391.176 171.734 391.546 172.954 391.915 174.173 392.296 175.43 392.637 176.543 392.978 177.657 393.329 178.804 393.629 179.786 393.928 180.769 394.237 181.781 394.8 183.946 394.8 183.946 396 185 398.525 185.095 401.023 185.126 403.549 185.114 404.339 185.114 405.129 185.114 405.944 185.114 408.568 185.113 411.192 185.105 413.816 185.098 415.631 185.096 417.446 185.094 419.26 185.093 424.046 185.09 428.832 185.08 433.617 185.069 438.497 185.058 443.376 185.054 448.256 185.049 457.837 185.038 467.419 185.021 477 185 473.89 179.244 470.788 173.503 467.363 167.926 466.713 166.862 466.062 165.797 465.392 164.701 464.706 163.583 464.02 162.464 463.312 161.312 458.458 153.377 453.639 145.422 448.91 137.41 448.489 136.696 448.067 135.983 447.633 135.247 445.586 131.781 443.544 128.311 441.509 124.837 440.754 123.555 439.998 122.274 439.242 120.992 438.591 119.882 437.94 118.772 437.269 117.628 436.915 117.071 436.56 116.514 436.195 115.94 435.28 114.455 434.442 112.923 433.64 111.374 430.526 105.959 430.526 105.959 425.178 103.133 421.692 102.841 418.343 102.874 414.848 103.023 413.592 103.038 412.337 103.052 411.044 103.066 407.725 103.113 404.413 103.202 401.096 103.313 397.705 103.416 394.313 103.461 390.92 103.512 384.278 103.622 377.639 103.789 371 104ZM90 202C96.3367 214.673 101.952 222.093 115 227 128.937 231.164 142.026 230.758 155.234 224.457 165.069 218.521 169.323 212.524 174 202 146.28 202 118.56 202 90 202ZM193 202C197.971 213.186 203.553 221.058 215 226 229.851 231.034 243.867 231.311 258.234 224.457 268.069 218.521 272.323 212.524 277 202 249.28 202 221.56 202 193 202ZM296 202C300.971 213.186 306.553 221.058 318 226 332.851 231.034 346.867 231.311 361.234 224.457 371.069 218.521 375.323 212.524 380 202 352.28 202 324.56 202 296 202ZM399 202C403.971 213.186 409.553 221.058 421 226 435.851 231.034 449.867 231.311 464.234 224.457 474.069 218.521 478.323 212.524 483 202 455.28 202 427.56 202 399 202ZM183 221C182.381 221.744 182.381 221.744 181.75 222.504 171.531 234.525 158.925 243.412 142.84 245.246 140.643 245.414 138.451 245.531 136.25 245.625 135.509 245.664 134.768 245.702 134.004 245.742 130.664 245.91 127.345 246 124 246 124 261.84 124 277.68 124 294 138.778 294.131 138.778 294.131 153.557 294.208 155.423 294.234 157.29 294.263 159.156 294.293 160.109 294.289 161.061 294.285 162.042 294.281 170.042 294.45 174.693 296.941 180.5 302.312 180.995 302.869 181.49 303.426 182 304 182.02 303.264 182.04 302.527 182.06 301.769 182.155 298.429 182.265 295.089 182.375 291.75 182.406 290.591 182.437 289.432 182.469 288.238 182.507 287.123 182.546 286.008 182.586 284.859 182.617 283.833 182.649 282.807 182.681 281.749 183 279 183.503 277.311 185 275 188.099 273.45 191.374 273.859 194.775 273.866 195.587 273.864 196.4 273.862 197.236 273.859 199.973 273.853 202.71 273.854 205.447 273.855 207.403 273.852 209.359 273.848 211.315 273.845 216.639 273.836 221.964 273.833 227.288 273.833 231.727 273.832 236.165 273.828 240.604 273.825 251.072 273.816 261.54 273.814 272.008 273.815 282.821 273.815 293.634 273.805 304.447 273.789 313.719 273.776 322.99 273.771 332.262 273.771 337.804 273.771 343.347 273.769 348.89 273.758 354.101 273.748 359.312 273.748 364.523 273.755 366.439 273.757 368.356 273.754 370.272 273.748 372.88 273.74 375.489 273.745 378.098 273.753 378.862 273.748 379.626 273.742 380.414 273.737 384.16 273.762 385.8 273.867 389 276 390.809 281.426 390.27 287.26 390.312 292.938 390.341 294.226 390.37 295.514 390.4 296.842 390.409 298.079 390.417 299.316 390.426 300.59 390.448 302.289 390.448 302.289 390.47 304.023 389.893 307.679 388.935 308.807 386 311 384.68 311.33 383.36 311.66 382 312 382 349.62 382 387.24 382 426 404.11 426 426.22 426 449 426 449 366.6 449 307.2 449 246 445.04 246 441.08 246 437 246 418.424 244.634 403.513 236.503 391 223 390.34 222.34 389.68 221.68 389 221 388.443 221.652 387.886 222.305 387.312 222.977 376.027 235.901 362.343 244.356 344.913 245.634 327.174 246.612 311.397 242.904 297 232 294.18 229.461 291.57 226.788 289 224 288.005 222.995 287.006 221.994 286 221 285.587 221.496 285.175 221.993 284.75 222.504 273.964 235.192 260.852 243.77 243.957 245.484 225.515 246.837 209.025 243.38 194 232 191.18 229.461 188.57 226.788 186 224 185.005 222.995 184.006 221.994 183 221ZM199 290C199 291.65 199 293.3 199 295 256.75 295 314.5 295 374 295 374 293.35 374 291.7 374 290 316.25 290 258.5 290 199 290ZM184 310C183.767 311.236 183.533 312.472 183.293 313.746 180.475 328.365 177.333 342.913 174.117 357.449 173.622 359.691 173.131 361.934 172.643 364.178 171.947 367.377 171.237 370.574 170.523 373.77 170.209 375.228 170.209 375.228 169.889 376.715 169.583 378.066 169.583 378.066 169.271 379.445 169.097 380.231 168.924 381.017 168.745 381.827 167.779 384.646 167.304 386.027 165 388 161.698 388.615 158.419 388.543 155.068 388.514 154.049 388.521 153.029 388.528 151.978 388.536 148.6 388.555 145.222 388.547 141.844 388.539 139.501 388.549 137.158 388.561 134.816 388.575 128.642 388.607 122.469 388.618 116.295 388.622 106.412 388.63 96.5295 388.666 86.6469 388.714 83.1885 388.726 79.7303 388.726 76.2718 388.724 74.1584 388.73 72.045 388.737 69.9316 388.745 68.9653 388.741 67.999 388.736 67.0034 388.732 66.1201 388.738 65.2368 388.743 64.3268 388.748 63.1753 388.749 63.1753 388.749 62.0006 388.749 59.6833 388.888 59.6833 388.888 57 391 56.5 393.5 56.5 393.5 57 396 60.0524 398.035 60.6378 398.25 64.0653 398.252 64.8909 398.257 65.7165 398.262 66.5671 398.268 67.9206 398.262 67.9206 398.262 69.3015 398.255 70.2547 398.259 71.2079 398.263 72.19 398.266 74.2623 398.273 76.3347 398.276 78.4071 398.274 81.6903 398.273 84.9732 398.286 88.2564 398.303 97.5922 398.35 106.928 398.374 116.264 398.381 121.973 398.386 127.682 398.41 133.392 398.446 135.565 398.456 137.738 398.458 139.911 398.453 142.959 398.446 146.005 398.463 149.052 398.486 149.944 398.478 150.836 398.47 151.755 398.461 158.578 398.551 164.118 400.151 169.059 405.035 169.514 405.704 169.969 406.373 170.438 407.062 170.911 407.734 171.384 408.406 171.871 409.098 174.91 414.218 174.564 420.212 175 426 180.61 426 186.22 426 192 426 192 388.38 192 350.76 192 312 189.36 311.34 186.72 310.68 184 310ZM54 311C54.6007 315.806 55.1705 320.203 56.2151 324.865 56.5804 326.508 56.5804 326.508 56.953 328.185 57.207 329.31 57.461 330.435 57.7226 331.594 57.9575 332.647 58.1924 333.701 58.4344 334.786 59.3064 338.692 60.1848 342.596 61.0625 346.5 63.0219 355.245 64.9812 363.99 67 373 95.71 373 124.42 373 154 373 157.279 358.769 157.279 358.769 160.625 344.25 161.322 341.258 162.019 338.267 162.737 335.185 163.276 332.816 163.814 330.447 164.352 328.078 164.788 326.23 164.788 326.23 165.233 324.345 165.629 322.58 165.629 322.58 166.034 320.778 166.269 319.757 166.504 318.735 166.747 317.683 167.271 314.66 167.271 314.66 165 311 128.37 311 91.74 311 54 311ZM208 312C208 349.62 208 387.24 208 426 231.1 426 254.2 426 278 426 278 388.38 278 350.76 278 312 254.9 312 231.8 312 208 312ZM295 312C295 349.62 295 387.24 295 426 318.1 426 341.2 426 365 426 365 388.38 365 350.76 365 312 341.9 312 318.8 312 295 312ZM74 416.062C72.4836 419.001 73.0771 420.902 74 424 76.7589 426.296 76.7589 426.296 79.5625 425.75 82.15 425.162 82.15 425.162 84 423 83.6767 419.403 83.6767 419.403 83 416 78.3837 414.858 78.3837 414.858 74 416.062ZM101 415C101 418.63 101 422.26 101 426 110.57 426 120.14 426 130 426 130 422.37 130 418.74 130 415 120.43 415 110.86 415 101 415ZM148.062 416.125C146.639 418.636 146.573 420.155 147 423 148.083 424.917 148.083 424.917 150 426 152.845 426.427 154.364 426.361 156.875 424.938 158.648 421.884 157.692 419.336 157 416 152.39 414.83 152.39 414.83 148.062 416.125ZM86 443C86 449.93 86 456.86 86 464 218.66 464 351.32 464 488 464 488 457.07 488 450.14 488 443 355.34 443 222.68 443 86 443Z" fill="#FFFFFF"/><path d="M197.525 58.5959C198.171 58.5891 198.817 58.5822 199.483 58.5751 201.612 58.5569 203.741 58.5607 205.871 58.5664 207.356 58.5618 208.84 58.5565 210.324 58.5505 213.434 58.5416 216.543 58.544 219.653 58.554 223.632 58.5654 227.61 58.5452 231.589 58.516 234.655 58.4977 237.72 58.498 240.785 58.5037 242.252 58.5038 243.719 58.4978 245.185 58.4854 247.239 58.4705 249.292 58.4812 251.345 58.4983 252.513 58.4985 253.68 58.4986 254.882 58.4988 258.652 59.1048 260.311 60.3378 263 63 264.154 66.0003 264.126 67.5195 263.312 70.625 261.79 73.3793 260.703 74.3997 258 76 255.009 76.3877 255.009 76.3877 251.475 76.4041 250.829 76.4109 250.183 76.4178 249.517 76.4249 247.388 76.4431 245.259 76.4393 243.129 76.4336 241.644 76.4382 240.16 76.4435 238.676 76.4495 235.566 76.4584 232.457 76.456 229.347 76.446 225.368 76.4346 221.39 76.4548 217.411 76.484 214.345 76.5023 211.28 76.502 208.215 76.4963 206.748 76.4962 205.281 76.5022 203.815 76.5146 201.761 76.5295 199.708 76.5188 197.655 76.5017 196.487 76.5015 195.32 76.5014 194.118 76.5012 190.348 75.8952 188.689 74.6622 186 72 184.846 68.9997 184.874 67.4805 185.688 64.375 188.551 59.1943 191.84 58.6223 197.525 58.5959Z" fill="#FFFFFF"/><path d="M321.639 58.4824C322.285 58.4754 322.931 58.4684 323.597 58.4612 325.721 58.4437 327.844 58.4552 329.969 58.4688 331.452 58.4661 332.935 58.4622 334.418 58.4572 337.521 58.4513 340.625 58.4598 343.728 58.4785 347.699 58.5013 351.67 58.4882 355.641 58.4642 358.702 58.4497 361.763 58.4544 364.824 58.4647 366.288 58.4674 367.752 58.4642 369.216 58.4548 371.265 58.4446 373.312 58.4602 375.361 58.4824 376.525 58.4856 377.689 58.4888 378.889 58.4921 382.65 59.1062 384.314 60.3437 387 63 388.154 66.0003 388.126 67.5195 387.312 70.625 385.79 73.3793 384.703 74.3997 382 76 379.009 76.3877 379.009 76.3877 375.475 76.4041 374.829 76.4109 374.183 76.4178 373.517 76.4249 371.388 76.4431 369.259 76.4393 367.129 76.4336 365.644 76.4382 364.16 76.4435 362.676 76.4495 359.566 76.4584 356.457 76.456 353.347 76.446 349.368 76.4346 345.39 76.4548 341.411 76.484 338.345 76.5023 335.28 76.502 332.215 76.4963 330.748 76.4962 329.281 76.5022 327.815 76.5146 325.761 76.5295 323.708 76.5188 321.655 76.5017 320.487 76.5015 319.32 76.5014 318.118 76.5012 314.354 75.8961 312.683 74.6602 310 72 309.336 69.7812 309.336 69.7812 309.375 67.5 309.362 66.7472 309.349 65.9944 309.336 65.2188 311.087 59.367 316.214 58.4973 321.639 58.4824Z" fill="#FFFFFF"/><path d="M247 341C249.875 343.062 249.875 343.062 252 346 252.54 351.428 251.564 354.646 248.895 359.344 248.413 360.203 248.413 360.203 247.922 361.079 247.243 362.283 246.558 363.483 245.866 364.679 244.82 366.488 243.794 368.307 242.771 370.129 233.729 386.136 233.729 386.136 230 388 225.667 388.491 223.68 388.477 220.062 385.938 217.462 382.233 217.613 380.462 218 376 219.282 372.946 219.282 372.946 221.07 369.91 222.045 368.239 222.045 368.239 223.039 366.533 223.382 365.962 223.725 365.391 224.079 364.803 225.115 363.079 226.13 361.343 227.141 359.604 238.68 340.021 238.68 340.021 247 341Z" fill="#FFFFFF"/><path d="M333 341C336.527 342.96 337.746 344.18 338.945 348.051 339.022 353.593 336.845 356.945 334.062 361.625 333.559 362.501 333.056 363.378 332.537 364.281 331.044 366.866 329.525 369.434 328 372 327.208 373.363 326.416 374.726 325.625 376.09 320.025 385.563 320.025 385.563 316 388 312.312 388.549 310.467 388.234 307.125 386.562 304.618 383.54 304.417 381.536 304.514 377.664 305.514 372.184 308.718 367.667 311.625 363 312.242 361.971 312.86 360.943 313.496 359.883 325.36 340.251 325.36 340.251 333 341Z" fill="#FFFFFF"/><path d="M352 352C354.409 354.176 354.922 355.404 355.344 358.613 354.871 363.273 352.915 366.448 350.562 370.438 350.114 371.219 349.665 372 349.203 372.805 347.815 375.211 346.408 377.605 345 380 344.145 381.48 343.291 382.961 342.438 384.441 341.647 385.795 340.856 387.148 340.062 388.5 339.698 389.128 339.333 389.757 338.957 390.404 337.164 393.404 335.962 395.025 333 397 326.096 397.658 326.096 397.658 322.5 395.5 320.432 392.054 320.527 388.887 321 385 322.389 381.617 322.389 381.617 324.324 378.305 324.668 377.709 325.011 377.113 325.364 376.499 326.089 375.249 326.821 374.004 327.561 372.763 328.683 370.882 329.78 368.988 330.873 367.09 341.878 348.204 341.878 348.204 352 352Z" fill="#FFFFFF"/><path d="M266 352C268.548 355.822 268.864 358.592 268 363 266.133 367.369 263.781 371.409 261.375 375.5 260.758 376.589 260.14 377.679 259.504 378.801 251.818 392.182 251.818 392.182 247 397 240.046 397.456 240.046 397.456 236.562 395.938 234.813 393.768 233.95 391.984 233.723 389.184 234.383 383.983 237.425 379.475 240 375 240.597 373.956 240.597 373.956 241.206 372.891 252.723 352.828 252.723 352.828 256.312 350.5 260.048 349.805 262.501 350.614 266 352Z" fill="#FFFFFF"/></g></svg>