<svg width="683" height="683" xmlns="http://www.w3.org/2000/svg" xmlns:xlink="http://www.w3.org/1999/xlink" xml:space="preserve" overflow="hidden"><g transform="translate(-298 -18)"><path d="M245.453 682.2C196.363 678.598 146.605 659.922 107.386 630.441 50.2912 587.62 14.5404 527.858 3.20156 456.089 0.266797 437.28 0.266797 397.794 3.20156 378.985 22.1441 259.327 113.255 170.617 233.314 154.742 249.455 152.608 283.605 153.008 301.347 155.409 335.497 160.212 373.115 173.285 399.528 189.426 404.331 192.361 408.733 194.762 409.266 194.762 409.667 194.762 451.821 153.008 502.912 102.05 604.428 0.666992 600.293 4.26875 619.636 0.933789 655.253-5.20254 687.802 27.7469 681.799 63.6311 678.598 82.3068 681.399 79.1053 580.417 180.355L487.705 273.467 490.773 278.403C497.576 289.875 512.383 321.624 516.252 333.496 531.059 378.185 533.861 431.277 523.589 475.565 511.716 526.924 485.971 572.546 449.019 607.897 408.066 647.116 360.976 670.594 305.482 679.665 292.543 681.666 258.66 683.133 245.453 682.2ZM300.813 659.522C409.533 643.381 493.841 556.938 507.581 447.552 513.451 401.129 505.714 354.84 485.037 311.485 481.168 303.481 475.299 292.676 471.964 287.474 465.561 277.335 449.419 257.859 436.346 244.386 431.811 239.717 427.809 234.514 427.409 232.647 425.674 226.11 434.079 218.907 440.615 221.308 443.55 222.509 459.157 238.116 469.296 250.122L474.898 256.792 565.609 166.081C663.257 68.4334 661.79 70.1676 661.923 56.1607 661.923 46.1559 659.522 39.4859 652.985 32.2824 645.915 24.5453 638.578 21.077 628.307 20.9436 613.099 20.8102 618.435 16.1412 514.918 119.392 462.492 171.684 418.071 215.438 416.203 216.639 411.134 219.974 408.733 219.307 396.327 211.57 298.012 149.94 173.018 164.08 91.7781 245.72 45.8891 292.009 21.2104 351.905 21.2104 417.537 21.2104 484.103 45.6223 543.198 92.7119 590.422 147.805 645.648 223.709 670.861 300.813 659.522Z" fill="#FFFFFF" transform="matrix(1 0 0 -1 298 701)"/><path d="M244.786 624.171C209.969 620.436 175.152 607.497 146.605 587.62 130.464 576.281 105.251 550.535 94.4461 534.261 77.9047 509.315 66.966 482.502 61.7635 454.622 58.1617 435.546 58.5619 397.261 62.5639 378.852 75.1033 320.156 108.72 271.733 158.077 241.451 190.493 221.575 226.644 211.703 266.797 211.837 301.614 211.97 331.629 219.307 361.51 234.915 429.676 270.665 472.23 341.1 472.23 418.204 472.23 493.307 432.745 561.074 367.246 598.425 353.639 606.163 347.103 606.029 344.035 598.025 341.633 591.622 344.435 588.154 358.842 579.75 412.068 548.268 445.417 495.975 451.154 434.746 456.089 381.119 436.88 326.96 398.995 288.407 386.189 275.201 376.184 267.33 361.51 258.393 310.685 227.578 244.119 223.442 190.36 247.721 98.7149 289.074 56.0273 392.858 92.1783 486.237 114.723 544.532 165.147 586.953 228.778 601.227 237.049 602.961 245.987 603.628 268.798 603.761 284.939 603.895 298.946 604.028 299.746 604.162 300.68 604.162 302.281 606.029 303.481 608.297 305.216 611.765 305.349 612.832 303.615 616.834 301.347 622.17 300.547 622.571 284.139 624.305 269.598 625.772 259.994 625.772 244.786 624.171Z" fill="#FFFFFF" transform="matrix(1 0 0 -1 298 701)"/></g></svg>