<svg width="624" height="624" xmlns="http://www.w3.org/2000/svg" xmlns:xlink="http://www.w3.org/1999/xlink" xml:space="preserve" overflow="hidden"><g><path d="M268.125 618.759C266.419 617.906 264.469 615.834 263.616 614.25 262.884 612.544 259.959 596.334 257.034 578.175L251.794 545.269 237.656 540.759C229.856 538.2 215.841 532.472 206.456 527.841L189.516 519.553 183.422 524.062C149.175 549.413 132.356 560.625 128.822 560.625 125.531 560.625 121.388 556.969 94.8188 530.522 78.1219 513.825 64.2281 499.078 63.8625 497.616 63.375 496.031 63.4969 493.594 63.8625 492.131 64.2281 490.547 73.6125 477.019 84.4594 461.906L104.447 434.484 96.0375 417.422C91.5281 408.159 85.8 394.144 83.2406 386.344L78.7313 372.206 44.1188 366.6C14.8688 361.847 9.01875 360.506 6.825 358.434 4.26562 355.875 4.26562 355.022 4.26562 312 4.26562 268.978 4.26562 268.125 6.825 265.566 9.01875 263.494 14.8688 262.153 44.1188 257.4L78.7313 251.794 83.3625 237.413C85.8 229.613 91.65 215.597 96.1594 206.334L104.447 189.638 88.6031 167.7C63.7406 133.209 63.375 132.722 63.375 128.7 63.375 125.531 67.3969 121.022 93.6 94.8188 110.175 78.1219 124.922 64.2281 126.506 63.8625 127.969 63.375 130.406 63.4969 131.991 63.8625 133.453 64.2281 147.103 73.4906 162.216 84.4594L189.638 104.447 206.456 96.1594C215.597 91.65 229.613 85.8 237.534 83.3625L251.794 78.7313 257.034 45.825C259.959 27.6656 262.884 11.4563 263.616 9.75 266.419 3.9 268.369 3.65625 312 3.65625 355.631 3.65625 357.581 3.9 360.384 9.75 361.116 11.4563 364.041 27.6656 366.966 45.825L372.206 78.7313 386.466 83.3625C394.388 85.8 408.403 91.65 417.666 96.1594L434.363 104.447 456.3 88.6031C490.791 63.7406 491.278 63.375 495.3 63.375 498.469 63.375 502.978 67.3969 529.181 93.6 545.878 110.175 559.772 124.922 560.138 126.506 560.625 127.969 560.503 130.406 560.138 131.991 559.772 133.453 550.388 146.981 539.541 162.094L519.553 189.516 527.963 206.578C532.472 215.841 538.2 229.856 540.759 237.656L545.269 251.794 578.175 257.034C596.334 259.959 612.544 262.884 614.25 263.616 620.1 266.419 620.344 268.369 620.344 312 620.344 355.631 620.1 357.581 614.25 360.384 612.544 361.116 596.334 364.041 578.175 366.966L545.269 372.206 540.759 386.344C538.2 394.144 532.472 408.159 527.963 417.422L519.553 434.484 539.541 461.906C550.388 477.019 559.772 490.547 560.138 492.131 560.503 493.594 560.625 496.031 560.138 497.616 559.772 499.078 545.878 513.825 529.181 530.522 502.978 556.603 498.469 560.625 495.3 560.625 491.278 560.625 490.791 560.259 456.3 535.397L434.363 519.553 417.666 527.841C408.403 532.35 394.388 538.2 386.466 540.638L372.206 545.269 366.966 578.175C364.041 596.334 361.116 612.544 360.384 614.25 357.581 620.1 355.631 620.344 312 620.344 281.531 620.344 270.441 619.978 268.125 618.759ZM346.978 565.5C349.903 547.706 352.828 531.984 353.559 530.522 355.144 527.597 357.216 526.622 371.109 522.722 385.856 518.578 406.331 510.047 419.494 502.734 426.928 498.469 432.656 496.031 435.094 496.031 438.141 496.031 444.356 499.931 465.075 514.922 479.456 525.403 491.888 534.178 492.741 534.544 495.056 535.397 535.519 494.203 534.3 492.253 533.812 491.278 524.916 478.969 514.678 464.709 500.053 444.356 496.031 438.019 496.031 435.094 496.031 432.656 498.591 426.684 502.734 419.25 509.925 406.453 518.578 385.734 522.112 372.938 525.891 359.166 527.719 355.022 530.522 353.681 531.984 352.828 547.706 349.903 565.5 346.978L597.797 341.859 597.797 312 597.797 282.141 565.5 277.022C547.706 274.097 531.984 271.172 530.522 270.319 527.719 268.856 526.622 266.541 521.016 248.016 516.263 232.416 510.291 218.156 502.613 204.628 498.469 197.194 496.031 191.344 496.031 188.906 496.031 185.859 500.053 179.522 515.044 158.925 525.403 144.422 534.178 131.991 534.544 131.259 535.397 128.944 494.203 88.4813 492.253 89.7 491.278 90.1875 478.969 99.0844 464.709 109.322 444.356 124.069 438.141 127.969 435.094 127.969 432.656 127.969 426.806 125.531 419.494 121.388 405.478 113.466 391.706 107.738 374.156 102.375 356.241 96.8906 355.144 96.4031 353.559 93.4781 352.828 92.0156 349.903 76.2938 346.978 58.5L341.738 26.2031 312 26.2031 282.263 26.2031 277.022 58.5C274.097 76.2938 271.172 92.0156 270.319 93.4781 269.587 95.0625 266.663 97.0125 263.981 97.8656 261.178 98.8406 252.159 101.766 243.75 104.569 226.809 110.053 217.303 114.197 202.922 122.363 196.828 125.897 191.709 127.969 189.15 127.969 185.859 127.969 180.253 124.434 159.291 109.322 145.031 99.0844 132.722 90.1875 131.747 89.7 129.797 88.4813 88.6031 128.944 89.4563 131.259 89.8219 131.991 98.5969 144.422 108.956 158.925 123.947 179.522 127.969 185.859 127.969 188.906 127.969 191.344 125.409 197.316 121.266 204.75 113.709 218.156 105.422 238.266 101.278 252.891 97.3781 266.784 96.4031 268.856 93.4781 270.441 92.0156 271.172 76.2938 274.097 58.5 277.022L26.2031 282.263 26.2031 312 26.2031 341.738 58.5 346.978C76.2938 349.903 92.0156 352.828 93.4781 353.559 96.4031 355.144 97.3781 357.216 101.278 371.109 105.422 385.734 113.709 405.844 121.266 419.25 125.409 426.684 127.969 432.656 127.969 435.094 127.969 438.019 123.947 444.356 109.322 464.709 99.0844 478.969 90.1875 491.278 89.7 492.253 88.4813 494.203 128.944 535.397 131.259 534.544 131.991 534.178 144.422 525.403 158.925 515.044 179.887 499.809 185.859 496.031 189.028 496.031 191.588 496.031 197.194 498.469 204.872 502.734 217.547 509.925 238.144 518.578 251.062 522.112 264.225 525.769 268.613 527.597 270.197 529.913 270.928 531.253 273.853 546.487 276.656 563.794 279.459 581.1 281.897 596.091 282.141 596.944 282.628 598.163 289.209 598.406 312.244 598.163L341.859 597.797 346.978 565.5Z" fill="#FFFFFF" transform="matrix(1 0 0 -1 0 624)"/><path d="M292.744 477.75C219.619 468.488 162.216 414.619 147.956 341.738 145.031 326.869 145.031 297.131 147.956 282.263 155.634 242.775 175.622 208.894 205.359 184.153 272.269 128.944 368.062 133.088 429 193.781 453.009 217.669 468.366 245.944 475.434 279.094 478.969 295.913 479.334 325.528 476.044 341.738 464.222 401.578 423.638 449.353 367.697 469.097 345.516 476.897 314.559 480.431 292.744 477.75ZM343.688 453.497C393.291 442.163 434.119 404.991 449.597 357.337 454.959 340.763 456.422 331.256 456.422 312 456.422 292.744 454.959 283.359 449.475 266.419 435.703 223.763 400.116 188.297 357.337 174.403 340.763 169.041 331.256 167.578 312 167.578 286.163 167.578 266.175 172.331 244.969 183.544 198.9 207.797 170.016 253.256 167.334 305.297 163.556 379.519 216.816 443.991 291.891 455.812 303.103 457.519 331.622 456.3 343.688 453.497Z" fill="#FFFFFF" transform="matrix(1 0 0 -1 0 624)"/><path d="M340.763 422.541C335.766 417.544 336.741 408.891 342.591 405.844 343.931 405.113 348.441 403.894 352.584 403.284 368.672 400.725 387.928 387.684 397.312 372.938 402.066 365.503 405.844 353.925 405.844 346.734 405.844 339.788 407.916 335.4 412.059 333.206 417.178 330.647 420.225 331.134 424.369 335.278 428.147 338.934 428.147 339.056 427.416 349.172 426.562 360.872 422.663 373.547 416.569 383.541 403.772 404.869 375.497 423.272 352.584 424.978 344.419 425.588 343.688 425.466 340.763 422.541Z" fill="#FFFFFF" transform="matrix(1 0 0 -1 0 624)"/></g></svg>