<?xml version="1.0" standalone="no"?>
<!DOCTYPE svg PUBLIC "-//W3C//DTD SVG 20010904//EN"
 "http://www.w3.org/TR/2001/REC-SVG-20010904/DTD/svg10.dtd">
<svg version="1.0" xmlns="http://www.w3.org/2000/svg"
 width="512.000000pt" height="512.000000pt" viewBox="0 0 512.000000 512.000000"
 preserveAspectRatio="xMidYMid meet">

<g transform="translate(0.000000,512.000000) scale(0.100000,-0.100000)"
fill="#000000" stroke="none">
<path d="M2200 5077 c-14 -7 -30 -24 -37 -37 -6 -14 -30 -147 -54 -296 l-43
-270 -116 -37 c-64 -21 -179 -68 -256 -106 l-139 -68 -50 37 c-281 208 -419
300 -448 300 -27 0 -61 -30 -279 -247 -137 -137 -251 -258 -254 -270 -4 -13
-3 -33 0 -45 3 -13 80 -124 169 -248 l164 -225 -69 -140 c-37 -76 -84 -191
-105 -255 l-37 -116 -284 -46 c-240 -39 -288 -50 -306 -67 -21 -21 -21 -28
-21 -381 0 -353 0 -360 21 -381 18 -17 66 -28 306 -67 l284 -46 38 -118 c20
-64 68 -179 105 -255 l68 -137 -130 -180 c-204 -283 -207 -287 -207 -320 0
-26 33 -63 248 -278 136 -137 257 -251 270 -254 12 -4 32 -3 45 0 12 3 124 79
248 169 l225 164 138 -68 c75 -37 190 -85 255 -105 l117 -38 43 -270 c24 -149
48 -282 54 -296 23 -48 39 -50 397 -50 358 0 374 2 397 50 6 14 30 147 54 296
l43 270 117 38 c65 20 180 68 256 105 l137 68 180 -130 c283 -204 287 -207
320 -207 26 0 63 33 278 248 137 136 251 257 254 270 4 12 3 32 0 45 -3 12
-80 123 -169 247 l-164 225 69 140 c37 76 84 191 105 255 l37 116 270 43 c149
24 282 48 296 54 48 23 50 39 50 397 0 358 -2 374 -50 397 -14 6 -147 30 -296
54 l-270 43 -37 116 c-21 64 -68 179 -105 255 l-69 140 164 225 c89 124 166
235 169 248 3 12 4 32 0 45 -3 12 -117 133 -254 270 -215 214 -252 247 -278
247 -33 0 -37 -3 -320 -207 l-180 -130 -137 68 c-76 37 -191 85 -256 105
l-117 38 -43 270 c-24 149 -48 282 -54 296 -23 48 -39 50 -397 50 -250 0 -341
-3 -360 -13z m647 -437 c24 -146 48 -275 54 -287 13 -24 30 -32 144 -64 121
-34 289 -104 397 -164 61 -35 108 -55 128 -55 25 0 76 32 246 155 118 86 220
158 227 161 19 7 351 -331 341 -347 -4 -8 -77 -109 -161 -226 -120 -167 -153
-219 -153 -243 0 -20 21 -69 55 -130 59 -105 130 -275 159 -380 31 -113 46
-147 69 -158 12 -7 141 -31 287 -55 l265 -42 0 -245 0 -245 -265 -42 c-146
-24 -275 -48 -287 -55 -23 -12 -32 -31 -78 -183 -39 -128 -88 -245 -151 -356
-34 -61 -54 -109 -54 -129 0 -25 33 -77 156 -246 85 -119 157 -221 160 -227 7
-19 -331 -351 -347 -341 -8 4 -109 77 -226 161 -167 121 -218 153 -243 153
-20 0 -68 -20 -128 -54 -115 -65 -228 -112 -372 -156 -147 -45 -156 -49 -169
-73 -6 -12 -30 -141 -54 -287 l-43 -265 -244 0 -244 0 -43 265 c-24 146 -48
275 -55 287 -6 13 -30 29 -52 36 -23 8 -97 32 -166 55 -139 45 -217 79 -335
146 -50 29 -92 46 -113 46 -27 0 -73 -29 -245 -153 -117 -84 -218 -157 -226
-161 -16 -10 -354 322 -347 341 3 6 75 108 160 227 123 169 156 221 156 246 0
20 -21 69 -55 130 -62 110 -130 275 -164 395 -32 114 -40 131 -64 144 -12 6
-141 30 -287 54 l-265 43 0 244 0 244 265 43 c146 24 275 48 287 54 24 13 32
30 64 144 34 120 102 285 164 395 34 61 55 110 55 130 0 24 -33 76 -153 243
-84 117 -157 218 -161 226 -10 16 322 354 341 347 6 -3 108 -75 227 -160 172
-125 221 -156 247 -156 21 0 67 20 130 55 104 59 273 130 379 159 108 30 144
45 157 64 6 11 30 136 53 278 23 142 43 265 45 272 4 10 58 12 247 10 l243 -3
42 -265z"/>
<path d="M2402 3920 c-600 -76 -1071 -518 -1188 -1116 -24 -122 -24 -366 0
-488 63 -324 227 -602 471 -805 549 -453 1335 -419 1835 79 197 196 323 428
381 700 29 138 32 381 5 514 -97 491 -430 883 -889 1045 -182 64 -436 93 -615
71z m418 -199 c407 -93 742 -398 869 -789 44 -136 56 -214 56 -372 0 -158 -12
-235 -57 -374 -113 -350 -405 -641 -756 -755 -136 -44 -214 -56 -372 -56 -212
0 -376 39 -550 131 -378 199 -615 572 -637 999 -31 609 406 1138 1022 1235 92
14 326 4 425 -19z"/>
<path d="M2796 3467 c-41 -41 -33 -112 15 -137 11 -6 48 -16 82 -21 132 -21
290 -128 367 -249 39 -61 70 -156 70 -215 0 -57 17 -93 51 -111 42 -21 67 -17
101 17 31 30 31 31 25 114 -7 96 -39 200 -89 282 -105 175 -337 326 -525 340
-67 5 -73 4 -97 -20z"/>
</g>
</svg>
