<?xml version="1.0" standalone="no"?>
<!DOCTYPE svg PUBLIC "-//W3C//DTD SVG 20010904//EN"
 "http://www.w3.org/TR/2001/REC-SVG-20010904/DTD/svg10.dtd">
<svg version="1.0" xmlns="http://www.w3.org/2000/svg"
 width="512.000000pt" height="512.000000pt" viewBox="0 0 512.000000 512.000000"
 preserveAspectRatio="xMidYMid meet">

<g transform="translate(0.000000,512.000000) scale(0.100000,-0.100000)"
fill="#000000" stroke="none">
<path d="M255 5026 c-41 -18 -83 -69 -90 -109 -3 -18 -5 -298 -3 -623 l3 -591
29 -37 c49 -64 59 -66 408 -66 l313 -1 155 -272 c163 -287 173 -298 233 -284
18 5 75 76 221 281 l196 275 289 3 c274 3 291 4 317 24 15 11 37 33 48 48 21
27 21 39 24 632 3 671 5 648 -64 700 l-37 29 -1006 2 c-821 2 -1012 0 -1036
-11z m1985 -706 l0 -560 -294 0 c-266 0 -296 -2 -314 -17 -11 -10 -93 -121
-182 -246 l-162 -228 -133 232 c-81 141 -143 237 -157 245 -17 10 -102 13
-350 14 l-328 0 0 560 0 560 960 0 960 0 0 -560z"/>
<path d="M985 4706 c-64 -20 -99 -42 -138 -85 -62 -69 -72 -96 -72 -196 0 -80
3 -95 27 -136 15 -26 119 -134 237 -247 181 -174 214 -202 241 -202 27 0 59
27 239 200 248 238 266 265 266 385 0 63 -5 89 -23 122 -52 99 -136 157 -243
169 -66 8 -146 -13 -203 -51 l-37 -25 -38 26 c-77 51 -174 66 -256 40z m148
-162 c18 -9 51 -34 74 -55 53 -49 97 -53 134 -13 40 44 110 84 146 84 102 0
175 -113 126 -195 -23 -40 -316 -325 -333 -325 -15 0 -306 282 -334 323 -23
34 -18 107 10 139 51 56 117 72 177 42z"/>
<path d="M2240 3347 c-49 -16 -133 -102 -148 -153 -17 -59 -17 -1529 0 -1588
16 -55 99 -138 154 -154 29 -8 147 -12 398 -12 l356 0 236 -315 c164 -219 244
-317 260 -321 54 -14 66 -1 308 321 l236 315 356 0 c251 0 369 4 398 12 55 16
138 99 154 154 17 59 17 1529 0 1588 -16 55 -99 138 -154 154 -56 16 -2501 16
-2554 -1z m2535 -172 l25 -24 0 -751 0 -751 -25 -24 -24 -25 -389 0 c-295 0
-392 -3 -405 -12 -9 -7 -109 -137 -222 -288 -114 -151 -210 -275 -215 -275 -5
0 -101 124 -215 275 -113 151 -213 281 -222 288 -13 9 -110 12 -405 12 l-389
0 -24 25 -25 24 0 751 0 751 25 24 24 25 1231 0 1231 0 24 -25z"/>
<path d="M3745 3004 c-55 -28 -73 -55 -126 -185 -30 -77 -60 -136 -72 -144
-32 -23 -94 -20 -102 5 -3 11 -18 29 -32 40 -24 18 -40 20 -200 20 -181 0
-222 -8 -237 -45 -3 -9 -6 -172 -6 -361 l0 -345 25 -24 c24 -25 26 -25 210
-25 112 0 194 4 206 11 11 5 24 21 29 35 l10 25 47 -36 47 -36 267 3 c362 4
344 -10 397 310 42 250 40 273 -32 344 -46 46 -93 64 -172 64 l-52 0 20 78
c35 137 13 219 -72 262 -47 24 -114 26 -155 4z m85 -160 c0 -8 -13 -69 -30
-134 -36 -144 -37 -154 -5 -185 23 -24 30 -25 143 -25 97 0 122 -3 133 -16 11
-13 8 -46 -17 -197 l-29 -182 -215 -2 -215 -3 -72 58 -73 57 0 141 0 141 65 5
c78 7 144 42 180 96 13 20 42 84 65 142 23 57 44 108 46 112 9 14 24 9 24 -8z
m-540 -504 l0 -240 -80 0 -80 0 0 240 0 240 80 0 80 0 0 -240z"/>
<path d="M655 2226 c-41 -18 -83 -69 -90 -109 -3 -18 -5 -334 -3 -703 l3 -671
29 -37 c47 -62 66 -66 328 -66 l233 -1 155 -272 c163 -287 173 -298 233 -284
18 5 75 76 221 281 l196 275 289 3 c274 3 291 4 317 24 15 11 37 33 48 48 20
26 21 43 24 297 l3 269 -81 0 -80 0 0 -240 0 -240 -294 0 c-266 0 -296 -2
-314 -18 -11 -9 -93 -120 -182 -245 l-162 -228 -133 232 c-81 141 -143 237
-157 245 -17 10 -87 13 -270 14 l-248 0 0 640 0 640 600 0 600 0 0 80 0 80
-617 0 c-491 -1 -624 -4 -648 -14z"/>
<path d="M1506 1984 c-34 -11 -64 -31 -102 -68 -63 -64 -90 -137 -81 -221 5
-54 44 -141 72 -165 14 -12 11 -16 -27 -35 -50 -25 -103 -89 -118 -143 -5 -20
-10 -124 -10 -230 0 -192 0 -193 25 -217 l24 -25 311 0 311 0 24 25 c25 24 25
25 25 217 0 106 -5 210 -10 230 -15 54 -68 118 -118 143 -38 19 -41 23 -27 35
28 24 67 111 72 165 17 162 -118 307 -281 304 -23 0 -63 -7 -90 -15z m178
-183 c26 -27 31 -39 31 -81 0 -43 -5 -54 -33 -82 -28 -28 -39 -33 -82 -33 -43
0 -54 5 -82 33 -28 28 -33 39 -33 81 0 52 25 92 70 112 37 16 96 3 129 -30z
m95 -467 c19 -24 21 -40 21 -160 l0 -134 -200 0 -200 0 0 134 c0 120 2 136 21
160 l20 26 159 0 159 0 20 -26z"/>
</g>
</svg>
