<svg width="624" height="624" xmlns="http://www.w3.org/2000/svg" xmlns:xlink="http://www.w3.org/1999/xlink" xml:space="preserve" overflow="hidden"><g><path d="M31.0781 612.544C26.0813 610.35 20.9625 604.134 20.1094 599.259 19.7437 597.066 19.5 562.941 19.7437 523.331L20.1094 451.303 23.6438 446.794C29.6156 438.994 30.8344 438.75 73.3688 438.75L111.516 438.628 130.406 405.478C150.272 370.5 151.491 369.159 158.803 370.866 160.997 371.475 167.944 380.128 185.738 405.113L209.625 438.628 244.847 438.994C278.241 439.359 280.312 439.481 283.481 441.919 285.309 443.259 287.991 445.941 289.331 447.769 291.891 451.059 291.891 452.522 292.256 524.794 292.622 606.572 292.866 603.769 284.456 610.106L279.947 613.641 157.341 613.884C57.2812 614.128 34.0031 613.884 31.0781 612.544ZM273 526.5 273 458.25 237.169 458.25C204.75 458.25 201.094 458.006 198.9 456.178 197.559 454.959 187.566 441.431 176.719 426.197L156.975 398.409 140.766 426.684C130.894 443.869 123.338 455.569 121.631 456.544 119.559 457.763 109.2 458.128 78.975 458.25L39 458.25 39 526.5 39 594.75 156 594.75 273 594.75 273 526.5Z" fill="#FFFFFF" transform="matrix(1 0 0 -1 0 624)"/><path d="M120.047 573.544C112.247 571.106 107.981 568.425 103.228 563.184 95.6719 554.775 94.4531 551.484 94.4531 539.297 94.4531 529.547 94.8188 527.719 97.7438 522.722 99.5719 519.553 112.247 506.391 126.628 492.619 148.688 471.413 152.709 468 156 468 159.291 468 163.191 471.291 185.128 492.375 215.353 521.381 217.547 524.672 217.547 539.297 217.547 546.975 216.938 550.144 214.744 554.166 208.406 566.231 198.169 573.3 185.128 574.763 177.084 575.737 167.334 573.178 160.387 568.547L155.878 565.5 151.247 568.669C141.863 574.884 130.041 576.713 120.047 573.544ZM138.084 553.8C140.278 552.703 144.3 549.656 147.103 547.097 153.562 541.125 158.925 540.638 163.434 545.513 168.309 550.875 176.841 555.75 181.228 555.75 193.659 555.75 202.556 541.978 196.584 531.984 193.781 527.109 158.072 492.375 156 492.375 154.172 492.375 118.706 526.744 115.294 531.741 112.491 535.884 113.1 544.781 116.513 548.681 122.728 555.506 130.772 557.456 138.084 553.8Z" fill="#FFFFFF" transform="matrix(1 0 0 -1 0 624)"/><path d="M273 407.916C267.028 405.966 256.791 395.484 254.963 389.269 252.891 382.078 252.891 202.922 254.963 195.731 256.913 189.028 267.028 178.913 273.731 176.963 277.266 175.988 291.647 175.5 322.238 175.5L365.625 175.5 394.388 137.109C414.375 110.419 424.125 98.475 426.075 97.9875 432.656 96.2812 434.119 97.8656 463.613 137.109L492.375 175.5 535.763 175.5C566.353 175.5 580.734 175.988 584.269 176.963 590.972 178.913 601.088 189.028 603.038 195.731 605.109 202.922 605.109 382.078 603.038 389.269 601.088 395.972 590.972 406.088 584.269 408.038 577.444 409.988 279.459 409.988 273 407.916ZM581.953 386.953 585 384.028 585 292.5 585 200.972 581.953 198.047 579.028 195 531.619 195C495.666 195 483.844 194.634 482.259 193.538 481.163 192.684 468.975 176.841 455.203 158.438 441.309 140.034 429.609 124.922 429 124.922 428.391 124.922 416.691 140.034 402.797 158.438 389.025 176.841 376.838 192.684 375.741 193.538 374.156 194.634 362.334 195 326.381 195L278.972 195 276.047 198.047 273 200.972 273 292.5 273 384.028 276.047 386.953 278.972 390 429 390 579.028 390 581.953 386.953Z" fill="#FFFFFF" transform="matrix(1 0 0 -1 0 624)"/><path d="M456.422 366.113C449.719 362.7 447.525 359.409 441.066 343.566 437.409 334.181 433.753 326.991 432.291 326.016 428.391 323.212 420.834 323.578 419.859 326.625 419.494 327.966 417.666 330.159 415.959 331.5 413.034 333.694 411.084 333.938 391.584 333.938 369.525 333.938 364.528 332.962 362.7 328.453 362.334 327.356 361.969 307.491 361.969 284.456L361.969 242.409 365.016 239.484C367.941 236.438 368.184 236.438 390.609 236.438 404.259 236.438 414.253 236.925 415.716 237.778 417.056 238.388 418.641 240.338 419.25 242.044L420.469 245.091 426.197 240.703 431.925 236.316 464.466 236.681C508.584 237.169 506.391 235.463 512.85 274.462 517.969 304.931 517.725 307.734 508.95 316.388 503.344 321.994 497.616 324.188 487.988 324.188L481.65 324.188 484.088 333.694C488.353 350.391 485.672 360.384 475.312 365.625 469.584 368.55 461.419 368.794 456.422 366.113ZM466.781 346.613C466.781 345.638 465.197 338.203 463.125 330.281 458.738 312.731 458.616 311.513 462.516 307.734 465.319 304.809 466.172 304.688 479.944 304.688 491.766 304.688 494.812 304.322 496.153 302.738 497.494 301.153 497.128 297.131 494.081 278.728L490.547 256.547 464.344 256.303 438.141 255.938 429.366 263.006 420.469 269.953 420.469 287.138 420.469 304.322 428.391 304.931C437.897 305.784 445.941 310.05 450.328 316.631 451.913 319.069 455.447 326.869 458.25 333.938 461.053 340.884 463.613 347.1 463.856 347.587 464.953 349.294 466.781 348.684 466.781 346.613ZM400.969 285.188 400.969 255.938 391.219 255.938 381.469 255.938 381.469 285.188 381.469 314.438 391.219 314.438 400.969 314.438 400.969 285.188Z" fill="#FFFFFF" transform="matrix(1 0 0 -1 0 624)"/><path d="M79.8281 271.294C74.8313 269.1 69.7125 262.884 68.8594 258.009 68.4938 255.816 68.25 217.303 68.4938 172.331L68.8594 90.5531 72.3938 86.0438C78.1219 78.4875 80.4375 78 112.369 78L140.766 77.8781 159.656 44.7281C179.522 9.75 180.741 8.40938 188.053 10.1156 190.247 10.725 197.194 19.3781 214.988 44.3625L238.875 77.8781 274.097 78.2438C307.491 78.6094 309.562 78.7313 312.731 81.1688 314.559 82.5094 317.241 85.1906 318.581 87.0188 321.019 90.1875 321.141 92.2594 321.506 123.216L321.872 156 312 156 302.25 156 302.25 126.75 302.25 97.5 266.419 97.5C234 97.5 230.344 97.2563 228.15 95.3063 226.809 94.2094 216.816 80.6813 205.969 65.4469L186.225 37.6594 170.016 65.9344C160.144 83.1188 152.588 94.8188 150.881 95.7938 148.809 97.0125 140.278 97.3781 117.975 97.5L87.75 97.5 87.75 175.5 87.75 253.5 160.875 253.5 234 253.5 234 263.25 234 273 158.803 273C98.9625 272.878 82.7531 272.513 79.8281 271.294Z" fill="#FFFFFF" transform="matrix(1 0 0 -1 0 624)"/><path d="M183.544 241.8C179.4 240.459 175.744 238.022 171.113 233.513 163.434 225.713 160.144 216.816 161.241 206.578 161.85 199.997 166.603 189.394 170.016 186.469 171.722 185.006 171.356 184.519 166.725 182.203 160.631 179.156 154.172 171.356 152.344 164.775 151.734 162.338 151.125 149.663 151.125 136.744 151.125 113.344 151.125 113.222 154.172 110.297L157.097 107.25 195 107.25 232.903 107.25 235.828 110.297C238.875 113.222 238.875 113.344 238.875 136.744 238.875 149.663 238.266 162.338 237.656 164.775 235.828 171.356 229.369 179.156 223.275 182.203 218.644 184.519 218.278 185.006 219.984 186.469 223.397 189.394 228.15 199.997 228.759 206.578 230.831 226.322 214.378 243.994 194.513 243.628 191.709 243.628 186.834 242.775 183.544 241.8ZM205.238 219.497C208.406 216.206 209.016 214.744 209.016 209.625 209.016 204.384 208.406 203.044 204.994 199.631 201.581 196.219 200.241 195.609 195 195.609 189.759 195.609 188.419 196.219 185.006 199.631 181.594 203.044 180.984 204.384 180.984 209.503 180.984 215.841 184.031 220.716 189.516 223.153 194.025 225.103 201.216 223.519 205.238 219.497ZM216.816 162.581C219.131 159.656 219.375 157.706 219.375 143.081L219.375 126.75 195 126.75 170.625 126.75 170.625 143.081C170.625 157.706 170.869 159.656 173.184 162.581L175.622 165.75 195 165.75 214.378 165.75 216.816 162.581Z" fill="#FFFFFF" transform="matrix(1 0 0 -1 0 624)"/></g></svg>