<svg width="624" height="624" xmlns="http://www.w3.org/2000/svg" xmlns:xlink="http://www.w3.org/1999/xlink" xml:space="preserve" overflow="hidden"><g><path d="M384.15 590.972C351.731 587.559 314.316 574.519 287.625 557.213 251.428 533.812 223.519 498.834 210.966 461.297 206.822 448.866 203.531 433.631 203.531 427.172 203.531 421.931 201.947 421.2 188.784 420.103 146.372 416.569 97.7438 395.972 62.6438 366.478-10.6031 305.053-20.5969 206.213 39 132.356 46.8 122.728 47.8969 120.778 48.9938 114.075 51.9188 95.55 44.9719 72.15 31.9313 57.1594 23.8875 48.1406 22.7906 44.3625 26.2031 37.9031 28.8844 32.6625 33.7594 31.2 46.0688 32.175 73.9781 34.2469 102.741 46.0688 123.825 64.1063 130.163 69.4688 130.163 69.4688 134.794 67.7625 150.516 62.2781 179.887 57.525 204.141 56.4281 298.472 52.4062 383.663 104.934 412.303 184.762 415.472 193.538 420.103 214.134 420.713 221.812 421.078 226.688 420.956 226.688 443.625 229.125 456.909 230.588 480.309 235.341 488.841 238.388L493.838 240.094 500.175 234.731C521.259 216.694 550.022 204.872 577.931 202.8 590.241 201.825 595.116 203.288 597.797 208.528 601.209 214.988 600.112 218.766 592.069 227.784 579.028 242.775 572.081 266.175 575.006 284.7 576.103 291.403 577.2 293.353 585 302.981 643.866 375.984 634.847 473.484 563.672 535.397 515.897 576.834 448.622 597.675 384.15 590.972ZM432.047 566.719C466.781 562.819 499.688 550.997 527.719 532.472 543.075 522.234 566.597 498.956 575.616 485.062 584.025 471.9 587.438 465.075 592.069 452.156 609.009 404.016 596.944 352.462 558.675 309.441 552.459 302.372 550.266 292.988 550.388 274.219 550.509 260.447 552.825 248.991 557.7 237.778 559.406 234.122 560.381 230.953 560.016 230.588 559.284 229.734 545.634 234.731 537.347 238.997 529.425 242.897 513.216 254.841 507.122 261.3 501.759 266.784 498.347 266.906 483.356 262.153 477.141 260.203 466.172 257.4 458.859 256.059 445.331 253.5 422.906 250.941 421.566 251.794 421.2 252.038 420.469 255.938 420.103 260.447 418.397 278.484 408.769 305.906 397.8 323.944 389.513 337.716 378.3 351.609 366.356 362.944L355.753 372.938 436.191 372.938C495.909 372.938 517.481 373.303 519.797 374.4 523.331 375.984 526.5 381.103 526.5 385.125 526.5 389.147 523.331 394.266 519.797 395.85 517.481 396.947 491.766 397.312 417.544 397.312L318.459 397.312 307.613 402.066C285.919 411.45 260.934 418.153 241.678 419.859 226.688 421.2 227.419 420.591 228.394 429.609 230.1 446.672 239.363 470.803 250.941 488.109 287.259 543.075 360.141 574.763 432.047 566.719ZM255.45 393.169C294.206 385.125 326.381 368.184 352.341 342.469 443.381 251.916 388.903 110.541 252.891 84.0938 219.497 77.6344 175.744 80.5594 141.375 91.4062 124.556 96.6469 123.216 96.525 113.588 87.6281 104.447 79.2188 94.9406 72.5156 85.9219 68.0062 78.2438 64.1063 64.7156 59.2313 63.9844 59.9625 63.6188 60.3281 64.5938 63.4969 66.3 67.1531 71.0531 78.2438 73.4906 89.8219 73.6125 103.594 73.7344 122.363 71.5406 131.747 65.325 138.816 17.3062 192.928 11.2125 258.863 49.1156 315.656 57.6469 328.575 82.0219 352.341 96.2812 361.847 123.459 379.884 156.244 391.828 190.125 396.094 206.213 398.044 238.753 396.581 255.45 393.169Z" fill="#FFFFFF" transform="matrix(1 0 0 -1 0 624)"/><path d="M306.028 468.731C295.425 462.881 299.934 446.062 312 446.062 318.216 446.062 324.188 452.034 324.188 458.128 324.188 467.269 314.072 473.241 306.028 468.731Z" fill="#FFFFFF" transform="matrix(1 0 0 -1 0 624)"/><path d="M354.778 468.731C346.613 464.222 346.856 451.303 355.266 447.525 357.581 446.428 378.788 446.062 437.531 446.062 496.275 446.062 517.481 446.428 519.797 447.525 523.331 449.109 526.5 454.228 526.5 458.25 526.5 462.272 523.331 467.391 519.797 468.975 514.922 471.169 358.8 470.925 354.778 468.731Z" fill="#FFFFFF" transform="matrix(1 0 0 -1 0 624)"/><path d="M103.716 273.731C93.1125 267.881 97.6219 251.062 109.688 251.062 115.903 251.062 121.875 257.034 121.875 263.128 121.875 272.269 111.759 278.241 103.716 273.731Z" fill="#FFFFFF" transform="matrix(1 0 0 -1 0 624)"/><path d="M152.466 273.731C144.3 269.222 144.544 256.303 152.953 252.525 157.463 250.453 312.975 250.453 317.484 252.525 321.019 254.109 324.188 259.228 324.188 263.25 324.188 267.272 321.019 272.391 317.484 273.975 312.609 276.169 156.488 275.925 152.466 273.731Z" fill="#FFFFFF" transform="matrix(1 0 0 -1 0 624)"/><path d="M103.716 200.606C95.55 196.097 95.7938 183.178 104.203 179.4 108.713 177.328 312.975 177.328 317.484 179.4 321.019 180.984 324.188 186.103 324.188 190.125 324.188 194.147 321.019 199.266 317.484 200.85 312.609 203.044 107.738 202.8 103.716 200.606Z" fill="#FFFFFF" transform="matrix(1 0 0 -1 0 624)"/></g></svg>