<?xml version="1.0" standalone="no"?>
<!DOCTYPE svg PUBLIC "-//W3C//DTD SVG 20010904//EN"
 "http://www.w3.org/TR/2001/REC-SVG-20010904/DTD/svg10.dtd">
<svg version="1.0" xmlns="http://www.w3.org/2000/svg"
 width="512.000000pt" height="512.000000pt" viewBox="0 0 512.000000 512.000000"
 preserveAspectRatio="xMidYMid meet">

<g transform="translate(0.000000,512.000000) scale(0.100000,-0.100000)"
fill="#000000" stroke="none">
<path d="M1420 4826 c-388 -82 -691 -370 -791 -754 -12 -46 -23 -126 -26 -197
-10 -231 47 -432 179 -628 53 -79 176 -203 251 -252 31 -21 57 -41 57 -44 0
-4 -32 -17 -71 -30 -101 -33 -270 -120 -374 -193 -115 -81 -282 -248 -364
-363 -116 -166 -206 -373 -254 -589 -21 -98 -22 -117 -22 -717 l0 -616 30 -49
c19 -30 49 -60 79 -79 l49 -30 560 -3 560 -2 29 27 c57 54 26 151 -53 167 -18
3 -103 6 -190 6 l-159 0 0 440 0 440 -29 32 c-24 27 -36 33 -71 33 -35 0 -47
-6 -71 -33 l-29 -32 0 -440 0 -440 -243 0 c-176 0 -246 3 -255 12 -20 20 -17
1049 4 1187 87 588 560 1047 1154 1120 55 7 554 11 1447 11 l1363 0 -2 -242
-3 -243 -610 -5 c-609 -5 -610 -5 -667 -28 -131 -53 -246 -158 -302 -275 -55
-118 -56 -125 -56 -859 l0 -678 -184 0 c-101 0 -197 -3 -215 -6 -79 -16 -110
-113 -53 -167 l28 -27 1420 2 1421 3 49 30 c30 19 60 49 79 79 l30 49 0 616
c0 599 -1 619 -22 717 -31 139 -66 242 -122 359 l-48 101 40 44 c202 229 111
585 -181 702 -55 22 -71 23 -373 26 l-316 3 92 92 c140 140 212 260 272 453
25 82 27 103 27 264 1 211 -15 284 -99 455 -130 267 -365 460 -652 536 -101
27 -313 37 -421 19 -153 -25 -329 -100 -450 -194 -117 -90 -241 -240 -298
-359 l-18 -37 -39 73 c-103 190 -255 334 -458 431 -143 69 -225 88 -409 92
-105 2 -176 -1 -220 -10z m386 -206 c158 -37 286 -112 401 -234 87 -91 142
-182 185 -306 31 -91 32 -101 33 -250 0 -135 -3 -165 -23 -230 -50 -158 -152
-312 -270 -406 -455 -361 -1112 -166 -1294 386 -29 88 -32 105 -32 240 -1 122
3 157 22 223 70 244 255 451 482 541 149 59 342 73 496 36z m1860 0 c306 -73
540 -313 609 -626 24 -105 17 -300 -15 -399 -105 -332 -393 -561 -731 -582
-378 -23 -715 207 -830 567 -96 297 -8 631 220 842 107 99 220 160 366 198 98
26 273 26 381 0z m-1090 -1262 c48 -95 106 -172 196 -260 l88 -88 -316 0 -316
0 76 71 c87 81 153 165 205 261 20 37 37 68 38 68 2 0 15 -24 29 -52z m2155
-571 c120 -60 172 -199 118 -317 -27 -59 -53 -86 -114 -118 -46 -23 -63 -26
-202 -30 l-153 -4 0 246 0 247 158 -3 c126 -2 164 -6 193 -21z m54 -724 c46
-95 80 -191 107 -308 20 -85 22 -123 25 -668 3 -437 1 -582 -8 -593 -9 -11
-56 -14 -255 -14 l-244 0 0 440 0 440 -29 32 c-24 27 -36 33 -71 33 -35 0 -47
-6 -71 -33 l-29 -32 0 -440 0 -440 -735 0 -736 0 3 692 3 693 28 57 c34 69 94
131 162 166 l50 27 862 5 c474 3 865 8 869 13 18 18 34 2 69 -70z"/>
<path d="M1673 473 c-35 -7 -73 -59 -73 -100 0 -80 109 -125 165 -69 73 73 10
188 -92 169z"/>
</g>
</svg>
