<svg width="624" height="624" xmlns="http://www.w3.org/2000/svg" xmlns:xlink="http://www.w3.org/1999/xlink" xml:space="preserve" overflow="hidden"><g><path d="M173.062 588.169C125.775 578.175 88.8469 543.075 76.6594 496.275 75.1969 490.669 73.8563 480.919 73.4906 472.266 72.2719 444.113 79.2188 419.616 95.3063 395.728 101.766 386.1 116.756 370.988 125.897 365.016 129.675 362.456 132.844 360.019 132.844 359.653 132.844 359.166 128.944 357.581 124.191 355.997 111.881 351.975 91.2844 341.372 78.6094 332.475 64.5938 322.603 44.2406 302.25 34.2469 288.234 20.1094 268.003 9.14062 242.775 3.29063 216.45 0.73125 204.506 0.609375 202.191 0.609375 129.066L0.609375 53.9906 4.26562 48.0188C6.58125 44.3625 10.2375 40.7062 13.8938 38.3906L19.8656 34.7344 88.1156 34.3688 156.366 34.125 159.9 37.4156C166.847 43.9969 163.069 55.8188 153.441 57.7688 151.247 58.1344 140.887 58.5 130.284 58.5L110.906 58.5 110.906 112.125 110.906 165.75 107.372 169.65C104.447 172.941 102.984 173.672 98.7188 173.672 94.4531 173.672 92.9906 172.941 90.0656 169.65L86.5312 165.75 86.5312 112.125 86.5312 58.5 56.9156 58.5C35.4656 58.5 26.9344 58.8656 25.8375 59.9625 23.4 62.4 23.7656 187.809 26.325 204.628 36.9281 276.291 94.575 332.231 166.969 341.128 173.672 341.981 234.488 342.469 343.322 342.469L509.438 342.469 509.194 312.975 508.828 283.359 434.484 282.75C360.263 282.141 360.141 282.141 353.194 279.337 337.228 272.878 323.212 260.081 316.388 245.822 309.684 231.441 309.562 230.588 309.562 141.131L309.562 58.5 287.138 58.5C274.828 58.5 263.128 58.1344 260.934 57.7688 251.306 55.8188 247.528 43.9969 254.475 37.4156L257.888 34.125 430.95 34.3688 604.134 34.7344 610.106 38.3906C613.763 40.7062 617.419 44.3625 619.734 48.0188L623.391 53.9906 623.391 129.066C623.391 202.069 623.269 204.506 620.709 216.45 616.931 233.391 612.666 245.944 605.841 260.203L599.991 272.513 604.866 277.875C629.484 305.784 618.394 349.172 582.806 363.431 576.103 366.113 574.153 366.234 537.347 366.6L498.834 366.966 510.047 378.178C527.109 395.241 535.884 409.866 543.197 433.388 546.244 443.381 546.487 445.941 546.487 465.562 546.609 491.278 544.659 500.175 534.422 521.016 518.578 553.556 489.938 577.078 454.959 586.341 442.65 589.631 416.812 590.85 403.65 588.656 385.003 585.609 363.553 576.469 348.806 565.013 334.547 554.044 319.434 535.763 312.488 521.259L310.294 516.75 305.541 525.647C292.988 548.803 274.462 566.353 249.722 578.175 232.294 586.584 222.3 588.9 199.875 589.388 187.078 589.631 178.425 589.266 173.062 588.169ZM220.106 563.062C239.363 558.553 254.963 549.413 268.978 534.544 279.581 523.453 286.284 512.362 291.525 497.25 295.303 486.159 295.425 484.941 295.547 466.781 295.547 450.328 295.181 446.672 292.744 438.75 286.65 419.494 274.219 400.725 259.837 389.269 204.384 345.272 124.312 369.038 102.131 436.312 98.5969 447.038 98.2313 449.109 98.2313 465.562 98.1094 480.431 98.5969 484.697 100.913 492.741 109.444 522.478 131.991 547.706 159.656 558.675 177.816 565.866 201.338 567.572 220.106 563.062ZM446.794 563.062C484.088 554.166 512.606 524.916 521.016 486.769 523.941 473.972 523.088 450.206 519.188 438.141 506.391 397.678 471.291 369.769 430.097 367.209 384.028 364.406 342.956 392.438 328.941 436.312 317.241 472.509 327.966 513.216 355.753 538.931 368.794 550.997 382.566 558.431 400.359 563.062 412.303 566.231 433.631 566.231 446.794 563.062ZM313.95 409.256C319.8 397.678 326.869 388.294 337.837 377.569L348.562 366.844 310.05 366.844 271.538 366.844 280.8 375.497C291.403 385.369 299.447 395.606 305.784 407.306 308.222 411.816 310.294 415.594 310.416 415.594 310.659 415.594 312.244 412.669 313.95 409.256ZM576.591 339.666C591.216 332.353 597.553 315.413 590.972 301.031 587.681 293.841 584.513 290.55 577.078 286.65 571.472 283.847 569.4 283.481 552.459 282.994L533.812 282.506 533.812 312.488 533.812 342.591 553.069 342.225C568.425 341.981 573.056 341.494 576.591 339.666ZM583.172 251.428C588.778 239.85 592.922 228.15 596.213 213.891 598.65 203.531 598.894 198.9 599.259 132.478 599.625 79.2188 599.381 61.5469 598.284 60.2063 597.188 58.8656 591.459 58.5 567.206 58.5L537.469 58.5 537.469 112.125 537.469 165.75 533.934 169.65C531.009 172.941 529.547 173.672 525.281 173.672 521.016 173.672 519.553 172.941 516.628 169.65L513.094 165.75 513.094 112.125 513.094 58.5 423.516 58.5 333.816 58.5 334.181 142.838 334.547 227.297 337.959 234.244C342.103 242.653 349.416 250.209 357.703 254.475L363.797 257.766 468.853 258.375C526.622 258.741 574.275 259.35 574.763 259.959 576.956 262.153 578.906 260.203 583.172 251.428Z" fill="#FFFFFF" transform="matrix(1 0 0 -1 0 624)"/><path d="M203.897 57.6469C199.631 56.7938 195 50.4563 195 45.4594 195 35.7094 208.284 30.225 215.109 37.05 224.006 45.9469 216.328 59.9625 203.897 57.6469Z" fill="#FFFFFF" transform="matrix(1 0 0 -1 0 624)"/></g></svg>