<svg width="512" height="512" xmlns="http://www.w3.org/2000/svg" xmlns:xlink="http://www.w3.org/1999/xlink" xml:space="preserve" overflow="hidden"><defs><clipPath id="clip0"><rect x="0" y="0" width="512" height="512"/></clipPath></defs><g clip-path="url(#clip0)"><path d="M54.0295-0.38768C55.432-0.391859 56.8345-0.39734 58.237-0.404 62.0679-0.418394 65.8985-0.414229 69.7294-0.406833 73.8699-0.402089 78.0104-0.414623 82.1509-0.42485 90.2536-0.442019 98.3562-0.442883 106.459-0.437638 113.047-0.433591 119.635-0.435045 126.223-0.440386 127.632-0.441508 127.632-0.441508 129.068-0.442654 130.976-0.444185 132.883-0.445724 134.79-0.447269 152.665-0.460987 170.539-0.455561 188.413-0.444084 204.752-0.434152 221.091-0.447091 237.429-0.471018 254.222-0.495423 271.014-0.505013 287.806-0.498365 297.228-0.494876 306.649-0.497085 316.07-0.514616 324.091-0.529355 332.111-0.529951 340.131-0.512545 344.219-0.504047 348.308-0.501856 352.396-0.517197 356.146-0.531089 359.895-0.526222 363.644-0.506957 365.629-0.501448 367.614-0.515431 369.599-0.530312 383.985-0.412859 396.097 4.45952 406.75 14.1875 416.973 25.1472 420.501 37.7538 420.293 52.3516 420.289 53.4916 420.284 54.6317 420.28 55.8062 420.263 59.4127 420.226 63.0187 420.188 66.625 420.172 69.0846 420.159 71.5443 420.146 74.0039 420.114 80.0028 420.064 86.0014 420 92 420.937 91.9867 420.937 91.9867 421.893 91.9731 428.448 91.884 435.003 91.824 441.558 91.7803 443.998 91.7603 446.438 91.7331 448.878 91.6982 452.403 91.6492 455.928 91.6269 459.453 91.6094 460.529 91.5887 461.604 91.5681 462.712 91.5468 476.564 91.5428 488.555 96.878 498.75 106.188 509.543 117.758 512.459 130.719 512.388 146.03 512.392 147.432 512.397 148.835 512.404 150.237 512.418 154.068 512.414 157.899 512.407 161.729 512.402 165.87 512.415 170.01 512.425 174.151 512.442 182.254 512.443 190.356 512.438 198.459 512.434 205.047 512.435 211.635 512.44 218.223 512.441 219.162 512.442 220.101 512.443 221.068 512.444 222.976 512.446 224.883 512.447 226.79 512.461 244.665 512.456 262.539 512.444 280.413 512.434 296.752 512.447 313.091 512.471 329.429 512.495 346.222 512.505 363.014 512.498 379.806 512.495 389.228 512.497 398.649 512.515 408.07 512.529 416.091 512.53 424.111 512.513 432.131 512.504 436.219 512.502 440.308 512.517 444.396 512.531 448.146 512.526 451.895 512.507 455.644 512.501 457.629 512.515 459.614 512.53 461.599 512.413 475.985 507.54 488.097 497.812 498.75 486.242 509.543 473.281 512.459 457.97 512.388 456.568 512.392 455.165 512.397 453.763 512.404 449.932 512.418 446.102 512.414 442.271 512.407 438.13 512.402 433.99 512.415 429.849 512.425 421.746 512.442 413.644 512.443 405.541 512.438 398.953 512.434 392.365 512.435 385.777 512.44 384.368 512.441 384.368 512.441 382.932 512.443 381.024 512.444 379.117 512.446 377.21 512.447 359.335 512.461 341.461 512.456 323.587 512.444 307.248 512.434 290.909 512.447 274.571 512.471 257.778 512.495 240.986 512.505 224.194 512.498 214.772 512.495 205.351 512.497 195.93 512.515 187.909 512.529 179.889 512.53 171.869 512.513 167.781 512.504 163.692 512.502 159.604 512.517 155.854 512.531 152.105 512.526 148.356 512.507 146.371 512.501 144.386 512.515 142.401 512.53 128.015 512.413 115.903 507.54 105.25 497.812 95.0275 486.853 91.4989 474.246 91.707 459.648 91.7113 458.508 91.7155 457.368 91.7199 456.194 91.7366 452.587 91.7742 448.981 91.8125 445.375 91.8276 442.915 91.8412 440.456 91.8535 437.996 91.8864 431.997 91.9365 425.999 92 420 91.3752 420.009 90.7504 420.018 90.1066 420.027 83.552 420.116 76.9975 420.176 70.4424 420.22 68.0022 420.24 65.5621 420.267 63.1221 420.302 59.5969 420.351 56.0723 420.373 52.5469 420.391 51.4714 420.411 50.3959 420.432 49.2878 420.453 35.4357 420.457 23.4451 415.122 13.25 405.812 2.45734 394.242-0.459255 381.281-0.38768 365.971-0.391861 364.568-0.397339 363.165-0.403999 361.763-0.418392 357.932-0.41423 354.102-0.406834 350.271-0.402088 346.13-0.414623 341.99-0.42485 337.849-0.44202 329.746-0.442883 321.644-0.437637 313.541-0.43359 306.953-0.435047 300.365-0.440388 293.777-0.441135 292.838-0.441883 291.899-0.442654 290.932-0.444187 289.024-0.445724 287.117-0.447269 285.21-0.460987 267.335-0.455563 249.461-0.444084 231.587-0.434151 215.248-0.44709 198.909-0.471016 182.571-0.495422 165.778-0.505013 148.986-0.498363 132.194-0.494877 122.772-0.497086 113.351-0.514614 103.93-0.529354 95.9095-0.529949 87.8894-0.512547 79.8692-0.504047 75.7805-0.501858 71.6921-0.517197 67.6035-0.53109 63.8542-0.526222 60.1053-0.506958 56.356-0.50145 54.371-0.51543 52.3861-0.530312 50.4012-0.412861 36.0153 4.45952 23.9033 14.1875 13.25 25.7585 2.45734 38.7191-0.459254 54.0295-0.38768ZM27.125 30.8125C19.4537 40.2596 19.8515 51.3029 19.8663 62.9229 19.864 64.2286 19.8618 65.5342 19.8594 66.8795 19.8533 70.4929 19.8534 74.1062 19.8546 77.7196 19.8548 81.6209 19.8493 85.5222 19.8446 89.4234 19.8363 97.0626 19.8335 104.702 19.8329 112.341 19.8325 118.552 19.8304 124.762 19.8272 130.973 19.8184 148.589 19.8138 166.205 19.8146 183.821 19.8146 184.77 19.8147 185.719 19.8147 186.698 19.8147 187.648 19.8148 188.598 19.8148 189.578 19.8152 204.98 19.8057 220.383 19.7916 235.785 19.7772 251.608 19.7703 267.431 19.7712 283.253 19.7715 292.133 19.7687 301.014 19.758 309.894 19.7489 317.455 19.7467 325.015 19.7535 332.576 19.7567 336.431 19.7568 340.287 19.7481 344.142 19.7388 348.327 19.7451 352.511 19.7528 356.696 19.7476 357.907 19.7425 359.119 19.7372 360.366 19.7828 371.589 20.8126 382.072 28.5664 390.754 38.5547 400.001 50.0254 400.15 62.9229 400.134 64.2286 400.136 65.5343 400.138 66.8795 400.141 70.4929 400.147 74.1062 400.147 77.7196 400.145 81.6209 400.145 85.5222 400.151 89.4234 400.155 97.0626 400.164 104.702 400.167 112.341 400.167 118.552 400.168 124.762 400.17 130.973 400.173 148.589 400.182 166.205 400.186 183.821 400.185 185.245 400.185 185.245 400.185 186.698 400.185 187.648 400.185 188.598 400.185 189.578 400.185 204.98 400.185 220.383 400.194 235.785 400.208 251.608 400.223 267.431 400.23 283.253 400.229 292.133 400.229 301.014 400.231 309.894 400.242 317.455 400.251 325.015 400.253 332.576 400.247 336.431 400.243 340.287 400.243 344.142 400.252 348.327 400.261 352.511 400.255 356.696 400.247 358.513 400.255 358.513 400.255 360.366 400.263 371.589 400.217 382.072 399.187 390.754 391.434 400.001 381.445 400.15 369.975 400.134 357.077 400.136 355.771 400.138 354.466 400.141 353.121 400.147 349.507 400.147 345.894 400.145 342.28 400.145 338.379 400.151 334.478 400.155 330.577 400.164 322.937 400.167 315.298 400.167 307.659 400.168 301.448 400.17 295.238 400.173 289.027 400.182 271.411 400.186 253.795 400.185 236.179 400.185 235.23 400.185 234.281 400.185 233.302 400.185 232.352 400.185 231.402 400.185 230.422 400.185 215.02 400.194 199.617 400.208 184.215 400.223 168.392 400.23 152.569 400.229 136.747 400.229 127.867 400.231 118.986 400.242 110.106 400.251 102.545 400.253 94.9848 400.247 87.4241 400.243 83.5687 400.243 79.7134 400.252 75.858 400.261 71.6732 400.255 67.4886 400.247 63.3039 400.255 61.4871 400.255 61.4871 400.263 59.6336 400.216 48.2092 399.123 37.7518 391.176 28.9883 381.276 19.7106 369.987 19.8499 357.077 19.8663 355.119 19.8629 355.119 19.8629 353.121 19.8594 349.507 19.8533 345.894 19.8534 342.28 19.8546 338.379 19.8548 334.478 19.8493 330.577 19.8446 322.937 19.8363 315.298 19.8335 307.659 19.8329 301.448 19.8325 295.238 19.8304 289.027 19.8272 271.411 19.8184 253.795 19.8138 236.179 19.8146 234.755 19.8146 234.755 19.8146 233.302 19.8147 231.877 19.8148 231.877 19.8148 230.422 19.8148 215.02 19.8152 199.617 19.8057 184.215 19.7916 168.392 19.7772 152.569 19.7703 136.747 19.7712 127.866 19.7715 118.986 19.7687 110.106 19.758 102.545 19.7489 94.9848 19.7467 87.4241 19.7535 83.5687 19.7567 79.7134 19.7568 75.858 19.7481 71.6732 19.7388 67.4886 19.7451 63.3039 19.7528 62.0927 19.7476 60.8815 19.7425 59.6336 19.7372 47.0793 19.7883 36.0576 21.2806 27.125 30.8125ZM420 112C419.999 112.563 419.999 113.125 419.998 113.705 419.962 147.074 419.906 180.443 419.822 213.812 419.812 217.822 419.802 221.833 419.792 225.843 419.79 227.04 419.79 227.04 419.787 228.262 419.756 241.174 419.739 254.086 419.727 266.998 419.714 280.255 419.687 293.513 419.645 306.77 419.62 314.945 419.607 323.12 419.609 331.295 419.609 336.907 419.594 342.519 419.568 348.131 419.553 351.365 419.547 354.599 419.554 357.833 419.561 361.35 419.543 364.866 419.519 368.383 419.531 369.894 419.531 369.894 419.543 371.437 419.389 384.254 414.532 395.752 405.969 405.254 395.417 415.328 383.227 419.305 368.984 419.278 367.884 419.284 366.783 419.29 365.649 419.296 361.968 419.313 358.286 419.316 354.604 419.319 351.962 419.328 349.321 419.338 346.68 419.349 340.996 419.372 335.311 419.387 329.627 419.397 321.409 419.411 313.191 419.437 304.973 419.465 291.639 419.51 278.304 419.547 264.97 419.578 252.019 419.608 239.068 419.643 226.117 419.683 224.919 419.686 224.919 419.686 223.697 419.69 219.69 419.702 215.684 419.715 211.677 419.727 178.451 419.831 145.226 419.92 112 420 111.95 425.798 111.914 431.597 111.89 437.395 111.88 439.364 111.867 441.333 111.849 443.301 111.825 446.146 111.813 448.991 111.805 451.836 111.794 452.703 111.784 453.57 111.773 454.463 111.772 464.91 113.414 474.745 120.566 482.754 130.555 492.001 142.025 492.15 154.923 492.134 156.229 492.136 157.534 492.138 158.879 492.141 162.493 492.147 166.106 492.147 169.72 492.145 173.621 492.145 177.522 492.151 181.423 492.155 189.063 492.164 196.702 492.167 204.341 492.167 210.552 492.168 216.762 492.17 222.973 492.173 240.589 492.182 258.205 492.186 275.821 492.185 277.245 492.185 277.245 492.185 278.698 492.185 279.648 492.185 280.598 492.185 281.578 492.185 296.98 492.185 312.383 492.194 327.785 492.208 343.608 492.223 359.431 492.23 375.253 492.229 384.134 492.229 393.014 492.231 401.894 492.242 409.455 492.251 417.015 492.253 424.576 492.247 428.431 492.243 432.287 492.243 436.142 492.252 440.327 492.261 444.511 492.255 448.696 492.247 450.513 492.255 450.513 492.255 452.366 492.263 463.589 492.217 474.072 491.187 482.754 483.434 492.001 473.445 492.15 461.975 492.134 449.077 492.136 447.771 492.138 446.466 492.141 445.121 492.147 441.507 492.147 437.894 492.145 434.28 492.145 430.379 492.151 426.478 492.155 422.577 492.164 414.937 492.167 407.298 492.167 399.659 492.168 393.448 492.17 387.238 492.173 381.027 492.182 363.411 492.186 345.795 492.185 328.179 492.185 327.23 492.185 326.281 492.185 325.302 492.185 324.352 492.185 323.402 492.185 322.422 492.185 307.02 492.194 291.617 492.208 276.215 492.223 260.392 492.23 244.569 492.229 228.747 492.229 219.867 492.231 210.986 492.242 202.106 492.251 194.545 492.253 186.985 492.247 179.424 492.243 175.569 492.243 171.713 492.252 167.858 492.261 163.673 492.255 159.489 492.247 155.304 492.255 153.487 492.255 153.487 492.263 151.634 492.216 140.209 491.123 129.752 483.176 120.988 474.135 112.516 464.003 111.833 452.129 111.902 451.207 111.904 450.284 111.905 449.334 111.907 446.41 111.912 443.486 111.925 440.562 111.938 438.571 111.943 436.579 111.947 434.588 111.951 429.725 111.962 424.863 111.979 420 112Z" fill="#FFFFFF"/><path d="M189.062 127.812C190.777 128.818 192.491 129.823 194.205 130.827 195.972 131.863 197.736 132.903 199.5 133.943 205.017 137.192 210.574 140.372 216.125 143.562 225.413 148.916 234.685 154.294 243.931 159.72 248.654 162.487 253.389 165.23 258.165 167.906 259.926 168.892 261.684 169.884 263.441 170.877 265.654 172.124 267.873 173.362 270.098 174.588 281.447 181.01 290.527 188.129 294.602 200.883 296.59 211.448 295.218 221.564 289.328 230.551 283.4 237.938 275.804 242.051 267.649 246.531 262.538 249.365 257.495 252.321 252.438 255.25 250.184 256.548 247.93 257.847 245.676 259.145 239.478 262.719 233.3 266.324 227.125 269.938 214.926 277.071 202.661 284.086 190.377 291.071 187.98 292.441 185.587 293.817 183.199 295.202 182.569 295.566 181.938 295.931 181.289 296.306 179.525 297.325 177.763 298.348 176.001 299.372 167.596 303.932 158.001 304.26 148.812 301.875 140.01 298.881 131.973 292 127.826 283.63 125 276.296 124.428 269.808 124.482 261.992 124.475 260.74 124.468 259.488 124.461 258.199 124.447 254.797 124.45 251.397 124.463 247.996 124.473 244.417 124.463 240.837 124.457 237.257 124.45 231.249 124.459 225.241 124.479 219.232 124.5 212.312 124.493 205.392 124.471 198.471 124.453 192.501 124.451 186.532 124.461 180.562 124.467 177.009 124.468 173.456 124.455 169.902 124.441 165.937 124.46 161.973 124.482 158.008 124.474 156.849 124.466 155.69 124.458 154.496 124.56 144.568 126.81 134.313 134 127 152.233 111.4 170.142 116.542 189.062 127.812ZM147.857 144.4C144.841 149.12 145.444 154.558 145.482 159.969 145.475 161.169 145.468 162.37 145.461 163.607 145.447 166.888 145.45 170.169 145.463 173.45 145.473 176.891 145.463 180.331 145.457 183.771 145.45 189.548 145.459 195.325 145.479 201.102 145.5 207.772 145.493 214.441 145.471 221.111 145.453 226.847 145.451 232.583 145.461 238.319 145.467 241.741 145.468 245.163 145.455 248.585 145.445 252.401 145.46 256.215 145.482 260.031 145.474 261.16 145.466 262.288 145.458 263.451 145.525 269.615 145.833 273.334 150 278 153.079 280.6 155.074 281.873 159.078 282.422 164.496 281.839 168.266 279.571 172.938 276.875 173.896 276.337 174.855 275.798 175.843 275.243 178.906 273.514 181.955 271.761 185 270 186.459 269.158 186.459 269.158 187.948 268.299 192.909 265.431 197.856 262.54 202.797 259.637 209.177 255.888 215.587 252.191 222 248.5 230.679 243.5 239.347 238.482 248 233.438 248.96 232.878 249.921 232.319 250.91 231.742 253.61 230.166 256.305 228.584 259 227 259.929 226.46 260.859 225.919 261.816 225.363 262.711 224.837 263.606 224.311 264.527 223.77 265.326 223.303 266.126 222.836 266.949 222.355 270.266 220.164 272.246 217.509 274 214 274.522 207.737 273.995 205.121 270 200 267.677 198.105 267.677 198.105 264.875 196.562 264.332 196.242 263.789 195.922 263.23 195.592 261.162 194.38 259.081 193.191 257 192 255.069 190.882 253.138 189.764 251.207 188.645 246.75 186.065 242.289 183.495 237.824 180.93 231.534 177.313 225.264 173.663 219 170 207.353 163.197 195.689 156.426 183.987 149.72 181.184 148.106 178.394 146.472 175.605 144.832 174.008 143.908 172.411 142.985 170.812 142.062 170.113 141.643 169.413 141.224 168.692 140.792 160.489 136.114 154.224 137.27 147.857 144.4Z" fill="#FFFFFF"/><path d="M171.056 456.74C172.633 456.729 172.633 456.729 174.242 456.719 175.401 456.721 176.56 456.723 177.754 456.726 178.982 456.721 180.211 456.715 181.476 456.71 184.892 456.698 188.307 456.694 191.722 456.695 195.403 456.693 199.084 456.68 202.766 456.668 210.817 456.646 218.869 456.638 226.92 456.633 231.946 456.629 236.971 456.623 241.997 456.616 255.906 456.596 269.815 456.58 283.724 456.577 284.614 456.576 285.505 456.576 286.422 456.576 288.227 456.576 290.032 456.575 291.837 456.575 293.181 456.575 293.181 456.575 294.553 456.574 295.45 456.574 296.347 456.574 297.271 456.574 311.814 456.57 326.357 456.543 340.9 456.506 355.824 456.468 370.748 456.449 385.673 456.448 394.055 456.448 402.437 456.439 410.819 456.41 417.956 456.386 425.092 456.378 432.228 456.393 435.87 456.401 439.512 456.4 443.154 456.377 447.1 456.353 451.046 456.367 454.992 456.385 456.146 456.372 457.301 456.359 458.49 456.345 466.226 456.427 466.226 456.427 470.188 459.359 472.331 462.482 473 464.205 473 468 471.55 472.35 470.851 474.433 467 477 464.703 477.254 464.703 477.254 461.944 477.26 460.893 477.267 459.841 477.274 458.758 477.281 457.599 477.279 456.44 477.277 455.246 477.274 454.018 477.279 452.789 477.285 451.524 477.29 448.108 477.302 444.693 477.306 441.278 477.305 437.597 477.307 433.916 477.32 430.234 477.332 422.183 477.354 414.131 477.362 406.08 477.367 401.054 477.371 396.029 477.377 391.003 477.384 377.094 477.404 363.185 477.42 349.276 477.423 347.94 477.424 347.94 477.424 346.578 477.424 344.773 477.424 342.968 477.425 341.163 477.425 340.267 477.425 339.37 477.425 338.447 477.426 337.55 477.426 336.653 477.426 335.729 477.426 321.186 477.43 306.643 477.457 292.1 477.494 277.176 477.532 262.252 477.551 247.327 477.552 238.945 477.552 230.563 477.561 222.181 477.59 215.044 477.614 207.908 477.622 200.772 477.607 197.13 477.599 193.488 477.6 189.846 477.623 185.9 477.647 181.954 477.633 178.008 477.615 176.854 477.628 175.699 477.641 174.51 477.655 166.774 477.573 166.774 477.573 162.812 474.641 160.669 471.518 160 469.795 160 466 162.168 459.497 164.072 456.755 171.056 456.74Z" fill="#FFFFFF"/><path d="M54.2812 34.3359C55.1724 34.3312 56.0635 34.3264 56.9816 34.3214 58.8609 34.318 60.7404 34.3272 62.6196 34.3481 65.4912 34.3749 68.359 34.3484 71.2305 34.3164 73.0599 34.3197 74.8893 34.3261 76.7188 34.3359 77.5741 34.3258 78.4294 34.3157 79.3107 34.3053 83.6818 34.3909 85.4677 34.5834 89.0176 37.3618 91.3591 40.4779 92 42.1035 92 46 90.55 50.3499 89.8512 52.4326 86 55 84.1164 55.2742 84.1164 55.2742 81.9751 55.3064 81.1706 55.3224 80.3661 55.3384 79.5373 55.3548 78.2388 55.3629 78.2388 55.3629 76.9141 55.3711 76.0201 55.3801 75.1262 55.3892 74.2052 55.3985 72.3139 55.413 70.4226 55.4218 68.5312 55.4255 65.6424 55.4374 62.7556 55.4866 59.8672 55.5371 58.0287 55.5466 56.1901 55.5538 54.3516 55.5586 53.49 55.5781 52.6283 55.5977 51.7406 55.6178 47.3194 55.5846 45.5524 55.4318 41.957 52.6213 39.8349 49.7788 39.3203 48.5008 39.375 45 39.3621 44.175 39.3492 43.35 39.3359 42.5 41.4177 34.663 47.3993 34.2545 54.2812 34.3359Z" fill="#FFFFFF"/><path d="M147 457C149.824 459.19 151.415 460.83 153 464 153.599 469.269 152.254 471.885 149 476 145.275 477.862 141.056 477.561 137 477 133.586 474.631 132.357 473.025 131 469.125 131 465.097 132.101 462.527 134 459 138.226 456.183 142.036 456.2 147 457Z" fill="#FFFFFF"/><path d="M115 35C118.414 37.369 119.643 38.975 121 42.875 121 46.9031 119.899 49.4727 118 53 113.75 55.8336 109.988 55.7557 105 55 101.928 52.9938 100.544 51.5775 99.3438 48.0977 98.5328 44.035 98.8281 42.326 100.812 38.5625 104.727 33.9769 109.261 34.2059 115 35Z" fill="#FFFFFF"/></g></svg>