<?xml version="1.0" encoding="UTF-8"?>
<svg version="1.1" xmlns="http://www.w3.org/2000/svg" width="512" height="512">
<path d="M0 0 C1.40251469 -0.00417941 2.80502599 -0.00966025 4.20753109 -0.01631981 C8.03837352 -0.0307136 11.8689997 -0.02654883 15.69985366 -0.019153 C19.84038902 -0.01440851 23.98087845 -0.02694248 28.12139893 -0.03717041 C36.22410715 -0.05433881 44.32673775 -0.05520248 52.42945944 -0.04995751 C59.01760828 -0.04591086 65.60573424 -0.04736524 72.19388199 -0.05270576 C73.60208686 -0.0538284 73.60208686 -0.0538284 75.03874031 -0.05497371 C76.9461162 -0.05650524 78.85349209 -0.05804359 80.76086797 -0.05958868 C98.63524049 -0.07330668 116.5095692 -0.06788099 134.38394071 -0.05640347 C150.72262064 -0.04647222 167.0611873 -0.05941112 183.39984976 -0.08333766 C200.19222034 -0.1077426 216.9845382 -0.11733307 233.77692616 -0.11068493 C243.19824017 -0.10719576 252.6194671 -0.10940479 262.04076767 -0.12693596 C270.06100686 -0.14167539 278.08109763 -0.14227066 286.10133396 -0.12486505 C290.18997103 -0.11636692 294.27834317 -0.11417623 298.36696625 -0.1295166 C302.11632495 -0.14340943 305.8651929 -0.13854229 309.61452354 -0.11927737 C311.59944856 -0.11376841 313.58439886 -0.12775047 315.56927574 -0.14263147 C329.95515866 -0.02517904 342.0671664 4.84720128 352.7204895 14.57518005 C362.94297961 25.53486897 366.47162232 38.14149171 366.26345825 52.73924255 C366.25921341 53.87928741 366.25496857 55.01933228 366.25059509 56.19392395 C366.23393285 59.80042618 366.19630345 63.40634949 366.1579895 67.01268005 C366.14292659 69.47230734 366.12924101 71.93194348 366.11697388 74.3915863 C366.08407022 80.3904785 366.0339964 86.3890379 365.9704895 92.38768005 C366.90770844 92.37435638 366.90770844 92.37435638 367.86386108 92.36076355 C374.41851572 92.27166654 380.9729959 92.21168922 387.52810669 92.16795349 C389.96828204 92.14794676 392.40841012 92.1207326 394.84841919 92.08592224 C398.37360361 92.03692131 401.89814939 92.01460089 405.4236145 91.99705505 C406.4991156 91.97640991 407.5746167 91.95576477 408.68270874 91.93449402 C422.53478687 91.9304706 434.52541064 97.26564256 444.7204895 106.57518005 C455.51315191 118.14615946 458.42974381 131.10674527 458.35816956 146.41719055 C458.36234897 147.81970524 458.36782981 149.22221654 458.37448937 150.62472165 C458.38888315 154.45556408 458.38471839 158.28619025 458.37732255 162.11704421 C458.37257807 166.25757957 458.38511204 170.398069 458.39533997 174.53858948 C458.41250837 182.6412977 458.41337203 190.74392831 458.40812706 198.84664999 C458.40408041 205.43479883 458.4055348 212.02292479 458.41087532 218.61107254 C458.41162374 219.54987579 458.41237216 220.48867904 458.41314327 221.45593087 C458.41467479 223.36330676 458.41621314 225.27068264 458.41775823 227.17805852 C458.43147624 245.05243104 458.42605055 262.92675975 458.41457302 280.80113126 C458.40464178 297.13981119 458.41758068 313.47837785 458.44150721 329.81704031 C458.46591215 346.60941089 458.47550263 363.40172875 458.46885449 380.19411671 C458.46536532 389.61543072 458.46757435 399.03665765 458.48510551 408.45795822 C458.49984495 416.47819741 458.50044021 424.49828818 458.4830346 432.51852451 C458.47453648 436.60716158 458.47234579 440.69553372 458.48768616 444.7841568 C458.50157899 448.5335155 458.49671185 452.28238345 458.47744692 456.0317141 C458.47193797 458.01663911 458.48592002 460.00158941 458.50080103 461.98646629 C458.38334859 476.37234921 453.51096828 488.48435695 443.7829895 499.13768005 C432.2120101 509.93034246 419.25142429 512.84693436 403.940979 512.77536011 C402.53846432 512.77953952 401.13595301 512.78502036 399.73344791 512.79167992 C395.90260548 512.8060737 392.07197931 512.80190894 388.24112535 512.79451311 C384.10058999 512.78976862 379.96010055 512.80230259 375.81958008 512.81253052 C367.71687186 512.82969892 359.61424125 512.83056258 351.51151957 512.82531761 C344.92337073 512.82127096 338.33524477 512.82272535 331.74709702 512.82806587 C330.33889214 512.82918851 330.33889214 512.82918851 328.90223869 512.83033382 C326.9948628 512.83186535 325.08748691 512.83340369 323.18011104 512.83494879 C305.30573852 512.84866679 287.43140981 512.8432411 269.55703829 512.83176357 C253.21835837 512.82183233 236.8797917 512.83477123 220.54112925 512.85869776 C203.74875866 512.88310271 186.9564408 512.89269318 170.16405284 512.88604504 C160.74273883 512.88255587 151.3215119 512.8847649 141.90021133 512.90229607 C133.87997215 512.9170355 125.85988137 512.91763077 117.83964504 512.90022516 C113.75100798 512.89172703 109.66263584 512.88953634 105.57401276 512.90487671 C101.82465406 512.91876954 98.0757861 512.9139024 94.32645546 512.89463747 C92.34153044 512.88912852 90.35658015 512.90311057 88.37170327 512.91799158 C73.98582035 512.80053914 61.8738126 507.92815883 51.2204895 498.20018005 C40.99799939 487.24049114 37.46935668 474.6338684 37.67752075 460.03611755 C37.68176559 458.89607269 37.68601044 457.75602783 37.69038391 456.58143616 C37.70704616 452.97493392 37.74467555 449.36901062 37.7829895 445.76268005 C37.79805241 443.30305276 37.81173799 440.84341663 37.82400513 438.3837738 C37.85690879 432.38488161 37.9069826 426.38632221 37.9704895 420.38768005 C37.34567688 420.3965625 36.72086426 420.40544495 36.07711792 420.41459656 C29.52246328 420.50369357 22.9679831 420.56367089 16.41287231 420.60740662 C13.97269696 420.62741334 11.53256888 420.65462751 9.09255981 420.68943787 C5.56737539 420.73843879 2.04282961 420.76075921 -1.4826355 420.77830505 C-2.5581366 420.7989502 -3.6336377 420.81959534 -4.74172974 420.84086609 C-18.59380786 420.8448895 -30.58443164 415.50971754 -40.7795105 406.20018005 C-51.5721729 394.62920065 -54.4887648 381.66861484 -54.41719055 366.35816956 C-54.42136997 364.95565487 -54.4268508 363.55314357 -54.43351036 362.15063846 C-54.44790415 358.31979603 -54.44373938 354.48916986 -54.43634355 350.6583159 C-54.43159907 346.51778054 -54.44413303 342.3772911 -54.45436096 338.23677063 C-54.47152937 330.13406241 -54.47239303 322.0314318 -54.46714806 313.92871012 C-54.46310141 307.34056128 -54.46455579 300.75243532 -54.46989632 294.16428757 C-54.47064474 293.22548432 -54.47139316 292.28668107 -54.47216426 291.31942924 C-54.47369579 289.41205335 -54.47523414 287.50467747 -54.47677923 285.59730159 C-54.49049723 267.72292907 -54.48507154 249.84860036 -54.47359402 231.97422884 C-54.46366278 215.63554892 -54.47660167 199.29698226 -54.50052821 182.9583198 C-54.52493315 166.16594921 -54.53452362 149.37363135 -54.52787548 132.5812434 C-54.52438631 123.15992938 -54.52659534 113.73870246 -54.54412651 104.31740189 C-54.55886594 96.2971627 -54.55946121 88.27707193 -54.5420556 80.25683559 C-54.53355747 76.16819853 -54.53136678 72.07982639 -54.54670715 67.99120331 C-54.56059998 64.24184461 -54.55573285 60.49297665 -54.53646792 56.74364601 C-54.53095896 54.75872099 -54.54494102 52.7737707 -54.55982202 50.78889382 C-54.44236959 36.4030109 -49.56998928 24.29100315 -39.8420105 13.63768005 C-28.27103109 2.84501765 -15.31044529 -0.07157425 0 0 Z M-26.9045105 31.20018005 C-34.5758009 40.64723213 -34.17799857 51.69062094 -34.16322327 63.31060791 C-34.16548882 64.61626998 -34.16775438 65.92193205 -34.17008859 67.26715964 C-34.17619154 70.88054805 -34.17607477 74.49391326 -34.17489421 78.10730565 C-34.17468983 82.00857277 -34.18021258 85.90983252 -34.18495178 89.81109619 C-34.19325056 97.45030254 -34.19600627 105.08950117 -34.19656416 112.72871164 C-34.19703967 118.93936812 -34.19909617 125.15002205 -34.20226479 131.36067772 C-34.21106912 148.97667443 -34.21568449 166.59266505 -34.21493431 184.20866398 C-34.21489436 185.15791751 -34.2148544 186.10717103 -34.21481323 187.08518982 C-34.21477235 188.03560493 -34.21473147 188.98602004 -34.21468935 189.96523561 C-34.21428291 205.36777799 -34.22385265 220.77029591 -34.2379516 236.17283121 C-34.25232066 251.99553649 -34.2592215 267.81822984 -34.25835782 283.6409418 C-34.25802604 292.52118537 -34.26076476 301.40140331 -34.27153587 310.28164101 C-34.28064782 317.84230267 -34.2828104 325.40292707 -34.27602645 332.96359185 C-34.27276481 336.81898774 -34.27269171 340.67431217 -34.2813797 344.52970123 C-34.2907127 348.71445514 -34.28445942 352.89904408 -34.27674866 357.08380127 C-34.28189222 358.29500147 -34.28703578 359.50620167 -34.29233521 360.75410491 C-34.24667213 371.97705971 -33.21695835 382.45959007 -25.46310425 391.1415863 C-15.4748331 400.38826887 -4.00412093 400.53779259 8.89341736 400.52139282 C10.19907943 400.52365838 11.5047415 400.52592394 12.84996909 400.52825814 C16.4633575 400.5343611 20.07672271 400.53424433 23.69011509 400.53306377 C27.59138222 400.53285938 31.49264197 400.53838213 35.39390564 400.54312134 C43.03311199 400.55142011 50.67231061 400.55417583 58.31152109 400.55473372 C64.52217756 400.55520923 70.7328315 400.55726573 76.94348717 400.56043434 C94.55948388 400.56923867 112.1754745 400.57385404 129.79147343 400.57310387 C131.21535372 400.57304393 131.21535372 400.57304393 132.66799927 400.57298279 C133.61841438 400.57294191 134.56882949 400.57290103 135.54804506 400.57285891 C150.95058744 400.57245246 166.35310536 400.5820222 181.75564066 400.59612115 C197.57834593 400.61049021 213.40103929 400.61739105 229.22375125 400.61652738 C238.10399482 400.6161956 246.98421276 400.61893431 255.86445045 400.62970543 C263.42511212 400.63881738 270.98573652 400.64097995 278.5464013 400.63419601 C282.40179719 400.63093436 286.25712162 400.63086126 290.11251068 400.63954926 C294.29726459 400.64888226 298.48185353 400.64262898 302.66661072 400.63491821 C304.48341102 400.64263356 304.48341102 400.64263356 306.33691436 400.65050477 C317.55986915 400.60484169 328.04239951 399.57512791 336.72439575 391.8212738 C345.97107832 381.83300266 346.12060204 370.36229049 346.10420227 357.4647522 C346.10646783 356.15909013 346.10873338 354.85342806 346.11106759 353.50820047 C346.11717054 349.89481206 346.11705378 346.28144684 346.11587322 342.66805446 C346.11566883 338.76678734 346.12119158 334.86552759 346.12593079 330.96426392 C346.13422956 323.32505757 346.13698527 315.68585894 346.13754316 308.04664847 C346.13801868 301.83599199 346.14007518 295.62533806 346.14324379 289.41468239 C346.15204812 271.79868568 346.15666349 254.18269506 346.15591332 236.56669613 C346.15587336 235.6174426 346.1558334 234.66818907 346.15579224 233.69017029 C346.15575136 232.73975518 346.15571047 231.78934006 346.15566836 230.81012449 C346.15526191 215.40758212 346.16483165 200.00506419 346.1789306 184.60252889 C346.19329966 168.77982362 346.2002005 152.95713027 346.19933683 137.13441831 C346.19900505 128.25417473 346.20174376 119.37395679 346.21251488 110.4937191 C346.22162682 102.93305744 346.2237894 95.37243303 346.21700545 87.81176826 C346.21374381 83.95637237 346.21367071 80.10104793 346.2223587 76.24565887 C346.23169171 72.06090497 346.22543843 67.87631602 346.21772766 63.69155884 C346.22544301 61.87475853 346.22544301 61.87475853 346.23331422 60.0212552 C346.18683156 48.59686844 345.0930183 38.13950517 337.14627075 29.3759613 C327.24617761 20.09827087 315.95761149 20.23755161 303.04756165 20.25396729 C301.08906854 20.25056895 301.08906854 20.25056895 299.09100991 20.24710196 C295.47762151 20.24099901 291.86425629 20.24111578 288.25086391 20.24229634 C284.34959679 20.24250072 280.44833704 20.23697798 276.54707336 20.23223877 C268.90786702 20.22394 261.26866839 20.22118428 253.62945791 20.22062639 C247.41880144 20.22015088 241.20814751 20.21809438 234.99749184 20.21492577 C217.38149513 20.20612143 199.7655045 20.20150606 182.14950558 20.20225624 C180.72562529 20.20231617 180.72562529 20.20231617 179.27297974 20.20237732 C177.84735707 20.20243864 177.84735707 20.20243864 176.39293394 20.2025012 C160.99039157 20.20290765 145.58787364 20.1933379 130.18533834 20.17923895 C114.36263307 20.16486989 98.53993972 20.15796906 82.71722776 20.15883273 C73.83698418 20.15916451 64.95676624 20.15642579 56.07652855 20.14565468 C48.51586689 20.13654273 40.95524248 20.13438015 33.3945777 20.1411641 C29.53918182 20.14442574 25.68385738 20.14449885 21.82846832 20.13581085 C17.64371442 20.12647785 13.45912547 20.13273113 9.27436829 20.14044189 C8.06316808 20.13529833 6.85196788 20.13015477 5.60406464 20.12485534 C-6.95023661 20.1759353 -17.97190695 21.66832427 -26.9045105 31.20018005 Z M365.9704895 112.38768005 C365.96989241 112.95020328 365.96929533 113.5127265 365.96868014 114.09229589 C365.93275513 147.46150985 365.87606854 180.83061678 365.79256855 214.19974454 C365.78255157 218.20998049 365.77270736 222.22021685 365.76296997 226.23045349 C365.76005791 227.42795904 365.76005791 227.42795904 365.75708702 228.64965662 C365.72609959 241.56166556 365.70909548 254.47365674 365.69729528 267.38569584 C365.68486682 280.6431098 365.65732724 293.90043085 365.61587644 307.15778613 C365.59078945 315.33264933 365.57736871 323.50735836 365.57905993 331.6822606 C365.57908978 337.29463547 365.56438887 342.90685377 365.53832522 348.51916757 C365.52373495 351.7530959 365.51761815 354.98664068 365.52468681 358.22060394 C365.5313483 361.73751228 365.51335287 365.2534943 365.48947144 368.77030945 C365.50111206 370.28203952 365.50111206 370.28203952 365.51298785 371.82430959 C365.35973888 384.64160099 360.50213106 396.1400701 351.9392395 405.6415863 C341.38705661 415.71586236 329.19780254 419.69310683 314.95439148 419.66615295 C313.85401847 419.67194536 312.75364547 419.67773776 311.61992782 419.68370569 C307.93800515 419.70069175 304.25620794 419.70358104 300.57424927 419.70652771 C297.93284902 419.71582684 295.29146254 419.72590858 292.65007019 419.73696899 C286.96600944 419.75921173 281.2819666 419.77424294 275.59787178 419.78433609 C267.37969464 419.79893946 259.16157993 419.82448091 250.94343948 419.85266738 C237.6091296 419.89810527 224.27481072 419.93473248 210.94046021 419.96580505 C197.98959778 419.9960029 185.03875735 420.03035884 172.08792114 420.07029724 C170.88990752 420.07398956 170.88990752 420.07398956 169.6676916 420.07775648 C165.66085473 420.09013132 161.65401812 420.10258781 157.64718163 420.11508489 C124.42164744 420.21860772 91.19608914 420.30782579 57.9704895 420.38768005 C57.92070859 426.18600746 57.88459089 431.9842079 57.86062622 437.78269958 C57.8506259 439.75147166 57.83702127 441.7202291 57.8196106 443.68894958 C57.7950978 446.53387586 57.78394645 449.3786042 57.775177 452.22361755 C57.76485443 453.09070343 57.75453186 453.95778931 57.74389648 454.85115051 C57.74201806 465.29784601 59.38432548 475.13284802 66.53689575 483.1415863 C76.5251669 492.38826887 87.99587907 492.53779259 100.89341736 492.52139282 C102.19907943 492.52365838 103.5047415 492.52592394 104.84996909 492.52825814 C108.4633575 492.5343611 112.07672271 492.53424433 115.69011509 492.53306377 C119.59138222 492.53285938 123.49264197 492.53838213 127.39390564 492.54312134 C135.03311199 492.55142011 142.67231061 492.55417583 150.31152109 492.55473372 C156.52217756 492.55520923 162.7328315 492.55726573 168.94348717 492.56043434 C186.55948388 492.56923867 204.1754745 492.57385404 221.79147343 492.57310387 C223.21535372 492.57304393 223.21535372 492.57304393 224.66799927 492.57298279 C225.61841438 492.57294191 226.56882949 492.57290103 227.54804506 492.57285891 C242.95058744 492.57245246 258.35310536 492.5820222 273.75564066 492.59612115 C289.57834593 492.61049021 305.40103929 492.61739105 321.22375125 492.61652738 C330.10399482 492.6161956 338.98421276 492.61893431 347.86445045 492.62970543 C355.42511212 492.63881738 362.98573652 492.64097995 370.5464013 492.63419601 C374.40179719 492.63093436 378.25712162 492.63086126 382.11251068 492.63954926 C386.29726459 492.64888226 390.48185353 492.64262898 394.66661072 492.63491821 C396.48341102 492.64263356 396.48341102 492.64263356 398.33691436 492.65050477 C409.55986915 492.60484169 420.04239951 491.57512791 428.72439575 483.8212738 C437.97107832 473.83300266 438.12060204 462.36229049 438.10420227 449.4647522 C438.10646783 448.15909013 438.10873338 446.85342806 438.11106759 445.50820047 C438.11717054 441.89481206 438.11705378 438.28144684 438.11587322 434.66805446 C438.11566883 430.76678734 438.12119158 426.86552759 438.12593079 422.96426392 C438.13422956 415.32505757 438.13698527 407.68585894 438.13754316 400.04664847 C438.13801868 393.83599199 438.14007518 387.62533806 438.14324379 381.41468239 C438.15204812 363.79868568 438.15666349 346.18269506 438.15591332 328.56669613 C438.15587336 327.6174426 438.1558334 326.66818907 438.15579224 325.69017029 C438.15575136 324.73975518 438.15571047 323.78934006 438.15566836 322.81012449 C438.15526191 307.40758212 438.16483165 292.00506419 438.1789306 276.60252889 C438.19329966 260.77982362 438.2002005 244.95713027 438.19933683 229.13441831 C438.19900505 220.25417473 438.20174376 211.37395679 438.21251488 202.4937191 C438.22162682 194.93305744 438.2237894 187.37243303 438.21700545 179.81176826 C438.21374381 175.95637237 438.21367071 172.10104793 438.2223587 168.24565887 C438.23169171 164.06090497 438.22543843 159.87631602 438.21772766 155.69155884 C438.22544301 153.87475853 438.22544301 153.87475853 438.23331422 152.0212552 C438.18683156 140.59686844 437.0930183 130.13950517 429.14627075 121.3759613 C420.1059826 112.90402133 409.97350232 112.22058379 398.09939575 112.2900238 C397.1770665 112.29143875 396.25473724 112.2928537 395.30445862 112.29431152 C392.38060152 112.29987499 389.45682316 112.31242063 386.5329895 112.32518005 C384.54145416 112.33019978 382.5499176 112.33476186 380.55838013 112.33885193 C375.69571994 112.34983244 370.83311803 112.36707167 365.9704895 112.38768005 Z " fill="#000000" transform="translate(54.029510498046875,-0.3876800537109375)"/>
<path d="M0 0 C1.71405637 1.00522034 3.4281215 2.01042609 5.1427002 3.01475525 C6.90904446 4.05080531 8.67313927 5.09060777 10.43701172 6.13085938 C15.95445785 9.37936163 21.511457 12.55939448 27.0625 15.75 C36.35010279 21.10317934 45.62252491 26.48184484 54.86816406 31.90722656 C59.59195907 34.67462351 64.32618346 37.4176685 69.10272217 40.09329224 C70.86355248 41.07999432 72.62152712 42.07161939 74.37890625 43.06445312 C76.59179909 44.3118802 78.81018638 45.5496345 81.03515625 46.77539062 C92.38421964 53.19789608 101.46412307 60.31628129 105.5390625 73.0703125 C107.52727594 83.63513294 106.15574063 93.75172633 100.265625 102.73828125 C94.33718146 110.12585721 86.74154399 114.23824898 78.58691406 118.71826172 C73.47540042 121.55286263 68.43279194 124.50849889 63.375 127.4375 C61.12126761 128.73597889 58.86736037 130.03415434 56.61328125 131.33203125 C50.4157605 134.90604516 44.23721137 138.51176895 38.0625 142.125 C25.86384185 149.25846785 13.59842411 156.27304397 1.31469727 163.25878906 C-1.08287831 164.62803991 -3.47532024 166.00427973 -5.86352539 167.38964844 C-6.49386688 167.75385895 -7.12420837 168.11806946 -7.77365112 168.49331665 C-9.53751122 169.51296295 -11.29945367 170.53592444 -13.0612793 171.55908203 C-21.46659071 176.1196797 -31.06111906 176.44793914 -40.25 174.0625 C-49.05226845 171.06805741 -57.08993657 164.187596 -61.23668671 155.81741333 C-64.06270638 148.48302419 -64.63468856 141.99509294 -64.58007812 134.1796875 C-64.5870874 132.92778625 -64.59409668 131.67588501 -64.60131836 130.38604736 C-64.61580665 126.98489435 -64.61255339 123.58472754 -64.59980202 120.1836319 C-64.58958865 116.60401707 -64.5990906 113.02444091 -64.60534668 109.44482422 C-64.61259907 103.4364476 -64.60309911 97.42826843 -64.58398438 91.41992188 C-64.56222009 84.49935263 -64.56927319 77.57925496 -64.59129 70.65869713 C-64.60951314 64.68888536 -64.61196876 58.71921455 -64.60153532 52.74938393 C-64.59533813 49.19610504 -64.59435939 45.64304692 -64.60768127 42.08978271 C-64.62151177 38.12477666 -64.60227765 34.1602877 -64.58007812 30.1953125 C-64.58817505 29.03654602 -64.59627197 27.87777954 -64.60461426 26.68389893 C-64.50216273 16.75543098 -62.25250603 6.50056237 -55.0625 -0.8125 C-36.82950071 -16.4129272 -18.9201755 -11.27088159 0 0 Z M-41.20593262 16.58789062 C-44.22124731 21.3077388 -43.61890289 26.74512051 -43.58007812 32.15625 C-43.5870874 33.35693115 -43.59409668 34.5576123 -43.60131836 35.79467773 C-43.61587567 39.075832 -43.61250807 42.35633754 -43.59980202 45.63748169 C-43.58964501 49.077996 -43.59907516 52.51846828 -43.60534668 55.95898438 C-43.61261528 61.73575574 -43.60305626 67.51232227 -43.58398438 73.2890625 C-43.5622169 79.95912848 -43.56926884 86.62870533 -43.59129 93.29875946 C-43.60946664 99.0348503 -43.61199134 104.77079425 -43.60153532 110.5069046 C-43.59531273 113.92875684 -43.5944304 117.35037949 -43.60768127 120.7722168 C-43.61783945 124.58806426 -43.60235368 128.40297249 -43.58007812 132.21875 C-43.58817505 133.34724365 -43.59627197 134.4757373 -43.60461426 135.63842773 C-43.53794533 141.80292219 -43.22910251 145.52139875 -39.0625 150.1875 C-35.98309472 152.78788668 -33.98813625 154.06063615 -29.984375 154.609375 C-24.56609864 154.02653252 -20.79639887 151.75898832 -16.125 149.0625 C-15.16625977 148.52407471 -14.20751953 147.98564941 -13.21972656 147.4309082 C-10.15621468 145.70178663 -7.10766702 143.94870638 -4.0625 142.1875 C-2.60336182 141.34566162 -2.60336182 141.34566162 -1.11474609 140.48681641 C3.84604183 137.61801709 8.79390816 134.72785775 13.734375 131.82421875 C20.11479422 128.07597565 26.52403224 124.37882824 32.9375 120.6875 C41.6164011 115.68755668 50.28460144 110.6698235 58.9375 105.625 C59.89785156 105.06554687 60.85820312 104.50609375 61.84765625 103.9296875 C64.5472476 102.35397666 67.24262421 100.77125854 69.9375 99.1875 C70.8668335 98.64722168 71.79616699 98.10694336 72.75366211 97.55029297 C73.64835205 97.0245166 74.54304199 96.49874023 75.46484375 95.95703125 C76.26398193 95.49014893 77.06312012 95.0232666 77.88647461 94.54223633 C81.20365374 92.35118443 83.18314138 89.69621724 84.9375 86.1875 C85.45943449 79.92428612 84.93270989 77.30869434 80.9375 72.1875 C78.61483652 70.29283332 78.61483652 70.29283332 75.8125 68.75 C75.26956299 68.4298291 74.72662598 68.1096582 74.16723633 67.77978516 C72.09912789 66.56724734 70.0183205 65.37809272 67.9375 64.1875 C66.00608574 63.06974391 64.07513345 61.95118936 62.14453125 60.83203125 C57.68796606 58.25275751 53.22636392 55.6824474 48.76171875 53.1171875 C42.47150929 49.50020608 36.20127967 45.85001111 29.9375 42.1875 C18.29097698 35.38476427 6.62697641 28.61348707 -5.07568359 21.90771484 C-7.87861196 20.29340773 -10.66884323 18.65912118 -13.45703125 17.01953125 C-15.05432488 16.09572689 -16.65195599 15.17250569 -18.25 14.25 C-18.9497998 13.83073242 -19.64959961 13.41146484 -20.37060547 12.97949219 C-28.57350884 8.30192023 -34.83840267 9.45701137 -41.20593262 16.58789062 Z " fill="#000000" transform="translate(189.0625,127.8125)"/>
<path d="M0 0 C1.57708758 -0.01059839 1.57708758 -0.01059839 3.18603551 -0.02141088 C4.34506183 -0.0189958 5.50408814 -0.01658071 6.69823647 -0.01409245 C7.92642117 -0.01932912 9.15460588 -0.0245658 10.4200083 -0.02996117 C13.83551656 -0.04239742 17.25081923 -0.04580392 20.66633606 -0.04536426 C24.34741418 -0.04700992 28.02845458 -0.06007166 31.70951271 -0.07155704 C39.76106633 -0.09442498 47.81259363 -0.10232945 55.86417532 -0.10738349 C60.88969345 -0.11063817 65.9152039 -0.11715922 70.9407177 -0.12438488 C84.84977853 -0.14395248 98.75883223 -0.16035597 112.66790771 -0.16326141 C113.55829553 -0.16344898 114.44868334 -0.16363655 115.36605261 -0.16382981 C117.17115092 -0.16419606 118.97624924 -0.16455976 120.78134756 -0.16492092 C122.12546132 -0.16519514 122.12546132 -0.16519514 123.4967289 -0.16547489 C124.39389589 -0.16565544 125.29106288 -0.16583599 126.21541674 -0.16602201 C140.75836588 -0.16956496 155.30116707 -0.19659413 169.84406488 -0.23397278 C184.76826572 -0.27202516 199.69239309 -0.29141866 214.61664355 -0.29172093 C222.99885874 -0.29230616 231.3808974 -0.30084058 239.76306725 -0.32971859 C246.89949306 -0.35419142 254.03567798 -0.36154322 261.17213438 -0.34647106 C264.81438022 -0.33928539 268.45614997 -0.34022986 272.0983429 -0.36288166 C276.04437012 -0.38718837 279.98971266 -0.37288226 283.93578529 -0.35466862 C285.09035016 -0.36786858 286.24491503 -0.38106855 287.43446672 -0.39466852 C295.16978357 -0.31275759 295.16978357 -0.31275759 299.1320076 2.61879539 C301.27495363 5.74248916 301.94399452 7.46538742 301.94399452 11.26006222 C300.49404022 15.60992512 299.79514777 17.69262672 295.94399452 20.26006222 C293.64713156 20.51421255 293.64713156 20.51421255 290.88798904 20.52012444 C289.83659732 20.52719003 288.78520561 20.53425562 287.70195353 20.54153532 C286.54292722 20.53912023 285.3839009 20.53670515 284.18975258 20.53421688 C282.96156787 20.53945356 281.73338317 20.54469024 280.46798074 20.5500856 C277.05247248 20.56252186 273.63716981 20.56592836 270.22165298 20.5654887 C266.54057486 20.56713436 262.85953446 20.58019609 259.17847633 20.59168148 C251.12692271 20.61454941 243.07539542 20.62245388 235.02381372 20.62750793 C229.99829559 20.6307626 224.97278514 20.63728366 219.94727135 20.64450932 C206.03821051 20.66407691 192.12915682 20.68048041 178.22008133 20.68338585 C176.88449961 20.6836672 176.88449961 20.6836672 175.52193644 20.68395424 C173.71683812 20.6843205 171.9117398 20.6846842 170.10664149 20.68504535 C169.21056564 20.68522817 168.3144898 20.68541098 167.39126015 20.68559933 C166.49409316 20.68577988 165.59692617 20.68596043 164.6725723 20.68614645 C150.12962316 20.68968939 135.58682198 20.71671856 121.04392417 20.75409722 C106.11972332 20.79214959 91.19559595 20.8115431 76.2713455 20.81184536 C67.88913031 20.8124306 59.50709164 20.82096502 51.1249218 20.84984303 C43.98849598 20.87431586 36.85231106 20.88166765 29.71585466 20.8665955 C26.07360882 20.85940983 22.43183907 20.86035429 18.78964615 20.8830061 C14.84361892 20.9073128 10.89827639 20.89300669 6.95220375 20.87479305 C5.79763888 20.88799302 4.64307401 20.90119299 3.45352232 20.91479295 C-4.28179453 20.83288203 -4.28179453 20.83288203 -8.24401855 17.90132904 C-10.38696458 14.77763528 -11.05600548 13.05473702 -11.05600548 9.26006222 C-8.88839083 2.75721828 -6.98429687 0.01496493 0 0 Z " fill="#000000" transform="translate(171.05600547790527,456.7399377822876)"/>
<path d="M0 0 C0.89110474 -0.00478363 1.78220947 -0.00956726 2.70031738 -0.01449585 C4.57968924 -0.01789022 6.4591205 -0.00872012 8.33837891 0.01220703 C11.21000198 0.03898094 14.07771679 0.01244539 16.94921875 -0.01953125 C18.77865443 -0.01622707 20.60808769 -0.00982066 22.4375 0 C23.29283325 -0.01012115 24.1481665 -0.02024231 25.02941895 -0.03067017 C29.40055321 0.05498147 31.18642914 0.24742237 34.73632812 3.02587891 C37.07786671 6.14197077 37.71875 7.76760576 37.71875 11.6640625 C36.2687957 16.01392541 35.56990325 18.096627 31.71875 20.6640625 C29.83511353 20.93821716 29.83511353 20.93821716 27.69384766 20.97045898 C26.88936188 20.98644638 26.0848761 21.00243378 25.25601196 21.01890564 C23.95752823 21.02694969 23.95752823 21.02694969 22.6328125 21.03515625 C21.73887787 21.04418472 20.84494324 21.0532132 19.92391968 21.06251526 C18.03264721 21.07702227 16.1413245 21.08590562 14.25 21.08959961 C11.36111554 21.10149102 8.47437075 21.15066618 5.5859375 21.20117188 C3.74740625 21.21063686 1.90886189 21.21787154 0.0703125 21.22265625 C-0.79129486 21.24218857 -1.65290222 21.26172089 -2.5406189 21.28184509 C-6.96181516 21.24870356 -8.72882984 21.09588452 -12.32421875 18.28540039 C-14.44636881 15.44289475 -14.96095062 14.16490236 -14.90625 10.6640625 C-14.91914062 9.8390625 -14.93203125 9.0140625 -14.9453125 8.1640625 C-12.86359785 0.3270191 -6.88193065 -0.08143386 0 0 Z " fill="#000000" transform="translate(54.28125,34.3359375)"/>
<path d="M0 0 C2.82424288 2.19022918 4.41508603 3.83017207 6 7 C6.59873168 12.26883876 5.25400021 14.8846468 2 19 C-1.72486631 20.86243315 -5.94377225 20.56123906 -10 20 C-13.41421647 17.63095184 -14.64346607 16.02503506 -16 12.125 C-16 8.09693738 -14.89929459 5.52726138 -13 2 C-8.7741215 -0.81725233 -4.96375312 -0.79958384 0 0 Z " fill="#000000" transform="translate(147,457)"/>
<path d="M0 0 C3.41421647 2.36904816 4.64346607 3.97496494 6 7.875 C6 11.90306262 4.89929459 14.47273862 3 18 C-1.25040238 20.83360159 -5.01218939 20.75572888 -10 20 C-13.07204549 17.99376621 -14.45581618 16.57748525 -15.65625 13.09765625 C-16.46721439 9.03503657 -16.17188952 7.32599737 -14.1875 3.5625 C-10.27298347 -1.0230765 -5.73896321 -0.79407038 0 0 Z " fill="#000000" transform="translate(115,35)"/>
</svg>
